<svg xmlns="http://www.w3.org/2000/svg" xmlns:xlink="http://www.w3.org/1999/xlink" width="1080" zoomAndPan="magnify" viewBox="0 0 810 809.999993" height="1080" preserveAspectRatio="xMidYMid meet" version="1.0"><path fill="#ffffff" d="M 304.199219 118.195312 C 254.480469 118.195312 207.761719 137.554688 172.617188 172.710938 C 164.09375 181.234375 164.09375 195.027344 172.617188 203.550781 C 176.875 207.808594 182.449219 209.933594 188.035156 209.933594 C 193.609375 209.933594 199.195312 207.808594 203.453125 203.550781 C 230.359375 176.636719 266.140625 161.808594 304.199219 161.808594 C 342.257812 161.808594 378.03125 176.636719 404.949219 203.550781 C 413.464844 212.066406 427.265625 212.066406 435.78125 203.550781 C 444.304688 195.027344 444.304688 181.234375 435.78125 172.710938 C 400.636719 137.554688 353.902344 118.195312 304.199219 118.195312 " fill-opacity="1" fill-rule="nonzero"/><path fill="#ffffff" d="M 696.222656 728.042969 L 583.632812 615.445312 L 615.355469 583.714844 L 727.941406 696.3125 Z M 304.199219 543.023438 C 240.445312 543.023438 180.496094 518.175781 135.402344 473.089844 C 90.316406 428.003906 65.488281 368.058594 65.488281 304.300781 C 65.488281 240.515625 90.316406 180.570312 135.402344 135.484375 C 180.496094 90.410156 240.445312 65.554688 304.199219 65.554688 C 367.957031 65.554688 427.902344 90.410156 472.996094 135.484375 C 518.082031 180.570312 542.910156 240.515625 542.910156 304.300781 C 542.910156 368.058594 518.082031 428.003906 472.996094 473.089844 C 427.902344 518.175781 367.957031 543.023438 304.199219 543.023438 Z M 797.320312 673.179688 L 638.480469 514.339844 C 626.207031 502.066406 604.488281 502.066406 592.21875 514.339844 L 576.371094 530.195312 L 541.15625 494.976562 C 584.671875 441.109375 608.335938 374.527344 608.335938 304.300781 C 608.335938 223.039062 576.695312 146.671875 519.257812 89.234375 C 461.8125 31.777344 385.445312 0.128906 304.199219 0.128906 C 222.957031 0.128906 146.589844 31.777344 89.140625 89.234375 C 31.707031 146.671875 0.0664062 223.039062 0.0664062 304.300781 C 0.0664062 385.542969 31.707031 461.902344 89.140625 519.339844 C 146.589844 576.796875 222.957031 608.445312 304.199219 608.445312 C 374.4375 608.445312 441.027344 584.773438 494.902344 541.230469 L 530.121094 576.445312 L 514.246094 592.320312 C 501.472656 605.101562 501.472656 625.796875 514.246094 638.578125 L 673.09375 797.417969 C 679.226562 803.550781 687.542969 807 696.222656 807 C 704.898438 807 713.214844 803.550781 719.347656 797.417969 L 797.320312 719.4375 C 810.101562 706.65625 810.101562 685.960938 797.320312 673.179688 " fill-opacity="1" fill-rule="nonzero"/><path fill="#ffffff" d="M 470.03125 223.820312 C 457.4375 223.820312 447.226562 234.019531 447.226562 246.613281 C 447.226562 259.207031 457.4375 269.40625 470.03125 269.40625 C 482.625 269.40625 492.824219 259.207031 492.824219 246.613281 C 492.824219 234.019531 482.625 223.820312 470.03125 223.820312 " fill-opacity="1" fill-rule="nonzero"/></svg>