<svg xmlns="http://www.w3.org/2000/svg" xmlns:xlink="http://www.w3.org/1999/xlink" width="1080" zoomAndPan="magnify" viewBox="0 0 810 809.999993" height="1080" preserveAspectRatio="xMidYMid meet" version="1.0"><path fill="#f18c73" d="M 324.097656 364.765625 C 324.097656 364.765625 610.214844 2.320312 654.183594 -0.046875 C 698.160156 26.011719 641.335938 76.539062 636.601562 90.363281 C 631.867188 104.179688 380.910156 556.648438 324.097656 554.28125 C 267.273438 551.90625 217.316406 496.421875 324.097656 364.765625 Z M 324.097656 364.765625 " fill-opacity="1" fill-rule="nonzero"/><path fill="#fdebde" d="M 291.945312 670.996094 C 276.765625 684.617188 259.886719 695.160156 242.890625 701.011719 C 125.292969 741.402344 165.664062 792.3125 162.15625 801.097656 C 158.65625 809.867188 111.253906 773.007812 121.792969 697.480469 C 125.390625 671.683594 133.464844 633.425781 147.554688 595.496094 C 174.683594 522.414062 224.136719 450.546875 306.8125 471.199219 C 333.777344 488.917969 347.152344 512.375 350.632812 537.601562 C 357.09375 584.320312 329.707031 637.140625 291.945312 670.996094 Z M 291.945312 670.996094 " fill-opacity="1" fill-rule="nonzero"/><path fill="#e94b59" d="M 291.945312 670.996094 C 276.765625 684.617188 259.886719 695.160156 242.890625 701.011719 C 125.292969 741.402344 165.664062 792.3125 162.15625 801.097656 C 158.65625 809.867188 111.253906 773.007812 121.792969 697.480469 C 125.390625 671.683594 133.464844 633.425781 147.554688 595.496094 C 164.074219 592.421875 172.980469 611.65625 162.320312 628.5 C 147.3125 652.191406 145.746094 726.433594 153.636719 709.042969 C 161.515625 691.683594 156.003906 671.949219 183.632812 682.988281 C 211.238281 694.046875 201.765625 665.625 208.871094 652.195312 C 215.972656 638.785156 256.21875 625.355469 243.152344 661.667969 C 233.679688 687.957031 267.464844 670.425781 291.945312 670.996094 Z M 291.945312 670.996094 " fill-opacity="1" fill-rule="nonzero"/><path stroke-linecap="round" transform="matrix(4.041434, 0, 0, 4.043934, -463.688229, -458.582069)" fill="none" stroke-linejoin="round" d="M 146.597852 291.763199 C 146.597852 291.763199 146.890717 298.35293 149.087686 303.038768 " stroke="#ed6c71" stroke-width="4.556" stroke-opacity="1" stroke-miterlimit="10"/><path stroke-linecap="round" transform="matrix(4.041434, 0, 0, 4.043934, -463.688229, -458.582069)" fill="none" stroke-linejoin="round" d="M 147.842769 280.632523 C 147.842769 280.632523 149.673416 267.59892 151.724436 265.255518 " stroke="#ed6c71" stroke-width="4.556" stroke-opacity="1" stroke-miterlimit="10"/><path stroke-linecap="round" transform="matrix(4.041434, 0, 0, 4.043934, -463.688229, -458.582069)" fill="none" stroke-linejoin="round" d="M 218.944153 181.926621 C 218.944153 181.926621 236.909426 156.541378 240.422836 152.831153 " stroke="#c77660" stroke-width="4.556" stroke-opacity="1" stroke-miterlimit="10"/><path stroke-linecap="round" transform="matrix(4.041434, 0, 0, 4.043934, -463.688229, -458.582069)" fill="none" stroke-linejoin="round" d="M 244.328667 147.754104 C 244.328667 147.754104 249.601199 140.723898 250.771692 140.138531 " stroke="#c77660" stroke-width="4.556" stroke-opacity="1" stroke-miterlimit="10"/></svg>