<svg xmlns="http://www.w3.org/2000/svg" xmlns:xlink="http://www.w3.org/1999/xlink" width="1080" zoomAndPan="magnify" viewBox="0 0 810 809.999993" height="1080" preserveAspectRatio="xMidYMid meet" version="1.0"><path fill="#8c52ff" d="M 280.074219 504.5625 C 263.523438 510.316406 247.875 516.433594 231.683594 521.648438 C 180.78125 537.839844 129.332031 549.53125 75.371094 539.996094 C 60.621094 537.660156 46.230469 532.621094 33.277344 525.066406 C 8.273438 509.957031 0 488.910156 7.195312 460.492188 C 12.773438 438.003906 28.242188 423.074219 45.328125 409.585938 C 87.0625 376.488281 135.449219 356.699219 185.636719 341.050781 C 197.328125 337.453125 209.019531 334.214844 221.613281 330.617188 C 214.058594 321.261719 206.863281 312.628906 200.027344 303.816406 C 178.800781 276.832031 161.53125 246.972656 148.582031 215.132812 C 140.125 193.910156 134.371094 171.964844 134.550781 148.9375 C 134.910156 125.375 141.746094 103.96875 158.292969 86.519531 C 166.75 77.527344 178.082031 74.648438 189.953125 73.027344 C 215.855469 69.609375 241.398438 70.332031 266.402344 78.964844 C 288.167969 86.339844 307.59375 98.933594 323.246094 115.660156 C 328.28125 120.878906 330.800781 128.613281 334.757812 135.628906 L 336.914062 134.726562 C 337.816406 140.84375 338.714844 146.601562 346.628906 147.5 C 349.148438 147.859375 353.105469 161.53125 352.386719 163.6875 L 363.179688 173.042969 C 371.273438 162.25 378.828125 151.097656 387.640625 141.023438 C 414.625 110.265625 448.800781 89.398438 486.214844 74.46875 C 552.589844 48.207031 617.527344 53.421875 680.304688 86.699219 C 690.378906 92.097656 699.375 99.652344 708.007812 107.207031 C 718.082031 116.019531 720.78125 127.890625 718.261719 140.84375 C 715.023438 158.292969 707.289062 174.660156 695.597656 188.152344 C 670.773438 216.753906 643.429688 242.835938 611.050781 263.164062 C 585.6875 278.992188 559.785156 293.742188 534.0625 309.03125 C 532.984375 309.929688 531.90625 310.832031 530.824219 311.730469 C 541.617188 313.707031 551.332031 315.507812 561.226562 317.125 C 612.132812 325.222656 660.160156 341.949219 706.027344 364.792969 C 724.738281 373.96875 743.625 382.78125 761.613281 393.214844 C 772.40625 399.332031 781.9375 407.785156 791.113281 416.238281 C 801.546875 425.953125 806.761719 438.90625 808.382812 452.753906 C 810 465.167969 803.34375 474.519531 794.171875 482.4375 C 790.574219 485.492188 788.054688 489.632812 785.175781 493.410156 C 783.917969 495.386719 782.65625 497.367188 781.21875 499.34375 C 760.351562 520.570312 733.011719 534.0625 703.511719 537.839844 C 643.609375 545.933594 584.609375 543.054688 526.6875 524.707031 C 516.4375 521.46875 506.542969 516.972656 495.210938 512.476562 C 496.109375 515.714844 496.648438 518.230469 497.367188 520.570312 C 504.742188 545.574219 510.859375 570.757812 512.839844 597.019531 C 515.175781 630.835938 507.082031 661.417969 488.734375 690.019531 C 479.019531 705.308594 469.667969 720.597656 456.175781 733.1875 C 442.144531 746.5 424.695312 753.515625 406.347656 757.292969 C 385.304688 761.789062 367.136719 754.59375 352.925781 738.046875 C 337.453125 719.878906 326.480469 699.011719 317.308594 677.246094 C 295.722656 626.339844 284.75 572.914062 281.332031 517.871094 C 281.332031 513.734375 280.613281 509.417969 280.074219 504.5625 Z M 157.933594 480.636719 L 158.472656 478.839844 C 163.152344 478.660156 167.828125 478.117188 172.324219 477.21875 C 198.949219 470.5625 225.570312 463.910156 252.011719 456.535156 C 262.625 453.65625 272.519531 448.617188 282.589844 444.300781 C 284.390625 443.402344 285.828125 441.78125 286.367188 439.804688 C 290.148438 424.875 293.5625 409.945312 296.980469 394.835938 C 297.339844 393.574219 297.339844 391.058594 296.800781 390.878906 C 290.148438 387.640625 285.109375 380.625 276.476562 382.421875 C 259.925781 386.019531 243.378906 389.4375 227.007812 393.574219 C 187.976562 403.46875 151.097656 417.679688 122.136719 447.539062 C 114.402344 455.453125 114.761719 467.6875 124.835938 471.824219 C 134.910156 475.960938 146.960938 477.757812 157.933594 480.636719 Z M 684.445312 453.117188 C 683.003906 451.855469 681.566406 450.597656 680.125 449.339844 C 663.21875 438.367188 646.308594 427.574219 629.398438 416.78125 C 591.085938 392.136719 550.074219 373.789062 504.382812 368.210938 C 491.613281 366.59375 478.839844 365.335938 466.070312 363.894531 C 465.890625 364.792969 465.710938 365.695312 465.53125 366.59375 C 531.1875 412.101562 600.261719 448.976562 684.445312 453.117188 Z M 450.058594 255.789062 C 451.859375 255.246094 453.65625 254.527344 455.457031 253.808594 C 469.847656 244.8125 484.238281 236.179688 498.449219 226.828125 C 533.34375 203.800781 565.902344 177.898438 594.863281 147.679688 C 599.71875 142.824219 603.675781 137.246094 606.734375 131.128906 C 610.691406 122.316406 606.734375 117.640625 597.5625 120.695312 C 584.429688 125.015625 570.757812 129.511719 559.066406 136.707031 C 518.234375 161.351562 486.933594 195.886719 461.574219 235.820312 C 457.792969 241.578125 454.378906 248.050781 450.058594 255.789062 Z M 245.175781 203.980469 L 263.523438 230.0625 C 264.242188 227.367188 264.605469 225.386719 265.144531 223.410156 L 266.941406 223.410156 C 266.941406 226.828125 267.300781 230.0625 267.839844 233.480469 C 268.921875 236.898438 270.359375 240.136719 272.339844 243.195312 C 275.757812 249.132812 280.253906 253.628906 287.988281 253.449219 C 289.605469 253.449219 291.226562 256.867188 292.84375 258.664062 C 294.105469 260.105469 295.542969 261.542969 296.800781 262.980469 C 286.550781 219.632812 268.742188 180.417969 238.160156 147.140625 L 238.160156 175.742188 L 235.464844 178.257812 C 235.824219 188.691406 246.4375 194.808594 245.175781 203.980469 Z M 315.507812 553.667969 L 312.273438 553.847656 C 312.09375 555.648438 312.09375 557.445312 312.273438 559.246094 C 312.992188 562.84375 314.070312 566.261719 314.609375 569.859375 C 316.050781 578.851562 316.769531 588.027344 318.746094 596.839844 C 320.726562 605.292969 324.503906 613.390625 326.84375 621.84375 C 334.398438 649.722656 344.109375 676.886719 358.5 702.25 C 361.019531 706.746094 365.875 709.804688 369.652344 713.402344 C 358.5 686.960938 345.550781 661.777344 335.296875 635.695312 C 324.863281 609.25 318.386719 581.730469 315.507812 553.667969 Z M 420.019531 625.082031 C 422.179688 609.972656 405.628906 538.378906 398.433594 530.824219 C 402.929688 563.382812 407.609375 595.222656 420.019531 625.082031 Z M 440.167969 595.941406 C 441.964844 577.234375 419.660156 500.425781 409.226562 487.832031 Z M 500.066406 565.359375 C 500.246094 548.632812 488.554688 510.496094 481.71875 506 C 488.015625 526.328125 493.949219 545.753906 500.066406 565.359375 Z M 170.347656 120.15625 C 158.652344 126.992188 155.054688 139.945312 161.351562 149.476562 C 164.410156 139.765625 167.289062 130.589844 170.347656 120.15625 Z M 438.546875 480.996094 L 436.027344 481.714844 L 452.578125 536.757812 L 454.738281 536.039062 Z M 479.378906 538.558594 C 477.761719 524.527344 475.242188 510.675781 469.667969 497.90625 L 467.328125 498.625 C 471.285156 511.9375 475.421875 525.246094 479.378906 538.558594 Z M 218.375 128.972656 C 214.238281 134.90625 214.238281 145.339844 218.375 151.636719 Z M 419.300781 650.984375 L 421.820312 649.722656 C 418.941406 643.789062 415.882812 637.851562 413.003906 631.917969 L 411.566406 632.636719 C 414.082031 638.75 416.78125 644.867188 419.300781 650.984375 Z M 419.300781 650.984375 " fill-opacity="1" fill-rule="nonzero"/></svg>