<svg xmlns="http://www.w3.org/2000/svg" xmlns:xlink="http://www.w3.org/1999/xlink" width="1080" zoomAndPan="magnify" viewBox="0 0 810 809.999993" height="1080" preserveAspectRatio="xMidYMid meet" version="1.0"><defs><clipPath id="03681807c4"><path d="M 0 24.300781 L 810 24.300781 L 810 785.550781 L 0 785.550781 Z M 0 24.300781 " clip-rule="nonzero"/></clipPath></defs><path fill="#00a79d" d="M 160.628906 774.378906 C 154.859375 767.105469 152.125 751.269531 154.46875 738.695312 C 156.800781 726.1875 157.59375 724.597656 181.761719 684.105469 C 217.488281 624.25 230.210938 592.101562 255.035156 498.960938 C 256.125 494.878906 250.847656 489.777344 245.535156 489.777344 C 238.628906 489.777344 233.34375 494.886719 230.039062 504.765625 C 226.304688 515.910156 223.859375 518.1875 214.261719 519.464844 C 205.101562 520.683594 194.191406 516.34375 189.835938 509.75 C 186.757812 505.089844 186.769531 503.890625 190.015625 488.015625 C 193.261719 472.15625 193.273438 470.746094 190.234375 462.847656 C 181.191406 439.367188 158.878906 436.574219 146.074219 457.320312 C 137.464844 471.273438 118.703125 495.230469 107.84375 506.148438 C 88.609375 525.476562 76.039062 526.09375 63.078125 508.34375 C 58.789062 502.472656 57.394531 498.484375 57.394531 492.113281 C 57.394531 484.773438 58.328125 482.8125 64.542969 477.148438 C 73.703125 468.800781 86.617188 461.679688 106.980469 453.75 C 134.699219 442.957031 146.90625 433.371094 153.820312 416.964844 C 158.957031 404.765625 156.566406 389.78125 148.828125 385.675781 C 137.453125 379.636719 124.066406 389.765625 101.269531 421.65625 C 80.125 451.242188 68.679688 458.5 45.058594 457.320312 C 28.730469 456.5 20.984375 452.164062 12.0625 438.839844 C 3.925781 426.6875 1.574219 417.765625 2.390625 402.125 C 2.992188 390.605469 4.015625 387.257812 9.1875 379.832031 C 16.421875 369.441406 29.558594 360.695312 44.160156 356.53125 C 50.117188 354.835938 68.5 352.753906 86.113281 351.785156 C 125.085938 349.636719 137.078125 347.289062 179.90625 333.421875 C 201.558594 326.410156 208.054688 321.59375 208.054688 312.554688 C 208.054688 307.074219 200.179688 299.347656 193.125 297.902344 C 187.941406 296.839844 148.699219 293.042969 142.882812 293.039062 C 137.585938 293.035156 128.1875 283.773438 126.1875 276.578125 C 123.300781 266.21875 127.535156 257.859375 136.929688 255.351562 C 146.933594 252.679688 154.335938 255 172.792969 266.585938 C 181.175781 271.847656 193.871094 277.921875 201.011719 280.082031 C 213.476562 283.855469 214.328125 283.882812 222.472656 280.800781 C 238.851562 274.59375 240.824219 263.648438 229.511719 241.742188 C 220.179688 223.667969 203.007812 205.46875 188.378906 198.144531 C 166.296875 187.085938 151.910156 169.527344 142.910156 142.640625 C 139.328125 131.9375 138.492188 125.410156 138.535156 108.589844 C 138.582031 90.144531 139.164062 86.550781 143.636719 76.953125 C 154.789062 53.015625 176.90625 52.351562 191.257812 75.519531 C 195.855469 82.945312 197.246094 89.273438 202.480469 126.5625 C 209.332031 175.398438 211.953125 183.441406 227.128906 202.179688 C 242.839844 221.582031 256.664062 227.796875 265.222656 219.308594 C 270.832031 213.742188 271.628906 207.644531 268.222656 196.328125 C 266.542969 190.730469 264.671875 180.195312 264.070312 172.910156 C 263.121094 161.457031 263.773438 157.21875 268.890625 141.5 C 278.480469 112.046875 276.601562 99.3125 258.375 70.308594 C 247.773438 53.4375 246.746094 46.085938 253.921875 38.46875 C 262.855469 28.984375 275.679688 25.238281 280.300781 30.761719 C 281.769531 32.511719 282.304688 44.960938 281.988281 70.011719 C 281.480469 110.546875 280.792969 107.480469 296.757812 136.023438 C 302.246094 145.835938 307.148438 166.734375 307.195312 180.53125 C 307.214844 185.972656 308.480469 191.816406 310.15625 194.191406 C 315.460938 201.703125 333.566406 203.839844 341.207031 197.851562 C 342.585938 196.769531 347.476562 190.117188 352.074219 183.070312 C 356.855469 175.738281 363.730469 168.089844 368.136719 165.199219 C 374.738281 160.863281 377.324219 160.265625 386.230469 160.996094 C 394.890625 161.710938 397.917969 163.011719 404.378906 168.800781 C 410.472656 174.261719 413.699219 175.75 419.457031 175.75 C 434.707031 175.75 452.171875 161.378906 452.171875 148.828125 C 452.171875 145.777344 449.585938 137.4375 446.429688 130.296875 C 437.945312 111.128906 437.46875 103.8125 443.515625 85.863281 C 453.945312 54.910156 463.289062 46.308594 486.5 46.296875 C 505.800781 46.289062 519.054688 55.425781 522.417969 71.070312 C 524.667969 81.535156 523.03125 89.304688 513.722656 112.375 C 493.480469 162.542969 492.230469 178.09375 507.234375 192.976562 C 511.089844 196.804688 517.847656 201.003906 522.242188 202.3125 C 535.160156 206.148438 544.363281 201.519531 561.917969 182.339844 C 579.460938 163.171875 588.492188 158.570312 599.566406 163.160156 C 605.410156 165.585938 606.851562 167.460938 609.394531 175.949219 C 611.03125 181.417969 612.371094 187.984375 612.371094 190.535156 C 612.371094 210.652344 593.730469 230.59375 569.460938 236.441406 C 564.214844 237.707031 555.816406 240.773438 550.796875 243.253906 C 522.003906 257.496094 534.210938 287.191406 568.914062 287.324219 C 584.292969 287.382812 597.605469 281.769531 614.277344 268.199219 C 644.628906 243.496094 682.019531 217.066406 696.925781 209.773438 C 720.867188 198.066406 753.542969 193.578125 776.53125 198.84375 C 800.25 204.273438 809.429688 227.992188 797.210938 252.261719 C 790.816406 264.96875 788.941406 265.53125 766.226562 261.566406 C 729.792969 255.210938 698.003906 258.058594 666.285156 270.527344 C 639.65625 280.992188 610.964844 296.417969 606.042969 302.917969 C 595.898438 316.3125 598.351562 330.441406 612.4375 339.789062 C 629.441406 351.070312 633.65625 355.917969 634.738281 365.433594 C 636.171875 378.078125 632.871094 384.195312 619.65625 393.390625 C 602.222656 405.519531 597.195312 416.640625 603.609375 428.867188 C 607.589844 436.460938 614.019531 441.722656 625.726562 446.972656 C 641.046875 453.84375 651.601562 454.824219 668.996094 450.984375 C 689.816406 446.390625 704.269531 447.820312 718.53125 455.894531 C 741.855469 469.09375 754.210938 485.105469 762.199219 512.488281 C 764.96875 521.984375 765.769531 530.808594 765.71875 551.269531 C 765.644531 581.171875 763.28125 590.445312 753.066406 600.902344 C 729.921875 624.585938 694.460938 592.0625 682.058594 535.773438 C 676.707031 511.488281 670.652344 498.3125 660.234375 488.304688 C 646.601562 475.199219 612.820312 461.730469 599.710938 464.171875 C 591.339844 465.730469 578.816406 478.207031 576.183594 487.613281 C 571.746094 503.460938 574.75 513.289062 590.46875 534.339844 C 620.375 574.390625 629.007812 590.824219 630.953125 611.421875 C 632.199219 624.636719 629.894531 629.730469 620.285156 635.003906 C 610.539062 640.355469 602.46875 641.683594 593.8125 639.371094 C 583.574219 636.636719 577.765625 629.976562 576.886719 619.960938 C 572.28125 567.5 569.015625 554.121094 557.582031 540.867188 C 545.648438 527.039062 526.15625 521.890625 510.425781 528.410156 C 498.226562 533.464844 496.082031 540.566406 498.894531 566.539062 C 499.910156 575.890625 499.652344 581.207031 498.039062 584.199219 C 495.609375 588.695312 485.460938 593.832031 479 593.832031 C 468.628906 593.832031 453.117188 570.15625 444.617188 541.355469 C 439.4375 523.789062 434.410156 517.785156 424.886719 517.785156 C 414.078125 517.785156 408.886719 522.230469 405.265625 534.578125 C 400.296875 551.539062 402.28125 567.28125 413.578125 600.453125 C 424.589844 632.800781 425.984375 636.132812 443.640625 672.34375 C 453.570312 692.703125 456.761719 701.296875 457.4375 709.503906 C 458.597656 723.539062 455.28125 733.152344 447.683594 737.746094 C 436.183594 744.703125 429.199219 741.632812 420.078125 725.597656 C 411.214844 710.015625 408.554688 697.84375 406.515625 663.476562 C 403.613281 614.640625 393.660156 571.859375 376.765625 535.585938 C 368.527344 517.894531 365.445312 514.378906 358.175781 514.378906 C 343.011719 514.378906 331.414062 529.867188 331.261719 550.324219 C 331.179688 561.398438 331.964844 563.992188 339.179688 576.429688 C 343.585938 584.023438 348.5 594.054688 350.097656 598.722656 C 353.03125 607.296875 353.710938 628.636719 351.324219 637.34375 C 349.328125 644.640625 339.175781 648.6875 322.871094 648.691406 C 305.488281 648.695312 299.191406 645.707031 295.070312 635.488281 C 290.097656 623.15625 291.1875 611.378906 299.601562 586.496094 C 308.535156 560.085938 309.789062 541.910156 303.613281 528.417969 C 299.816406 520.125 291.542969 512.488281 286.351562 512.488281 C 275.164062 512.488281 257.976562 549.886719 245.261719 601.890625 C 238.480469 629.617188 236.171875 642.859375 228.191406 699.773438 C 222.871094 737.714844 219.839844 748.402344 210.9375 760.570312 C 198.4375 777.652344 169.519531 785.59375 160.628906 774.382812 Z M 160.628906 774.378906 " fill-opacity="1" fill-rule="evenodd"/><g clip-path="url(#03681807c4)"><path stroke-linecap="butt" transform="matrix(1.836003, 0, 0, 1.836003, -169.026449, -39.042092)" fill="none" stroke-linejoin="miter" d="M 179.55053 443.038977 C 176.408089 439.077417 174.918781 430.452194 176.195331 423.603503 C 177.465498 416.790981 177.897397 415.925054 191.060756 393.870525 C 210.519634 361.269565 217.449173 343.759553 230.969965 293.029455 C 231.563561 290.80613 228.689196 288.027506 225.795682 288.027506 C 222.034115 288.027506 219.155495 290.810385 217.355559 296.191044 C 215.321589 302.261039 213.989722 303.50142 208.76225 304.19714 C 203.773067 304.860946 197.830726 302.497201 195.458471 298.90584 C 193.781935 296.367633 193.788318 295.714465 195.55634 287.067966 C 197.324361 278.429978 197.330744 277.66192 195.675484 273.359947 C 190.750129 260.571043 178.597372 259.049821 171.623154 270.349416 C 166.93396 277.949144 156.715177 290.997613 150.800495 296.944208 C 140.324275 307.471491 133.477712 307.807649 126.41839 298.13991 C 124.082303 294.942152 123.322756 292.76989 123.322756 289.299801 C 123.322756 285.302072 123.831248 284.234025 127.216234 281.149029 C 132.205417 276.602384 139.239207 272.723799 150.3303 268.404805 C 165.427631 262.526292 172.076329 257.305202 175.842152 248.369352 C 178.639924 241.724909 177.337843 233.563499 173.1231 231.327409 C 166.927578 228.038165 159.636349 233.554989 147.219773 250.92458 C 135.703164 267.038896 129.469344 270.991946 116.603848 270.349416 C 107.710549 269.902624 103.491551 267.541006 98.632151 260.283819 C 94.200395 253.664907 92.919589 248.805507 93.364254 240.286663 C 93.691902 234.012419 94.249329 232.18908 97.066249 228.144544 C 101.006534 222.485173 108.161597 217.721513 116.114503 215.453509 C 119.359068 214.530138 129.371476 213.396136 138.964749 212.868496 C 160.191649 211.698325 166.72333 210.419647 190.050154 202.866726 C 201.843348 199.047714 205.38152 196.424404 205.38152 191.501176 C 205.38152 188.516176 201.092312 184.307816 197.249896 183.52061 C 194.426593 182.941908 173.05289 180.873897 169.884918 180.871769 C 166.999915 180.869642 161.88095 175.825141 160.791627 171.906133 C 159.219343 166.263782 161.525643 161.710753 166.642481 160.344845 C 172.091222 158.889578 176.122993 160.153362 186.175824 166.463774 C 190.741618 169.329629 197.656264 172.638021 201.545487 173.814575 C 208.334605 175.869821 208.798419 175.884714 213.23443 174.20605 C 222.155387 170.82532 223.229817 164.863832 217.068335 152.932344 C 211.985539 143.088016 202.632682 133.175605 194.664882 129.186386 C 182.637653 123.163197 174.801764 113.59971 169.899812 98.955554 C 167.948818 93.125975 167.493515 89.570783 167.516918 80.409409 C 167.542449 70.36296 167.859459 68.405584 170.295542 63.178111 C 176.369793 50.14028 188.41617 49.778591 196.232911 62.397288 C 198.737077 66.441824 199.494496 69.888509 202.345458 90.19842 C 206.077239 116.797468 207.504848 121.178162 215.770509 131.38418 C 224.32765 141.951886 231.857167 145.336871 236.518703 140.713633 C 239.573912 137.681826 240.007939 134.360669 238.152687 128.19706 C 237.237826 125.148233 236.218713 119.41014 235.891065 115.442197 C 235.374063 109.204123 235.729369 106.895695 238.516503 98.334299 C 243.739721 82.29232 242.716353 75.356399 232.789049 59.559092 C 227.014788 50.370059 226.455233 46.365947 230.363604 42.21716 C 235.229387 37.051387 242.214243 35.011035 244.731174 38.019438 C 245.531146 38.972595 245.822625 45.753203 245.65029 59.397396 C 245.373705 81.475328 244.99925 79.805175 253.694683 95.351427 C 256.683938 100.695917 259.354055 112.078488 259.379586 119.593112 C 259.390224 122.556836 260.079561 125.739701 260.992294 127.033272 C 263.881552 131.124614 273.742901 132.288402 277.904455 129.026817 C 278.655492 128.437477 281.319226 124.814202 283.823392 120.976042 C 286.427554 116.982568 290.1721 112.816759 292.572014 111.242348 C 296.16763 108.88073 297.576091 108.55521 302.426981 108.953068 C 307.143833 109.342416 308.79271 110.050901 312.311733 113.203979 C 315.630763 116.178341 317.388147 116.98895 320.524205 116.98895 C 328.830291 116.98895 338.342716 109.161571 338.342716 102.325646 C 338.342716 100.664003 336.934256 96.121612 335.215168 92.23239 C 330.594057 81.792338 330.334492 77.807375 333.627991 68.031129 C 339.308639 51.172158 344.397818 46.48722 357.039919 46.480837 C 367.552308 46.476582 374.771199 51.452999 376.603048 59.973971 C 377.828536 65.673767 376.937079 69.90553 371.867047 82.471037 C 360.84191 109.795591 360.161084 118.2655 368.333131 126.371593 C 370.433056 128.456625 374.113775 130.743777 376.507307 131.456517 C 383.543225 133.545804 388.555811 131.024618 398.117171 120.578184 C 407.672148 110.138132 412.591121 107.631839 418.62282 110.131749 C 421.805685 111.452978 422.590763 112.474218 423.97582 117.097457 C 424.867277 120.076074 425.597038 123.652541 425.597038 125.041853 C 425.597038 135.998908 415.44421 146.860221 402.225535 150.045213 C 399.36819 150.73455 394.793886 152.404703 392.059941 153.755719 C 376.377524 161.512888 383.026222 177.686777 401.927673 177.759115 C 410.303969 177.791028 417.554773 174.733691 426.635299 167.342466 C 443.166622 153.887629 463.53185 139.4924 471.650708 135.520202 C 484.690667 129.143834 502.487902 126.699241 515.00873 129.567223 C 527.927416 132.524564 532.927237 145.443251 526.272156 158.661926 C 522.789302 165.582955 521.768062 165.889327 509.396165 163.72983 C 489.552195 160.268252 472.237921 161.81926 454.961944 168.610506 C 440.458208 174.310302 424.831108 182.712129 422.150353 186.252428 C 416.625019 193.547911 417.961141 201.24338 425.633207 206.334687 C 434.894578 212.479148 437.19024 215.119479 437.779581 220.302272 C 438.560404 227.189259 436.762596 230.521055 429.564981 235.529386 C 420.069577 242.135533 417.331377 248.192763 420.824869 254.852099 C 422.992876 258.988121 426.494878 261.853976 432.871246 264.713448 C 441.215628 268.455867 446.964358 268.98989 456.438487 266.898476 C 467.778506 264.396438 475.650565 265.175133 483.418372 269.572848 C 496.122172 276.761952 502.851719 285.482917 507.202627 300.397276 C 508.711083 305.569431 509.147238 310.375642 509.119579 321.519924 C 509.079155 337.806575 507.791967 342.857458 502.228337 348.552999 C 489.622405 361.452537 470.308203 343.738277 463.553126 313.079801 C 460.638337 299.852615 457.340582 292.676276 451.666317 287.225407 C 444.241051 280.087365 425.84171 272.751458 418.70154 274.081197 C 414.142129 274.930103 407.321097 281.725604 405.887106 286.848825 C 403.470171 295.480431 405.106283 300.833431 413.667678 312.298978 C 429.956457 334.11309 434.658416 343.063833 435.717952 354.282581 C 436.396651 361.480195 435.141377 364.254564 429.907522 367.126802 C 424.599202 370.041591 420.203614 370.764969 415.488889 369.50544 C 409.912493 368.016131 406.748777 364.388602 406.270071 358.933478 C 403.76165 330.360033 401.98299 323.07306 395.755554 315.85417 C 389.255786 308.322524 378.639145 305.518369 370.071367 309.069306 C 363.426924 311.822399 362.258881 315.690346 363.790741 329.836648 C 364.343912 334.930082 364.203492 337.825723 363.3248 339.455452 C 362.001443 341.904301 356.473981 344.702073 352.954959 344.702073 C 347.306225 344.702073 338.857591 331.80679 334.22797 316.120117 C 331.406794 306.552375 328.668594 303.282279 323.481546 303.282279 C 317.594523 303.282279 314.766964 305.703469 312.794695 312.42876 C 310.088408 321.666727 311.169221 330.240888 317.322192 348.308327 C 323.31985 365.926845 324.079397 367.741673 333.696074 387.464371 C 339.104391 398.553336 340.842626 403.234019 341.210698 407.704072 C 341.842591 415.348479 340.036272 420.584462 335.898123 423.0865 C 329.634517 426.875726 325.830398 425.203445 320.862491 416.469715 C 316.035004 407.982785 314.58612 401.353236 313.475521 382.634757 C 311.894727 356.035709 306.473644 332.734416 297.271846 312.977677 C 292.784773 303.341852 291.10611 301.427027 287.146677 301.427027 C 278.887398 301.427027 272.570603 309.862895 272.487627 321.005049 C 272.442948 327.036748 272.870592 328.449463 276.800239 335.223689 C 279.200153 339.359711 281.876653 344.823345 282.746834 347.365807 C 284.34465 352.035853 284.714849 363.658841 283.414896 368.401224 C 282.3277 372.37555 276.798111 374.579726 267.917578 374.581854 C 258.449832 374.583981 255.020168 372.95638 252.775567 367.390622 C 250.067154 360.673841 250.660749 354.259177 255.243564 340.706471 C 260.109347 326.32188 260.792301 316.422234 257.428592 309.073561 C 255.360581 304.556702 250.854359 300.397276 248.026801 300.397276 C 241.933402 300.397276 232.572035 320.76676 225.646751 349.091277 C 221.953267 364.192864 220.695865 371.405372 216.349212 402.404262 C 213.451443 423.069479 211.800439 428.890547 206.951676 435.51797 C 200.143409 444.821892 184.39291 449.147269 179.55053 443.041104 Z M 179.55053 443.038977 " stroke="#00bfbf" stroke-width="1" stroke-opacity="1" stroke-miterlimit="4"/></g></svg>