<svg xmlns="http://www.w3.org/2000/svg" xmlns:xlink="http://www.w3.org/1999/xlink" width="1080" zoomAndPan="magnify" viewBox="0 0 810 809.999993" height="1080" preserveAspectRatio="xMidYMid meet" version="1.0"><defs><clipPath id="48150d89c1"><path d="M 79.527344 48 L 721 48 L 721 778 L 79.527344 778 Z M 79.527344 48 " clip-rule="nonzero"/></clipPath></defs><g clip-path="url(#48150d89c1)"><path fill="#ffbd59" d="M 171.683594 384.804688 C 171.683594 402.457031 176.089844 403.558594 193.554688 403.558594 C 215.277344 403.558594 212.054688 380.125 212.226562 379.191406 C 212.511719 377.566406 213.125 380.632812 213.871094 373.886719 C 207.664062 372.222656 195.066406 358.488281 180.601562 371.851562 C 178.566406 373.699219 171.683594 382.160156 171.683594 384.804688 M 79.527344 395.726562 C 79.527344 431.925781 138.890625 433.554688 138.890625 400.40625 C 138.890625 395.199219 131.988281 373.273438 122.410156 365.339844 L 111.457031 360.574219 C 96.347656 358.082031 79.527344 377.074219 79.527344 395.726562 Z M 438.808594 212.972656 C 428.820312 212.972656 422.953125 204.292969 416.902344 200.511719 C 406.914062 194.269531 399.742188 191.101562 387.261719 191.101562 C 367.882812 191.101562 363.523438 195.628906 356.671875 212.058594 C 352.0625 223.128906 351.113281 242.15625 343.820312 252.3125 C 327.289062 275.355469 300.734375 263.535156 280.964844 269.113281 C 269.0625 272.472656 265.417969 275.050781 265.417969 286.375 C 265.417969 295.089844 276.386719 308.976562 281.914062 313.625 C 289.730469 320.1875 300.363281 326.339844 306.027344 334.800781 C 291.765625 356.097656 243.390625 357.234375 264.855469 394.707031 C 267.890625 399.996094 270.996094 402.234375 275.878906 405.558594 C 295.242188 418.734375 313.554688 418.9375 287.1875 462.785156 L 281.542969 472.757812 C 281.304688 473.164062 280.558594 474.265625 280.320312 474.65625 C 274.25 484.828125 270.011719 496.628906 272.960938 508.433594 C 275.757812 519.640625 283.863281 528.472656 296.648438 528.472656 C 322.710938 528.472656 349.007812 500.53125 376.34375 501.105469 C 379.714844 501.175781 384.074219 503.089844 388.804688 503.480469 C 388.804688 522.792969 385.835938 525.726562 378.699219 538.664062 C 377.96875 539.988281 377.785156 540.394531 377.019531 541.683594 L 366.03125 563.488281 C 361.117188 575.832031 355.691406 591.3125 360.453125 605.234375 C 370.59375 634.789062 388.398438 636.449219 399.539062 609.507812 C 400.503906 607.167969 400.453125 608.183594 401.878906 604.03125 C 403.117188 600.402344 403.863281 596.671875 404.761719 592.839844 C 408.964844 574.917969 408.609375 556.910156 412.1875 542.480469 C 414.289062 534 416.425781 528.929688 423.394531 525.523438 C 453.59375 510.804688 445.03125 556.605469 445.03125 584.699219 C 445.03125 618.035156 446.761719 689.402344 451.1875 720.6875 C 452.882812 732.707031 454.78125 744.375 460.375 755.226562 C 488.589844 809.890625 519.773438 751.277344 501.476562 698.507812 C 487.675781 658.710938 471.617188 615.644531 481.230469 572.472656 C 492 524.132812 533.339844 589.378906 552.820312 589.378906 C 570.605469 589.378906 570.84375 561.671875 563.046875 546.34375 C 562.128906 544.546875 561.910156 543.785156 561.0625 542.089844 L 548.734375 521.554688 C 547.003906 518.46875 543.527344 512.941406 547.664062 510.703125 C 564.078125 501.800781 611.269531 552.296875 627.886719 519.164062 C 644.164062 486.726562 622.882812 472.347656 603.128906 450.050781 C 599.464844 445.914062 599.652344 448.238281 598.128906 442.558594 C 606.351562 431.332031 638.464844 429.316406 656.609375 426.058594 C 674.71875 422.804688 681.144531 414.375 686.890625 400.097656 C 690.433594 391.300781 693.234375 378.34375 683.6875 372.628906 C 659.390625 358.097656 629.664062 380.074219 602.824219 380.074219 C 593.820312 380.074219 590.460938 373.308594 588.765625 366.019531 C 604.839844 342.007812 639.261719 329.359375 665.984375 318.269531 C 673.429688 315.183594 679.820312 311.351562 686.0625 307.113281 C 686.332031 306.925781 686.722656 306.671875 686.976562 306.46875 L 694.589844 300.023438 C 697.335938 297.414062 699.898438 295.023438 702.339844 292.140625 C 717.054688 274.8125 730.46875 232.148438 710.019531 215.074219 C 674.15625 185.132812 642.636719 217.332031 625.441406 249.597656 L 616.59375 265.738281 C 612.371094 272.710938 608.570312 278.117188 604.300781 284.695312 C 575.710938 328.664062 559.078125 304.941406 559.078125 286.339844 C 559.078125 274.117188 577.730469 253.820312 586.34375 243.324219 C 586.546875 243.070312 586.851562 242.730469 587.054688 242.476562 C 595.566406 231.914062 599.6875 220.195312 599.6875 206.683594 C 599.6875 201.207031 594.277344 199.460938 590.15625 197.476562 C 573.203125 189.300781 556.484375 201.324219 545.445312 214.921875 L 536.269531 229.164062 C 531.898438 234.457031 526.65625 242.390625 520.027344 244.171875 C 507.785156 235.980469 509.582031 223.484375 506.632812 206.019531 C 505.003906 196.339844 505.5625 186.960938 498.953125 180.890625 C 494.914062 177.179688 490.421875 175.449219 484.097656 175.449219 C 464.15625 175.449219 459.511719 189.84375 450.625 202.902344 C 448.457031 206.121094 442.910156 212.972656 438.808594 212.972656 Z M 354.453125 159.867188 C 361.777344 159.867188 360.691406 158.746094 360.691406 147.371094 C 360.691406 143.757812 351.585938 134.789062 346.617188 122.394531 C 343.3125 114.171875 341.820312 99.671875 339.039062 90.921875 C 315.011719 15.417969 252.003906 56.351562 278.488281 95.230469 C 282.929688 101.742188 285.863281 105.609375 291.933594 109.898438 C 314.640625 125.972656 321.320312 124.480469 336.699219 149.472656 C 339.785156 154.457031 347.414062 159.867188 354.453125 159.867188 Z M 354.453125 159.867188 " fill-opacity="1" fill-rule="evenodd"/></g><path fill="#ced8eb" d="M 352.128906 54.6875 C 362.386719 52.265625 367.796875 48.042969 372.882812 40.5625 C 376.003906 35.984375 382.597656 22.117188 382.394531 15.011719 C 365.746094 -0.046875 351.65625 18.640625 347.855469 21.488281 C 345.429688 23.320312 342.972656 23.132812 341.515625 27.339844 C 339.054688 34.441406 345.226562 50.058594 352.128906 54.6875 " fill-opacity="1" fill-rule="evenodd"/></svg>