<svg xmlns="http://www.w3.org/2000/svg" xmlns:xlink="http://www.w3.org/1999/xlink" width="1080" zoomAndPan="magnify" viewBox="0 0 810 809.999993" height="1080" preserveAspectRatio="xMidYMid meet" version="1.0"><defs><clipPath id="a98be9f6b8"><path d="M 83.210938 343 L 652 343 L 652 810 L 83.210938 810 Z M 83.210938 343 " clip-rule="nonzero"/></clipPath><clipPath id="98244fd29b"><path d="M 83.210938 343 L 638 343 L 638 790 L 83.210938 790 Z M 83.210938 343 " clip-rule="nonzero"/></clipPath><clipPath id="b6f8eda139"><path d="M 577 312 L 726.710938 312 L 726.710938 446 L 577 446 Z M 577 312 " clip-rule="nonzero"/></clipPath><clipPath id="21fae457a9"><path d="M 675 312 L 726.710938 312 L 726.710938 358 L 675 358 Z M 675 312 " clip-rule="nonzero"/></clipPath><clipPath id="0b21036615"><path d="M 625 312 L 726.710938 312 L 726.710938 446 L 625 446 Z M 625 312 " clip-rule="nonzero"/></clipPath><clipPath id="482cafc1a3"><path d="M 690 312 L 726.710938 312 L 726.710938 358 L 690 358 Z M 690 312 " clip-rule="nonzero"/></clipPath></defs><path fill="#32941d" d="M 265.609375 773.894531 L 140.484375 719.4375 L 404.960938 111.582031 L 530.089844 166.039062 L 265.609375 773.894531 " fill-opacity="1" fill-rule="nonzero"/><path fill="#3bb028" d="M 240.96875 763.164062 L 140.484375 719.4375 L 404.960938 111.582031 L 505.441406 155.3125 L 240.96875 763.164062 " fill-opacity="1" fill-rule="nonzero"/><path fill="#ead4a6" d="M 527.546875 0.863281 L 528.816406 83.445312 L 530.089844 166.039062 L 467.519531 138.8125 L 404.960938 111.582031 L 527.546875 0.863281 " fill-opacity="1" fill-rule="nonzero"/><path fill="#32941d" d="M 527.546875 0.863281 L 485.671875 38.6875 C 489.972656 45.308594 496.183594 50.796875 503.972656 54.1875 C 511.960938 57.664062 520.445312 58.429688 528.414062 56.902344 L 527.546875 0.863281 " fill-opacity="1" fill-rule="nonzero"/><path fill="#ffffff" d="M 530.089844 166.039062 L 505.441406 155.3125 L 486.273438 146.96875 L 530.089844 166.039062 " fill-opacity="1" fill-rule="nonzero"/><path fill="#54ba44" d="M 505.441406 155.3125 L 486.273438 146.96875 L 505.441406 155.3125 " fill-opacity="1" fill-rule="nonzero"/><path fill="#eddab2" d="M 530.089844 166.039062 L 486.273438 146.96875 C 491.863281 138.519531 496.863281 129.40625 501.105469 119.652344 C 510.105469 98.96875 514.808594 77.75 515.585938 57.355469 C 517.25 57.554688 518.90625 57.648438 520.5625 57.648438 C 523.210938 57.648438 525.835938 57.398438 528.414062 56.902344 L 528.816406 83.445312 L 530.089844 166.039062 " fill-opacity="1" fill-rule="nonzero"/><path fill="#4da23a" d="M 520.5625 57.648438 C 518.90625 57.648438 517.25 57.554688 515.585938 57.355469 C 516.148438 42.785156 514.714844 28.640625 511.425781 15.417969 L 527.546875 0.863281 L 528.414062 56.902344 C 525.835938 57.398438 523.210938 57.648438 520.5625 57.648438 " fill-opacity="1" fill-rule="nonzero"/><g clip-path="url(#a98be9f6b8)"><path fill="#009eaa" d="M 158.078125 809.136719 L 83.246094 707.449219 L 577.160156 343.941406 L 651.992188 445.640625 L 158.078125 809.136719 " fill-opacity="1" fill-rule="nonzero"/></g><g clip-path="url(#98244fd29b)"><path fill="#00c2d0" d="M 143.339844 789.109375 L 83.246094 707.449219 L 577.160156 343.941406 L 637.25 425.601562 L 143.339844 789.109375 " fill-opacity="1" fill-rule="nonzero"/></g><g clip-path="url(#b6f8eda139)"><path fill="#ead4a6" d="M 726.671875 312.289062 L 651.992188 445.640625 L 614.574219 394.789062 L 577.160156 343.941406 L 651.914062 328.121094 L 726.671875 312.289062 " fill-opacity="1" fill-rule="nonzero"/></g><g clip-path="url(#21fae457a9)"><path fill="#009eaa" d="M 726.671875 312.289062 L 675.59375 323.101562 C 675.960938 330.40625 678.382812 337.679688 683.039062 344.007812 C 687.820312 350.507812 694.253906 355.058594 701.324219 357.539062 L 726.671875 312.289062 " fill-opacity="1" fill-rule="nonzero"/></g><path fill="#ffffff" d="M 651.992188 445.640625 L 689.332031 378.964844 L 701.324219 357.539062 L 689.332031 378.964844 L 651.992188 445.640625 M 637.59375 426.074219 L 629.707031 415.363281 L 625.785156 410.023438 L 637.59375 426.074219 " fill-opacity="1" fill-rule="nonzero"/><g clip-path="url(#0b21036615)"><path fill="#eddab2" d="M 651.992188 445.640625 L 637.59375 426.074219 L 625.785156 410.023438 C 634.183594 405.859375 642.417969 400.894531 650.34375 395.058594 C 667.144531 382.691406 680.761719 367.894531 690.863281 351.941406 C 694.074219 354.363281 697.613281 356.234375 701.324219 357.539062 L 689.332031 378.964844 L 651.992188 445.640625 M 707.007812 316.453125 L 726.671875 312.289062 L 707.007812 316.453125 " fill-opacity="1" fill-rule="nonzero"/></g><g clip-path="url(#482cafc1a3)"><path fill="#21abb5" d="M 701.324219 357.539062 C 697.613281 356.234375 694.074219 354.363281 690.863281 351.941406 C 698.074219 340.539062 703.496094 328.558594 707.007812 316.453125 L 726.671875 312.289062 L 701.324219 357.539062 " fill-opacity="1" fill-rule="nonzero"/></g></svg>