<svg xmlns="http://www.w3.org/2000/svg" xmlns:xlink="http://www.w3.org/1999/xlink" width="1080" zoomAndPan="magnify" viewBox="0 0 810 809.999993" height="1080" preserveAspectRatio="xMidYMid meet" version="1.0"><defs><clipPath id="d79e5dd608"><path d="M 705 4.632812 L 810 4.632812 L 810 111 L 705 111 Z M 705 4.632812 " clip-rule="nonzero"/></clipPath></defs><path fill="#ff66c4" d="M 523.640625 99.207031 C 524.332031 69.421875 541.59375 39.15625 569.386719 28.429688 C 597.183594 17.703125 633.625 31.78125 642.488281 60.226562 C 658.125 110.421875 589.804688 152.632812 592.449219 205.144531 C 633.054688 223.828125 682.644531 170.601562 721.617188 192.480469 C 744.554688 205.359375 745.863281 243.835938 723.855469 258.242188 C 710.625 266.902344 693.703125 266.621094 678.328125 270.308594 C 662.953125 273.992188 646.507812 285.644531 648.042969 301.378906 C 649.8125 319.558594 672.046875 326.175781 688.480469 334.140625 C 719.269531 349.058594 739.296875 383.726562 736.84375 417.847656 C 735.410156 437.808594 724.488281 459.164062 705.132812 464.25 C 676.832031 471.679688 646.519531 441.589844 619.976562 453.90625 C 602.582031 461.976562 597.222656 484.851562 600.777344 503.695312 C 604.328125 522.535156 614.324219 539.554688 619.308594 558.066406 C 627.816406 589.644531 620.535156 625.070312 600.265625 650.734375 C 579.996094 676.398438 547.226562 691.6875 514.535156 690.734375 C 504.949219 690.453125 495.1875 688.78125 486.851562 684.039062 C 439.304688 657 474.484375 563.988281 425.335938 539.984375 C 408.542969 531.785156 388.355469 536.339844 371.113281 543.546875 C 341.636719 555.871094 315.664062 575.246094 287.046875 589.457031 C 258.433594 603.667969 224.824219 612.601562 194.605469 602.230469 C 164.386719 591.859375 141.699219 556.3125 154.375 526.984375 C 171.203125 488.039062 230.382812 487.875 255.160156 453.433594 C 258.113281 449.324219 260.527344 444.710938 261.339844 439.714844 C 263.6875 425.246094 251.929688 411.796875 238.554688 405.804688 C 225.175781 399.808594 210.140625 398.996094 195.917969 395.457031 C 159.050781 386.28125 126.441406 354.144531 125.421875 316.164062 C 124.402344 278.183594 163.285156 241.839844 199.753906 252.496094 C 226.070312 260.183594 251.269531 288.144531 275.429688 275.179688 C 291.972656 266.304688 294.109375 242.109375 285.535156 225.40625 C 276.964844 208.707031 261.0625 197.292969 246.871094 185 C 226.640625 167.476562 208.578125 146.382812 199.765625 121.109375 C 190.957031 95.832031 192.675781 65.855469 208.9375 44.597656 C 225.203125 23.339844 257.398438 14.132812 280.386719 27.84375 C 314.6875 48.292969 310.09375 97.972656 319.917969 136.679688 C 323.445312 150.578125 329.898438 164.53125 341.679688 172.707031 C 353.460938 180.878906 371.488281 181.164062 380.867188 170.320312 C 402.699219 145.074219 359.253906 98.761719 383.132812 75.445312 C 398.429688 60.511719 426.035156 75.308594 432.996094 95.519531 C 439.957031 115.730469 434.585938 137.828125 434.441406 159.203125 C 434.296875 180.582031 449.609375 215.175781 463.789062 210.800781 C 476.257812 206.957031 472.699219 160.394531 485.414062 163.308594 C 493.765625 165.21875 500.851562 189.640625 509.242188 187.921875 C 531.253906 183.421875 523.226562 117.070312 523.640625 99.207031 Z M 523.640625 99.207031 " fill-opacity="1" fill-rule="nonzero"/><g clip-path="url(#d79e5dd608)"><path fill="#ff66c4" d="M 724.578125 15.417969 C 719.503906 13.839844 713.964844 17.320312 711.402344 21.972656 C 708.84375 26.628906 708.539062 32.148438 708.292969 37.457031 C 707.539062 53.78125 706.78125 70.105469 706.027344 86.429688 C 705.746094 92.496094 705.609375 99.082031 709.152344 104.015625 C 714.183594 111.015625 724.746094 111.628906 732.707031 108.320312 C 740.667969 105.011719 746.972656 98.777344 754 93.78125 C 765.074219 85.90625 778.058594 81.058594 789.207031 73.28125 C 800.351562 65.503906 810 53.332031 809.105469 39.769531 C 808.265625 26.984375 798.039062 16.351562 786.296875 11.21875 C 774.554688 6.082031 761.421875 5.394531 748.621094 4.78125 C 747.097656 4.707031 745.554688 4.640625 744.015625 4.636719 C 740.628906 4.632812 737.265625 4.960938 734.191406 6.300781 C 729.714844 8.253906 726.078125 13.054688 727.136719 17.824219 Z M 724.578125 15.417969 " fill-opacity="1" fill-rule="nonzero"/></g><path fill="#ff66c4" d="M 323.007812 740.734375 C 315.457031 756.835938 316.878906 777.816406 329.445312 790.402344 C 344.382812 805.363281 370.84375 803.835938 387.378906 790.660156 C 403.914062 777.484375 411.523438 755.621094 412.445312 734.5 C 412.960938 722.636719 411.480469 710.265625 405.246094 700.15625 C 386.792969 670.238281 333.796875 717.738281 323.007812 740.734375 Z M 323.007812 740.734375 " fill-opacity="1" fill-rule="nonzero"/><path fill="#ff66c4" d="M 49.308594 335.027344 C 37.265625 328.636719 21.460938 333.933594 12.640625 344.332031 C 3.824219 354.730469 0.828125 368.914062 0.398438 382.539062 C 0 394.988281 2 408.574219 10.957031 417.226562 C 20.699219 426.636719 35.613281 427.511719 49.152344 427.800781 C 62.925781 428.089844 77.230469 428.234375 89.777344 422.550781 C 102.324219 416.863281 112.550781 403.5625 110.058594 390.011719 C 108.980469 384.144531 105.722656 378.941406 102.53125 373.898438 C 89.449219 353.242188 71.972656 330.09375 47.53125 330.679688 Z M 49.308594 335.027344 " fill-opacity="1" fill-rule="nonzero"/></svg>