<svg xmlns="http://www.w3.org/2000/svg" xmlns:xlink="http://www.w3.org/1999/xlink" width="1080" zoomAndPan="magnify" viewBox="0 0 810 809.999993" height="1080" preserveAspectRatio="xMidYMid meet" version="1.0"><path fill="#fcc751" d="M 417.101562 793.898438 C 392.976562 793.148438 368.855469 791.351562 344.9375 788.066406 C 308.527344 782.578125 274.464844 767.484375 240.621094 753.660156 C 139.289062 709.820312 50.523438 625.675781 24.199219 515.777344 C 0.140625 403.417969 33.453125 272.417969 97.890625 178.53125 C 137.816406 123.074219 193.363281 78.296875 255.628906 50.238281 C 301.167969 32.160156 349.191406 18.472656 397.980469 13.203125 C 423.164062 11.078125 448.429688 13 473.488281 15.738281 C 504.550781 18.613281 537.175781 22.226562 562.28125 42.574219 C 577.398438 52.601562 571.097656 76.28125 552.449219 76.027344 C 542.929688 75.730469 534.582031 70.710938 525.859375 67.472656 C 500.515625 60.125 473.566406 61 447.425781 59.074219 C 410.582031 56.417969 374.171875 62.84375 338.980469 73.480469 C 314.59375 80.722656 289.972656 87.695312 267.054688 98.941406 C 237.257812 113.597656 210.355469 133.410156 185.5625 155.402344 C 97.90625 235.851562 59.933594 363.253906 69.769531 479.960938 C 80.992188 558.035156 131.285156 626.773438 196.082031 669.984375 C 241.277344 699.027344 290.863281 721.691406 343.015625 734.84375 C 377.96875 740.957031 413.769531 742.914062 449.210938 741.585938 C 512.023438 736.265625 571.460938 703.15625 618.234375 662.867188 C 671.996094 616.589844 707.355469 552.484375 732.492188 486.96875 C 754.628906 413.960938 746.28125 333.085938 717.390625 263.113281 C 710.265625 241.28125 698.367188 222.183594 683.5 204.824219 C 665.382812 176.96875 639.757812 156.308594 614.714844 135.085938 C 608.210938 129.550781 601.488281 124.308594 594.582031 119.289062 C 576.289062 106.402344 584.871094 75.089844 606.945312 72.902344 C 626.957031 70.929688 642.089844 92.199219 656.863281 103.070312 C 665.742188 110.671875 675.042969 117.742188 683.75 125.5625 C 700.945312 140.902344 714.796875 159.390625 728.351562 177.890625 C 736.152344 187.886719 744.171875 197.519531 750.269531 208.703125 C 793.367188 294.378906 809.96875 395.566406 786.207031 489.3125 C 763.210938 560.726562 725.113281 628.929688 672.933594 683.089844 C 604.976562 749.277344 514.117188 799.25 417.101562 793.898438 Z M 338.027344 385.871094 C 322.347656 383.757812 311.96875 367.054688 317.238281 352.027344 C 320.207031 332.132812 323.050781 312.175781 326.664062 292.34375 C 332.011719 270.121094 330.835938 242.703125 348.175781 225.78125 C 357.195312 218.289062 371.421875 219.871094 377.4375 230.253906 C 382.269531 237.777344 380.472656 246.347656 379.191406 254.527344 C 376.765625 271.105469 375.28125 287.808594 373.203125 304.433594 C 370.640625 324.234375 368.730469 344.082031 366.886719 363.960938 C 365.371094 377.878906 351.503906 387.730469 338.027344 385.871094 Z M 499.734375 401.355469 C 470.484375 394.425781 477.566406 371.011719 481.054688 348.773438 C 483.882812 327.394531 486.558594 305.996094 490.949219 284.882812 C 494.71875 269.558594 494.375 252.492188 502.972656 238.871094 C 514.570312 222.902344 541.414062 228.300781 546.195312 247.378906 C 548.402344 255.199219 546.367188 263.425781 545.117188 271.261719 C 542.679688 287.949219 539.066406 304.402344 536.753906 321.105469 C 534.285156 340.015625 532.109375 358.953125 529.203125 377.800781 C 527.921875 392.410156 514.085938 403.417969 499.734375 401.355469 Z M 385.789062 589.988281 C 361.335938 585.796875 339.5625 573.113281 319.300781 559.332031 C 302.214844 548.496094 289.363281 532.527344 277.796875 516.183594 C 266.710938 499.152344 252.3125 470.53125 259.347656 450.292969 C 264.507812 436.855469 283.296875 431.414062 294.460938 440.796875 C 305.136719 450.042969 306.730469 465.273438 313.28125 477.222656 C 320.222656 489.40625 329.476562 500.355469 339.402344 510.207031 C 374.5625 538.953125 415.425781 549.433594 459.230469 535.058594 C 485.507812 524.472656 503.691406 500.699219 519.121094 477.925781 C 532.515625 453.574219 571.710938 467.027344 567.347656 494.582031 C 564.988281 509.425781 535.019531 544.175781 522.917969 554.671875 C 487.199219 589.800781 433.8125 599.355469 385.789062 589.988281 Z M 385.789062 589.988281 " fill-opacity="1" fill-rule="nonzero"/></svg>