<svg xmlns="http://www.w3.org/2000/svg" xmlns:xlink="http://www.w3.org/1999/xlink" width="250" zoomAndPan="magnify" viewBox="0 0 187.5 74.999997" height="100" preserveAspectRatio="xMidYMid meet" version="1.0"><defs><clipPath id="0b625c5e23"><path d="M 0 22.214844 L 53.371094 22.214844 L 53.371094 60.949219 L 0 60.949219 Z M 0 22.214844 " clip-rule="nonzero"/></clipPath><clipPath id="069f4007f7"><path d="M 32.75 15.070312 L 86.117188 15.070312 L 86.117188 53.800781 L 32.75 53.800781 Z M 32.75 15.070312 " clip-rule="nonzero"/></clipPath><clipPath id="65cc20a4aa"><path d="M 67.359375 19.816406 L 120.726562 19.816406 L 120.726562 58.550781 L 67.359375 58.550781 Z M 67.359375 19.816406 " clip-rule="nonzero"/></clipPath><clipPath id="5311602d53"><path d="M 103.207031 14.027344 L 156.574219 14.027344 L 156.574219 52.761719 L 103.207031 52.761719 Z M 103.207031 14.027344 " clip-rule="nonzero"/></clipPath><clipPath id="1d122db055"><path d="M 133.574219 17.347656 L 186.941406 17.347656 L 186.941406 56.082031 L 133.574219 56.082031 Z M 133.574219 17.347656 " clip-rule="nonzero"/></clipPath></defs><g clip-path="url(#0b625c5e23)"><path fill="#ffeadd" d="M 28.652344 22.214844 C 26.078125 22.214844 24.195312 22.832031 22.316406 24.289062 C 21.695312 24.773438 20.257812 26.164062 19.734375 26.792969 L 19.425781 27.164062 L 18.488281 26.851562 C 17.25 26.433594 16.589844 26.300781 15.710938 26.296875 C 15.09375 26.296875 14.894531 26.324219 14.4375 26.480469 C 13.742188 26.71875 13.003906 27.089844 12.46875 27.472656 C 11.625 28.070312 10.613281 29.34375 10.285156 30.222656 C 10.136719 30.613281 10.117188 30.636719 9.945312 30.59375 C 8.898438 30.328125 8.476562 30.304688 7.515625 30.457031 C 6.703125 30.589844 6.1875 30.761719 5.351562 31.171875 C 4.164062 31.753906 3.296875 32.8125 3.015625 34.011719 C 2.847656 34.738281 2.871094 35.867188 3.066406 36.773438 L 3.140625 37.105469 L 2.789062 37.476562 C 1.605469 38.726562 0.484375 41.242188 0.210938 43.246094 C 0.00390625 44.769531 0.269531 47.0625 0.847656 48.71875 C 1.519531 50.644531 2.363281 52.222656 3.207031 53.132812 C 3.945312 53.929688 5.328125 54.789062 6.496094 55.179688 C 7.242188 55.425781 8.371094 55.605469 9.199219 55.605469 C 10.5 55.605469 12.46875 55.203125 13.769531 54.667969 C 13.859375 54.632812 13.921875 54.734375 14.074219 55.164062 C 14.714844 56.972656 15.671875 58.160156 17.359375 59.242188 C 19.167969 60.402344 21.316406 60.902344 23.253906 60.613281 C 25.285156 60.3125 27.453125 59.421875 28.945312 58.273438 L 29.421875 57.90625 L 29.726562 58.277344 C 30.746094 59.53125 32.394531 60.5 34.109375 60.855469 C 34.433594 60.921875 34.898438 60.945312 35.5625 60.929688 C 36.726562 60.898438 37.21875 60.777344 38.34375 60.234375 C 39.597656 59.628906 40.503906 58.914062 41.382812 57.828125 C 41.785156 57.335938 42.710938 55.984375 42.769531 55.808594 C 42.789062 55.75 42.894531 55.757812 43.160156 55.835938 C 43.359375 55.894531 43.828125 55.984375 44.199219 56.027344 C 44.78125 56.101562 44.996094 56.097656 45.691406 55.996094 C 47.730469 55.703125 49.152344 55.003906 50.507812 53.625 C 51.941406 52.167969 52.695312 50.714844 53.128906 48.574219 C 53.347656 47.5 53.363281 45.058594 53.160156 44.125 C 52.863281 42.761719 52.078125 40.773438 51.421875 39.714844 C 50.609375 38.410156 48.703125 36.8125 47.511719 36.429688 L 47.152344 36.316406 L 47.105469 35.902344 C 47.035156 35.265625 46.742188 34.34375 46.421875 33.734375 C 45.894531 32.738281 44.652344 31.566406 43.480469 30.964844 C 42.238281 30.324219 40.546875 29.867188 39.414062 29.867188 C 38.957031 29.867188 38.863281 29.847656 38.863281 29.753906 C 38.863281 29.691406 38.769531 29.355469 38.652344 29.007812 C 38.257812 27.820312 37.382812 26.503906 36.1875 25.300781 C 35.21875 24.324219 34.46875 23.769531 33.40625 23.253906 C 31.933594 22.535156 30.460938 22.214844 28.652344 22.214844 Z M 28.652344 22.214844 " fill-opacity="1" fill-rule="nonzero"/></g><g clip-path="url(#069f4007f7)"><path fill="#ffeadd" d="M 61.402344 15.070312 C 58.824219 15.070312 56.941406 15.6875 55.0625 17.144531 C 54.441406 17.625 53.007812 19.019531 52.480469 19.648438 L 52.171875 20.019531 L 51.238281 19.703125 C 50 19.289062 49.339844 19.15625 48.457031 19.152344 C 47.84375 19.148438 47.644531 19.179688 47.1875 19.335938 C 46.492188 19.574219 45.753906 19.945312 45.21875 20.324219 C 44.371094 20.925781 43.359375 22.199219 43.03125 23.074219 C 42.886719 23.46875 42.863281 23.492188 42.695312 23.449219 C 41.648438 23.179688 41.222656 23.15625 40.265625 23.3125 C 39.449219 23.445312 38.9375 23.613281 38.097656 24.027344 C 36.914062 24.609375 36.042969 25.667969 35.765625 26.867188 C 35.597656 27.589844 35.617188 28.71875 35.816406 29.625 L 35.890625 29.960938 L 35.539062 30.332031 C 34.355469 31.582031 33.230469 34.09375 32.957031 36.097656 C 32.75 37.621094 33.019531 39.917969 33.597656 41.570312 C 34.269531 43.5 35.113281 45.074219 35.957031 45.988281 C 36.691406 46.78125 38.078125 47.644531 39.246094 48.03125 C 39.992188 48.28125 41.121094 48.457031 41.945312 48.457031 C 43.25 48.457031 45.214844 48.054688 46.519531 47.523438 C 46.609375 47.484375 46.667969 47.585938 46.824219 48.019531 C 47.464844 49.828125 48.421875 51.015625 50.109375 52.097656 C 51.917969 53.257812 54.0625 53.757812 56.003906 53.46875 C 58.035156 53.167969 60.199219 52.273438 61.695312 51.125 L 62.171875 50.757812 L 62.472656 51.132812 C 63.492188 52.382812 65.144531 53.355469 66.859375 53.710938 C 67.183594 53.777344 67.644531 53.800781 68.308594 53.785156 C 69.476562 53.753906 69.96875 53.628906 71.089844 53.089844 C 72.347656 52.484375 73.253906 51.765625 74.132812 50.683594 C 74.53125 50.191406 75.460938 48.839844 75.519531 48.664062 C 75.539062 48.605469 75.640625 48.609375 75.910156 48.691406 C 76.109375 48.75 76.578125 48.835938 76.949219 48.882812 C 77.527344 48.957031 77.742188 48.949219 78.4375 48.851562 C 80.480469 48.558594 81.902344 47.855469 83.257812 46.476562 C 84.691406 45.019531 85.445312 43.566406 85.878906 41.429688 C 86.09375 40.351562 86.113281 37.914062 85.910156 36.980469 C 85.613281 35.617188 84.828125 33.628906 84.167969 32.570312 C 83.355469 31.265625 81.453125 29.664062 80.257812 29.285156 L 79.902344 29.167969 L 79.855469 28.753906 C 79.78125 28.121094 79.492188 27.195312 79.167969 26.585938 C 78.640625 25.589844 77.398438 24.421875 76.230469 23.816406 C 74.988281 23.175781 73.292969 22.71875 72.164062 22.71875 C 71.703125 22.71875 71.613281 22.703125 71.613281 22.609375 C 71.613281 22.546875 71.515625 22.210938 71.402344 21.859375 C 71.007812 20.675781 70.132812 19.359375 68.9375 18.15625 C 67.96875 17.175781 67.214844 16.625 66.15625 16.109375 C 64.679688 15.390625 63.207031 15.066406 61.402344 15.070312 Z M 61.402344 15.070312 " fill-opacity="1" fill-rule="nonzero"/></g><g clip-path="url(#65cc20a4aa)"><path fill="#ffeadd" d="M 96.011719 19.816406 C 93.433594 19.816406 91.550781 20.433594 89.671875 21.894531 C 89.050781 22.375 87.617188 23.765625 87.09375 24.398438 L 86.78125 24.769531 L 85.847656 24.453125 C 84.609375 24.035156 83.949219 23.90625 83.066406 23.902344 C 82.453125 23.898438 82.253906 23.925781 81.796875 24.082031 C 81.101562 24.324219 80.363281 24.695312 79.828125 25.074219 C 78.980469 25.671875 77.96875 26.949219 77.640625 27.824219 C 77.496094 28.21875 77.472656 28.242188 77.304688 28.199219 C 76.257812 27.929688 75.832031 27.90625 74.875 28.0625 C 74.058594 28.195312 73.546875 28.363281 72.707031 28.773438 C 71.523438 29.355469 70.652344 30.414062 70.375 31.617188 C 70.207031 32.339844 70.226562 33.46875 70.425781 34.375 L 70.5 34.707031 L 70.148438 35.078125 C 68.964844 36.332031 67.839844 38.84375 67.566406 40.847656 C 67.359375 42.371094 67.628906 44.667969 68.207031 46.320312 C 68.878906 48.25 69.722656 49.824219 70.566406 50.738281 C 71.300781 51.53125 72.6875 52.390625 73.855469 52.78125 C 74.601562 53.027344 75.730469 53.207031 76.554688 53.207031 C 77.859375 53.207031 79.824219 52.804688 81.128906 52.269531 C 81.21875 52.234375 81.277344 52.335938 81.433594 52.769531 C 82.074219 54.574219 83.03125 55.761719 84.71875 56.847656 C 86.527344 58.003906 88.675781 58.503906 90.613281 58.21875 C 92.644531 57.914062 94.8125 57.023438 96.304688 55.875 L 96.78125 55.507812 L 97.082031 55.878906 C 98.101562 57.132812 99.753906 58.101562 101.46875 58.457031 C 101.792969 58.527344 102.253906 58.550781 102.917969 58.53125 C 104.085938 58.503906 104.578125 58.378906 105.699219 57.839844 C 106.957031 57.234375 107.863281 56.515625 108.742188 55.433594 C 109.140625 54.9375 110.070312 53.585938 110.128906 53.414062 C 110.148438 53.351562 110.25 53.359375 110.519531 53.4375 C 110.71875 53.5 111.1875 53.585938 111.558594 53.632812 C 112.136719 53.703125 112.351562 53.699219 113.046875 53.597656 C 115.089844 53.304688 116.511719 52.605469 117.867188 51.226562 C 119.300781 49.769531 120.054688 48.316406 120.488281 46.175781 C 120.707031 45.101562 120.722656 42.660156 120.519531 41.730469 C 120.222656 40.363281 119.4375 38.378906 118.777344 37.320312 C 117.964844 36.015625 116.0625 34.414062 114.867188 34.03125 L 114.511719 33.917969 L 114.464844 33.503906 C 114.390625 32.867188 114.101562 31.945312 113.777344 31.335938 C 113.25 30.339844 112.011719 29.171875 110.839844 28.566406 C 109.597656 27.925781 107.902344 27.46875 106.773438 27.46875 C 106.3125 27.46875 106.222656 27.449219 106.222656 27.359375 C 106.222656 27.296875 106.125 26.960938 106.011719 26.609375 C 105.617188 25.421875 104.742188 24.105469 103.546875 22.90625 C 102.578125 21.925781 101.824219 21.375 100.765625 20.859375 C 99.289062 20.140625 97.816406 19.816406 96.011719 19.816406 Z M 96.011719 19.816406 " fill-opacity="1" fill-rule="nonzero"/></g><g clip-path="url(#5311602d53)"><path fill="#ffeadd" d="M 131.859375 14.027344 C 129.285156 14.027344 127.402344 14.644531 125.523438 16.101562 C 124.902344 16.582031 123.464844 17.976562 122.941406 18.605469 L 122.632812 18.976562 L 121.695312 18.660156 C 120.457031 18.246094 119.796875 18.113281 118.917969 18.109375 C 118.300781 18.105469 118.101562 18.136719 117.644531 18.292969 C 116.949219 18.53125 116.210938 18.902344 115.675781 19.28125 C 114.832031 19.882812 113.820312 21.15625 113.492188 22.035156 C 113.34375 22.425781 113.324219 22.449219 113.152344 22.40625 C 112.105469 22.136719 111.683594 22.113281 110.722656 22.269531 C 109.910156 22.402344 109.394531 22.570312 108.558594 22.984375 C 107.371094 23.566406 106.503906 24.625 106.222656 25.824219 C 106.054688 26.546875 106.074219 27.679688 106.273438 28.585938 L 106.347656 28.917969 L 105.996094 29.289062 C 104.8125 30.539062 103.6875 33.050781 103.417969 35.054688 C 103.210938 36.582031 103.476562 38.875 104.054688 40.527344 C 104.726562 42.457031 105.570312 44.03125 106.414062 44.945312 C 107.152344 45.738281 108.535156 46.601562 109.703125 46.988281 C 110.449219 47.238281 111.578125 47.414062 112.40625 47.414062 C 113.707031 47.414062 115.675781 47.011719 116.976562 46.480469 C 117.066406 46.445312 117.128906 46.542969 117.28125 46.976562 C 117.921875 48.785156 118.878906 49.972656 120.566406 51.054688 C 122.375 52.214844 124.523438 52.714844 126.460938 52.425781 C 128.492188 52.125 130.660156 51.234375 132.152344 50.082031 L 132.628906 49.71875 L 132.933594 50.089844 C 133.953125 51.339844 135.601562 52.3125 137.316406 52.667969 C 137.640625 52.734375 138.105469 52.757812 138.765625 52.742188 C 139.933594 52.710938 140.425781 52.589844 141.546875 52.046875 C 142.804688 51.441406 143.710938 50.722656 144.589844 49.640625 C 144.992188 49.148438 145.917969 47.796875 145.976562 47.621094 C 145.996094 47.5625 146.097656 47.570312 146.367188 47.648438 C 146.566406 47.707031 147.035156 47.792969 147.40625 47.839844 C 147.988281 47.914062 148.203125 47.90625 148.898438 47.808594 C 150.9375 47.515625 152.359375 46.8125 153.714844 45.433594 C 155.148438 43.976562 155.902344 42.527344 156.335938 40.386719 C 156.554688 39.308594 156.570312 36.871094 156.367188 35.9375 C 156.070312 34.574219 155.285156 32.585938 154.625 31.527344 C 153.8125 30.222656 151.910156 28.625 150.714844 28.242188 L 150.359375 28.125 L 150.3125 27.710938 C 150.242188 27.078125 149.949219 26.152344 149.625 25.542969 C 149.101562 24.550781 147.859375 23.378906 146.6875 22.777344 C 145.445312 22.132812 143.753906 21.675781 142.621094 21.675781 C 142.160156 21.675781 142.070312 21.660156 142.070312 21.566406 C 142.070312 21.503906 141.976562 21.167969 141.859375 20.816406 C 141.464844 19.632812 140.589844 18.316406 139.394531 17.113281 C 138.425781 16.136719 137.675781 15.582031 136.613281 15.066406 C 135.140625 14.347656 133.667969 14.027344 131.859375 14.027344 Z M 131.859375 14.027344 " fill-opacity="1" fill-rule="nonzero"/></g><g clip-path="url(#1d122db055)"><path fill="#ffeadd" d="M 162.226562 17.347656 C 159.648438 17.347656 157.769531 17.964844 155.890625 19.421875 C 155.265625 19.902344 153.832031 21.296875 153.308594 21.925781 L 152.996094 22.296875 L 152.0625 21.980469 C 150.824219 21.566406 150.164062 21.433594 149.285156 21.429688 C 148.667969 21.425781 148.46875 21.457031 148.011719 21.613281 C 147.316406 21.851562 146.578125 22.222656 146.042969 22.601562 C 145.199219 23.203125 144.183594 24.476562 143.859375 25.355469 C 143.710938 25.746094 143.6875 25.769531 143.519531 25.726562 C 142.472656 25.460938 142.046875 25.433594 141.089844 25.589844 C 140.277344 25.722656 139.761719 25.890625 138.925781 26.304688 C 137.738281 26.886719 136.867188 27.945312 136.589844 29.144531 C 136.421875 29.867188 136.441406 31 136.640625 31.90625 L 136.714844 32.238281 L 136.363281 32.609375 C 135.179688 33.859375 134.054688 36.371094 133.785156 38.375 C 133.574219 39.902344 133.84375 42.195312 134.421875 43.847656 C 135.09375 45.777344 135.9375 47.351562 136.78125 48.265625 C 137.519531 49.058594 138.902344 49.921875 140.070312 50.308594 C 140.816406 50.558594 141.945312 50.734375 142.773438 50.734375 C 144.074219 50.734375 146.042969 50.332031 147.34375 49.800781 C 147.433594 49.765625 147.496094 49.863281 147.648438 50.296875 C 148.289062 52.105469 149.246094 53.292969 150.933594 54.375 C 152.742188 55.535156 154.890625 56.035156 156.828125 55.746094 C 158.859375 55.445312 161.027344 54.554688 162.519531 53.40625 L 162.996094 53.039062 L 163.300781 53.410156 C 164.320312 54.660156 165.96875 55.632812 167.683594 55.988281 C 168.007812 56.054688 168.46875 56.078125 169.132812 56.0625 C 170.300781 56.03125 170.792969 55.910156 171.914062 55.367188 C 173.171875 54.761719 174.078125 54.042969 174.957031 52.960938 C 175.355469 52.46875 176.285156 51.117188 176.34375 50.941406 C 176.363281 50.882812 176.464844 50.890625 176.734375 50.96875 C 176.933594 51.027344 177.402344 51.113281 177.773438 51.160156 C 178.351562 51.234375 178.566406 51.230469 179.265625 51.128906 C 181.304688 50.835938 182.726562 50.132812 184.082031 48.753906 C 185.515625 47.296875 186.269531 45.847656 186.703125 43.707031 C 186.921875 42.628906 186.9375 40.191406 186.734375 39.257812 C 186.4375 37.894531 185.652344 35.90625 184.992188 34.847656 C 184.179688 33.542969 182.277344 31.945312 181.082031 31.5625 L 180.726562 31.445312 L 180.679688 31.03125 C 180.609375 30.398438 180.316406 29.472656 179.992188 28.863281 C 179.46875 27.871094 178.226562 26.699219 177.054688 26.097656 C 175.8125 25.457031 174.121094 24.996094 172.988281 24.996094 C 172.527344 24.996094 172.4375 24.980469 172.4375 24.886719 C 172.4375 24.824219 172.339844 24.488281 172.226562 24.140625 C 171.832031 22.953125 170.957031 21.636719 169.761719 20.433594 C 168.792969 19.457031 168.039062 18.902344 166.980469 18.386719 C 165.507812 17.667969 164.035156 17.347656 162.226562 17.347656 Z M 162.226562 17.347656 " fill-opacity="1" fill-rule="nonzero"/></g></svg>