<svg xmlns="http://www.w3.org/2000/svg" xmlns:xlink="http://www.w3.org/1999/xlink" width="1080" zoomAndPan="magnify" viewBox="0 0 810 809.999993" height="1080" preserveAspectRatio="xMidYMid meet" version="1.0"><path fill="#fb742b" d="M 647.566406 453.933594 C 641.75 461.863281 635.976562 469.832031 629.96875 477.617188 C 619.304688 491.441406 610.199219 506.257812 602.320312 521.789062 C 595.082031 536.046875 585.753906 548.929688 577.164062 562.316406 C 567.574219 577.253906 558.808594 592.734375 549.988281 608.152344 C 546.605469 614.066406 540.582031 618.222656 535.734375 620.660156 C 526.746094 625.183594 520.863281 632.320312 514.1875 638.804688 C 485.726562 666.433594 453.554688 688.574219 417.257812 704.460938 C 369.074219 725.554688 320.011719 744.480469 270.515625 762.28125 C 269.765625 762.550781 268.917969 762.546875 267.972656 762.691406 C 271.746094 768.585938 271.015625 771.882812 264.503906 774.363281 C 248.761719 780.347656 233.910156 777.964844 221.550781 766.621094 C 200.253906 747.082031 179.542969 726.890625 166.332031 700.546875 C 161.078125 690.070312 157.070312 679.132812 153.816406 667.84375 C 148.894531 650.753906 140.835938 634.808594 134.914062 618.070312 C 124.90625 589.792969 115.578125 561.296875 107.699219 532.363281 C 105.816406 525.460938 108.699219 518.167969 109.53125 511.132812 C 111.636719 493.292969 119.449219 477.652344 130.269531 463.378906 C 137.730469 453.535156 146.820312 445.523438 156.734375 438.347656 C 168.089844 430.128906 178.160156 420.601562 186.710938 409.472656 C 187.992188 407.804688 189.605469 406.378906 191.144531 404.925781 C 195.53125 400.785156 199.691406 397.171875 198.257812 389.648438 C 197.082031 383.480469 202.222656 378.015625 203.585938 371.871094 C 205.4375 363.511719 199.710938 345.164062 193.011719 340.011719 C 192.402344 339.542969 191.558594 338.960938 190.90625 339.042969 C 179.253906 340.539062 172.710938 336.125 167.605469 325.371094 C 161.050781 311.578125 161.070312 297.257812 165.371094 283.609375 C 171.089844 265.457031 167.308594 250.417969 155.640625 236.378906 C 152.558594 232.667969 149.925781 228.589844 146.941406 224.796875 C 145.457031 222.90625 144.308594 220.914062 141.089844 220.714844 C 137.582031 220.496094 135.355469 217.230469 133.664062 214.351562 C 122.425781 195.183594 119.914062 186.558594 133.796875 168.175781 C 140.210938 159.683594 139.691406 151.390625 136.996094 142.136719 C 132.808594 127.765625 125.386719 114.890625 118.933594 101.558594 C 118.109375 99.855469 117.230469 98.175781 116.308594 96.523438 C 108.695312 82.878906 110.847656 73.859375 126.03125 64.972656 C 131.09375 62.007812 136.464844 62.71875 141.382812 63.550781 C 164.71875 67.515625 185.527344 77.410156 203.847656 92.351562 C 223.320312 108.234375 246.351562 118.609375 266.511719 133.519531 C 291.519531 152.015625 316.894531 169.972656 339.824219 191.089844 C 347.257812 197.9375 356.363281 202.707031 363.371094 210.089844 C 363.859375 210.601562 364.320312 211.554688 365.417969 210.972656 C 373.371094 206.761719 378.011719 212.121094 383.527344 216.605469 C 396.40625 227.074219 407.761719 239.019531 418.242188 251.738281 C 423.476562 258.09375 430.308594 263.597656 432.171875 272.386719 C 432.433594 273.628906 433.90625 274.730469 435.023438 275.65625 C 451.71875 289.46875 466.886719 304.980469 481.199219 321.066406 C 493.855469 335.296875 507.363281 348.640625 520.171875 362.671875 C 530.636719 374.140625 540.773438 385.929688 550.480469 398.109375 C 554.425781 403.058594 560.230469 406.507812 564.203125 412.058594 C 572.367188 423.453125 581.03125 434.5 588.902344 446.121094 C 589.5 447.003906 590.054688 447.914062 590.628906 448.8125 C 591.210938 448.398438 591.792969 447.984375 592.375 447.570312 C 588.996094 441.898438 585.839844 436.074219 582.203125 430.574219 C 560.535156 397.828125 539.925781 364.367188 516.695312 332.683594 C 509 322.191406 499.949219 312.703125 491.957031 302.414062 C 478.335938 284.863281 462.347656 269.441406 447.882812 252.65625 C 446.222656 250.734375 444.484375 248.835938 442.53125 247.230469 C 435.589844 241.5 433.9375 237.15625 437.113281 228.96875 C 442.871094 214.136719 451.835938 202.921875 469.167969 200.816406 C 477.933594 199.753906 480.507812 192.113281 483.328125 185.027344 C 486.429688 177.238281 483.363281 169.65625 482.636719 162.109375 C 481.96875 155.164062 482.964844 154.914062 488.433594 151.292969 C 495.109375 146.875 502.136719 148.246094 508.753906 146.398438 C 517.46875 143.96875 522.46875 136.378906 525.625 127.96875 C 527.613281 122.652344 529.53125 117.4375 533.941406 113.386719 C 537.230469 110.367188 539.527344 111.039062 541.714844 114.207031 C 552.332031 129.574219 562.261719 145.421875 569.363281 162.703125 C 579.398438 187.125 589.988281 211.363281 598.265625 236.472656 C 605.996094 259.925781 612.859375 283.632812 619.464844 307.453125 C 625.5625 329.449219 628.285156 351.894531 632.429688 374.132812 C 636.019531 393.375 637.695312 412.976562 640.355469 432.402344 C 640.777344 435.492188 641.839844 438.445312 641.839844 441.675781 C 641.839844 443.910156 639.53125 448.984375 646.09375 446.035156 C 648.582031 444.910156 650.046875 450.558594 647.566406 453.933594 Z M 518.820312 121.390625 C 515.492188 126.136719 512.371094 130.59375 508.273438 136.4375 C 515.015625 132.433594 518.023438 127.792969 518.820312 121.390625 Z M 518.820312 121.390625 " fill-opacity="1" fill-rule="nonzero"/><path fill="#010a54" d="M 647.839844 451.253906 C 647.859375 453.152344 648.207031 455.308594 647.453125 456.894531 C 646.164062 459.621094 644.867188 463.660156 641.324219 463.203125 C 637.890625 462.753906 639.148438 458.839844 638.765625 456.234375 C 635.144531 431.398438 634.765625 406.113281 629.492188 381.546875 C 622.125 347.226562 617.910156 312.179688 607.023438 278.664062 C 594.453125 239.953125 583.640625 200.628906 568.710938 162.738281 C 562.503906 146.980469 554.789062 131.613281 541.792969 119.730469 C 538.488281 116.707031 536.730469 116.855469 534.824219 120.515625 C 532.890625 124.226562 531.105469 128.015625 529.160156 131.71875 C 524.183594 141.1875 516.53125 146.621094 505.636719 146.800781 C 501.355469 146.871094 497.34375 147.933594 493.480469 149.527344 C 487.128906 152.144531 484.925781 156.261719 485.929688 163.023438 C 487.3125 172.332031 488.734375 181.410156 484.996094 190.800781 C 480.832031 201.238281 472.585938 204.894531 462.777344 207.097656 C 450.957031 209.757812 442.496094 215.390625 439.160156 228.40625 C 437.027344 236.734375 438 241.746094 444.375 247.78125 C 458.96875 261.601562 473.019531 276.082031 486.347656 291.128906 C 498.140625 304.445312 509.136719 318.496094 520.4375 332.257812 C 544.671875 361.765625 566.121094 393.230469 587.035156 425.058594 C 597.949219 441.675781 607.621094 459.121094 617.542969 476.367188 C 619.582031 479.914062 623.425781 485.160156 618.707031 488.121094 C 615.078125 490.398438 612.21875 484.921875 609.699219 482.085938 C 600.164062 471.351562 593.449219 458.570312 584.675781 447.273438 C 568.96875 427.042969 554.808594 405.664062 538.082031 386.15625 C 527.511719 373.832031 517.40625 361 506.101562 349.421875 C 494.316406 337.351562 483.359375 324.582031 472.085938 312.097656 C 455.628906 293.878906 435.03125 280.253906 418.351562 262.304688 C 406.113281 249.128906 393.160156 236.617188 379.554688 224.824219 C 363.144531 210.601562 345.613281 197.816406 328.222656 184.847656 C 307.484375 169.382812 286.734375 153.949219 266.042969 138.425781 C 238.15625 117.503906 210.640625 96.019531 179.753906 79.515625 C 169.355469 73.957031 158.265625 69.414062 146.480469 68.78125 C 137.125 68.273438 127.800781 71.101562 119.101562 74.820312 C 115.253906 76.464844 114.101562 85.042969 115.839844 91.144531 C 119.222656 103.058594 126.566406 112.835938 132.730469 123.277344 C 141.484375 138.097656 143.949219 153.558594 135.097656 169.160156 C 123.558594 189.5 129.859375 205.988281 144.96875 221.191406 C 152.226562 228.496094 159.972656 235.316406 165.648438 244.1875 C 174.726562 258.367188 176.285156 273.027344 170.3125 288.617188 C 167.777344 295.238281 164.320312 301.613281 165.988281 309.148438 C 168.035156 318.378906 175.417969 323.007812 182.472656 327.425781 C 190.382812 332.382812 196.445312 339.074219 201.859375 346.265625 C 205.320312 350.855469 207.84375 356.40625 207.113281 362.769531 C 206.207031 370.675781 208.53125 378.75 205.707031 386.625 C 204.804688 389.144531 206.78125 390.191406 209.054688 389.433594 C 223.1875 384.71875 238.074219 383.789062 252.554688 380.835938 C 261.5625 379 270.871094 377.789062 280.042969 377.8125 C 294.65625 377.847656 309.175781 374.707031 323.75 376.238281 C 340.808594 378.03125 357.96875 378.53125 374.945312 381.789062 C 387.417969 384.183594 400.089844 385.824219 412.609375 388.140625 C 438.464844 392.921875 463.808594 399.648438 488.394531 409.042969 C 514.609375 419.0625 539.503906 431.671875 561.871094 448.714844 C 578.316406 461.246094 594.507812 474.167969 609.007812 489.015625 C 609.449219 489.472656 610.03125 489.863281 610.300781 490.40625 C 611.242188 492.3125 613.984375 494.183594 612.132812 496.3125 C 610.351562 498.359375 608.15625 495.992188 606.542969 495.042969 C 586.59375 483.285156 566.816406 471.234375 546.828125 459.546875 C 513.523438 440.078125 477.894531 425.929688 440.808594 415.8125 C 424.765625 411.433594 408.117188 409.199219 391.378906 407.597656 C 368.3125 405.386719 345.238281 405.847656 322.289062 406.769531 C 297.949219 407.746094 273.734375 411.167969 249.726562 416.402344 C 220.273438 422.820312 191.824219 432.058594 163.746094 442.671875 C 159.371094 444.328125 155.59375 447.722656 152.367188 451.347656 C 137.945312 467.542969 125.578125 484.976562 117.480469 505.371094 C 112.765625 517.246094 115.613281 526.910156 124.050781 535.121094 C 133.609375 544.429688 135.804688 556.242188 137.824219 568.519531 C 140.25 583.265625 138.367188 598.074219 139.3125 612.800781 C 139.8125 620.550781 144.957031 626.613281 150.5 631.109375 C 162.667969 640.972656 165.3125 653.921875 166.53125 668.492188 C 168.101562 687.285156 172.71875 705.292969 191.777344 714.820312 C 206.316406 722.089844 211.410156 735.738281 216.421875 749.6875 C 218.101562 754.371094 219.757812 759.089844 222.328125 763.511719 C 226.269531 770.296875 232.117188 770.847656 238.695312 769.761719 C 267.105469 765.070312 293.292969 753.457031 320.113281 743.753906 C 336.523438 737.8125 352.25 730.488281 367.414062 722.019531 C 390.261719 709.261719 412.871094 696.066406 435.394531 682.746094 C 455.054688 671.113281 474.761719 659.511719 493.4375 646.308594 C 503.1875 639.414062 512.722656 632.28125 521.445312 624.011719 C 528.109375 617.691406 534.796875 611.171875 543.65625 607.636719 C 546.21875 606.613281 548.96875 605.667969 550.648438 607.785156 C 552.296875 609.867188 551.027344 612.285156 549.121094 614.484375 C 530.984375 635.460938 510.738281 654.261719 489.007812 671.347656 C 442.652344 707.789062 392.996094 739.015625 339.554688 764.136719 C 305.921875 779.945312 271.105469 792.21875 234.734375 799.910156 C 228.300781 801.273438 221.765625 802.203125 215.292969 803.464844 C 197.078125 807.011719 180.785156 797.101562 170.210938 782.652344 C 166.621094 777.75 164.132812 772.144531 160.203125 767.390625 C 151.339844 756.652344 138.359375 753.746094 126.355469 748.964844 C 113.59375 743.878906 102.585938 737.070312 99.101562 722.46875 C 97.753906 716.820312 98.457031 711.089844 98.511719 705.410156 C 98.644531 692.40625 93.617188 681.398438 84.628906 672.652344 C 70.1875 658.597656 58.082031 643.292969 52.691406 623.476562 C 50.25 614.503906 50.582031 605.144531 52.03125 596.402344 C 54.59375 580.96875 53.34375 566.769531 45.324219 553.222656 C 39.339844 543.117188 34.882812 532.332031 36.683594 520.347656 C 38.636719 507.339844 42.351562 494.746094 48.730469 483.085938 C 54.570312 472.421875 59.164062 461.117188 65.441406 450.660156 C 67.574219 447.105469 70.167969 444.484375 73.652344 442.257812 C 92.09375 430.464844 111.671875 421.003906 132.742188 413.050781 C 128.863281 409.488281 126.390625 405.410156 122.5625 402.066406 C 115.40625 395.8125 113.734375 386.835938 115.132812 377.707031 C 116.6875 367.601562 111.566406 360.308594 104.21875 355.882812 C 88.523438 346.425781 82.769531 323.753906 88.6875 306.753906 C 89.921875 303.210938 91.390625 299.742188 92.867188 296.292969 C 98.808594 282.394531 97.113281 274.40625 86.414062 263.613281 C 81.257812 258.410156 75.203125 254.398438 70.550781 248.339844 C 60.375 235.089844 57.765625 221.417969 64.285156 206.148438 C 66.695312 200.5 68.902344 194.585938 69.195312 188.703125 C 69.6875 178.75 66.753906 169.492188 59.84375 161.632812 C 54.25 155.273438 48.136719 149.492188 42.191406 143.503906 C 32.527344 133.777344 31.335938 121.273438 31.855469 108.347656 C 32.074219 102.867188 32.855469 97.480469 33.472656 92.050781 C 35.035156 78.289062 26.835938 68.265625 19.464844 58.121094 C 15.375 52.488281 11.390625 46.753906 8.53125 40.492188 C -0.015625 21.769531 10.335938 10.085938 26.054688 3.859375 C 35.605469 0.078125 46.625 0.0429688 57.214844 1.464844 C 113.628906 9.027344 163.53125 33.558594 212.683594 60.402344 C 240.234375 75.453125 266.113281 92.992188 291.414062 111.367188 C 311.988281 126.304688 331.40625 142.789062 350.59375 159.527344 C 364.882812 171.996094 379.578125 184 393.578125 198.039062 C 396.265625 190.335938 396.714844 182.515625 403.425781 177.414062 C 407.210938 174.53125 411.382812 172.707031 415.628906 171 C 424.9375 167.261719 429.53125 160.914062 429.125 150.597656 C 428.71875 140.261719 430 130.195312 436.238281 121.265625 C 440.847656 114.671875 447.382812 111.316406 454.824219 110.675781 C 464.554688 109.832031 471.179688 105.019531 476.679688 97.535156 C 483.617188 88.097656 488.191406 77.175781 496.785156 68.691406 C 505.074219 60.511719 515.03125 59.027344 524.8125 61.304688 C 530.59375 62.652344 535.382812 68.882812 540.28125 73.296875 C 565.4375 95.960938 580.957031 125.128906 594.964844 155.238281 C 603.085938 172.695312 611.558594 190.070312 617.417969 208.433594 C 625.265625 233.03125 631.390625 258.054688 635.871094 283.558594 C 639.011719 301.429688 642.320312 319.292969 644.296875 337.289062 C 645.210938 345.585938 645.953125 354.035156 646.53125 362.425781 C 648.578125 392.027344 647.523438 421.644531 647.839844 451.253906 Z M 719.847656 406.070312 C 717.21875 401.886719 712.359375 399.621094 706.835938 400.226562 C 703.222656 400.621094 701.644531 402.652344 701.6875 406.246094 C 702.566406 408.472656 700.828125 413.152344 704.710938 412.605469 C 708.984375 412 709.734375 414.402344 711.085938 416.816406 C 712.996094 420.234375 715.128906 419.738281 717.597656 417.511719 C 721.242188 414.226562 721.992188 409.484375 719.847656 406.070312 Z M 686.105469 389.761719 C 684.382812 389.300781 683.0625 390.492188 681.699219 392.488281 C 675.597656 401.421875 685.273438 401.070312 688.464844 404.71875 C 690.386719 406.917969 692.027344 406.515625 693.941406 405.753906 C 694.808594 405.40625 695.5 404.378906 696.042969 403.515625 C 699.53125 397.996094 694.15625 390.015625 686.105469 389.761719 Z M 686.105469 389.761719 " fill-opacity="1" fill-rule="nonzero"/><path fill="#26adeb" d="M 290.046875 588.285156 C 288.339844 583.488281 284.628906 579.558594 285.503906 573.753906 C 288.648438 552.875 299.332031 537.570312 318.703125 528.972656 C 336.507812 521.0625 355.445312 519.011719 369.273438 519.417969 C 398.746094 519.554688 422.589844 521.925781 446.222656 525.652344 C 474.007812 530.039062 501.628906 535.46875 529.285156 540.644531 C 535.191406 541.753906 541.054688 543.394531 546.695312 545.453125 C 549.96875 546.648438 553.238281 548.847656 552.667969 553.367188 C 552.148438 557.464844 548.628906 557.988281 545.671875 558.53125 C 534.917969 560.5 524.078125 561.578125 513.121094 561.847656 C 490.089844 562.417969 468.019531 568.023438 446.765625 576.453125 C 425.027344 585.074219 404.230469 596.257812 380.902344 600.40625 C 372.277344 601.9375 363.679688 604.195312 354.847656 603.902344 C 347.410156 603.652344 340.21875 605.566406 332.78125 605.613281 C 324.492188 605.664062 316.4375 603.898438 308.179688 603.742188 C 300.160156 603.585938 292.761719 595.910156 290.046875 588.285156 Z M 725.699219 406.230469 C 725.605469 416.195312 716.949219 425.457031 707.488281 425.722656 C 703.464844 425.835938 701.957031 427.359375 701.046875 430.757812 C 695.011719 453.339844 680.398438 470.699219 666.152344 488.339844 C 654.542969 502.714844 643.257812 517.347656 631.949219 531.960938 C 622.824219 543.753906 612.652344 554.675781 603.910156 566.804688 C 593.363281 581.429688 583.304688 596.414062 571.90625 610.425781 C 563.421875 620.855469 555.230469 631.519531 546.15625 641.472656 C 542.074219 645.953125 538.351562 650.78125 534.632812 655.578125 C 531.09375 660.140625 525.050781 660.3125 520.800781 663.765625 C 519.042969 665.199219 518.253906 662.859375 518.054688 660.984375 C 517.433594 655.101562 519.191406 649.769531 521.746094 644.652344 C 538.21875 611.648438 556.839844 579.964844 577.511719 549.351562 C 597.179688 520.230469 617.53125 491.582031 637.144531 462.425781 C 647.644531 446.808594 656.074219 429.480469 670.996094 417.292969 C 676.398438 412.882812 680.285156 409.457031 676.617188 401.78125 C 675.316406 399.054688 675.8125 394.914062 677.710938 391.414062 C 680.226562 386.769531 683.410156 383.097656 688.859375 383.890625 C 694.121094 384.65625 698.992188 387.210938 700.394531 393.050781 C 701.554688 397.867188 702.636719 401.109375 708.5 397.414062 C 711.570312 395.480469 715.441406 396.105469 718.824219 397.449219 C 723.144531 399.167969 727.1875 401.28125 725.699219 406.230469 Z M 697.554688 400.03125 C 695.742188 396.597656 692.660156 394.519531 689.199219 393.046875 C 686.398438 391.859375 683.894531 393.265625 681.625 394.773438 C 681.164062 395.078125 681.164062 396.285156 681.191406 397.066406 C 681.234375 398.09375 681.964844 398.53125 682.898438 398.109375 C 687.511719 396.011719 689.890625 398.394531 691.675781 402.28125 C 692.273438 403.570312 693.511719 403.976562 694.832031 403.3125 C 696.144531 402.652344 697.34375 401.804688 697.554688 400.03125 Z M 718.699219 411.429688 C 719.21875 408.109375 716.828125 406.371094 714.304688 404.796875 C 711.714844 403.179688 708.945312 402.433594 706.007812 403.898438 C 704.621094 404.59375 703.660156 405.609375 703.789062 407.347656 C 703.957031 409.550781 705.609375 409.226562 707.019531 409.296875 C 709.863281 409.4375 713.203125 408.671875 714.117188 412.664062 C 714.453125 414.125 714.261719 415.664062 716.488281 415.417969 C 718.960938 415.148438 718.652344 413.324219 718.699219 411.429688 Z M 350.691406 308.367188 C 366.039062 319.300781 384.253906 324.539062 400.152344 334.417969 C 423.824219 349.128906 449.574219 360.550781 471.554688 377.886719 C 486.152344 389.398438 502.695312 397.605469 518.011719 407.839844 C 521.800781 410.371094 525.046875 413.667969 529.351562 415.480469 C 532.066406 416.621094 535.03125 417.152344 536.824219 414.851562 C 538.703125 412.445312 537.363281 409.882812 535.246094 407.601562 C 520.09375 391.28125 507.628906 372.742188 492.160156 356.601562 C 470.929688 334.449219 449.71875 312.328125 426.976562 291.703125 C 420.394531 285.738281 413.796875 279.625 408.226562 272.753906 C 398.980469 261.363281 388.304688 251.539062 376.996094 242.394531 C 372.890625 239.078125 368.28125 235.730469 362.390625 235.824219 C 354.808594 235.933594 349.390625 240.042969 344.601562 245.351562 C 326.511719 265.417969 328.335938 292.449219 350.691406 308.367188 Z M 524.570312 276.070312 C 520.804688 280.863281 519.183594 286.324219 519.414062 292.566406 C 519.71875 300.878906 522.164062 308.578125 525.765625 315.824219 C 533.027344 330.429688 541.480469 344.335938 551.453125 357.324219 C 562.183594 371.289062 572.617188 385.484375 583.074219 399.660156 C 585.945312 403.558594 589.722656 404 593.757812 402.738281 C 597.542969 401.558594 598.109375 398.269531 598.371094 394.601562 C 599.265625 382.066406 596.453125 369.835938 594.386719 357.753906 C 591.105469 338.546875 584.941406 319.945312 578.753906 301.398438 C 573.71875 286.300781 567.640625 283.652344 553.699219 291.582031 C 547.714844 294.988281 544.027344 302.875 546.722656 310.078125 C 549.828125 318.378906 554.921875 325.636719 558.785156 333.527344 C 560.972656 337.992188 564.414062 337.714844 567.714844 336.003906 C 571.925781 333.820312 570.246094 330.515625 568.246094 327.589844 C 564.316406 321.847656 561.871094 315.328125 558.585938 309.261719 C 555.398438 303.382812 561.160156 303.5625 563.402344 301.941406 C 566.90625 299.40625 567.140625 302.882812 568.097656 305.25 C 576.550781 326.160156 582.382812 347.796875 585.691406 370.066406 C 586.601562 376.199219 589.816406 381.972656 588.542969 390.058594 C 578.070312 374.570312 568.699219 360.011719 558.597656 345.984375 C 550.378906 334.566406 543.101562 322.605469 536.410156 310.300781 C 532.742188 303.546875 530.699219 295.550781 534.5625 288.53125 C 540.296875 278.101562 549.699219 271.078125 560.640625 266.453125 C 568.933594 262.949219 574.023438 265.28125 578.171875 272.988281 C 587.503906 290.316406 590.890625 309.390625 594.808594 328.300781 C 598.191406 344.621094 600.738281 361.125 604.386719 377.382812 C 608.632812 396.300781 612.207031 415.308594 614.621094 434.535156 C 614.898438 436.75 615.046875 439.210938 617.671875 439.207031 C 619.773438 439.203125 620.085938 436.960938 620.605469 434.992188 C 622.480469 427.898438 621.230469 420.972656 620.796875 413.847656 C 620.09375 402.292969 618.089844 390.960938 615.550781 379.851562 C 611.390625 361.625 608.25 343.199219 604.171875 324.953125 C 600.132812 306.875 596.925781 288.5625 589.988281 271.382812 C 585.242188 259.617188 579.042969 252.097656 566.261719 252.339844 C 547.828125 252.683594 535.21875 262.515625 524.570312 276.070312 Z M 562.695312 522.722656 C 548.457031 524.234375 534.542969 522.371094 520.828125 519.222656 C 510.878906 516.941406 500.777344 515.695312 490.816406 513.566406 C 478.609375 510.953125 466.316406 508.757812 454.023438 506.582031 C 438.851562 503.902344 423.738281 500.90625 408.59375 498.121094 C 386.507812 494.058594 363.78125 493.53125 342.289062 486.261719 C 339.722656 485.394531 337.144531 484.382812 334.8125 483.019531 C 328.277344 479.199219 327.03125 474.046875 329.148438 466.546875 C 332.816406 453.558594 336.25 440.875 347.867188 432.253906 C 354.480469 427.34375 361.859375 427.09375 369.507812 427.285156 C 385.546875 427.332031 400.976562 431.3125 416.25 435.484375 C 445.878906 443.578125 475.085938 453.066406 502.664062 466.804688 C 525.828125 478.34375 548.335938 491.039062 567.1875 509.15625 C 569.160156 511.050781 572.953125 512.53125 571.265625 516.757812 C 569.691406 520.722656 567.140625 522.25 562.695312 522.722656 Z M 565.777344 514.808594 C 564.773438 512.09375 563.085938 511.304688 561.492188 510.277344 C 538.328125 495.378906 514.242188 482.308594 489.089844 470.953125 C 463.832031 459.554688 437.347656 452.101562 411.035156 444.007812 C 398.667969 440.203125 385.726562 438.914062 373.027344 436.570312 C 365.449219 435.171875 356.917969 439.949219 352.828125 446.734375 C 348.105469 454.574219 346.777344 463.484375 343.957031 471.929688 C 342.964844 474.898438 344.453125 475.265625 346.425781 475.570312 C 363.117188 478.148438 379.816406 480.648438 396.507812 483.230469 C 407.441406 484.921875 418.398438 486.527344 429.285156 488.488281 C 446.714844 491.632812 464.023438 495.488281 481.515625 498.203125 C 499.628906 501.015625 517.492188 504.582031 535.105469 509.722656 C 544.855469 512.5625 554.769531 515.523438 565.777344 514.808594 Z M 516.855469 589.265625 C 502.210938 607.179688 483.777344 621.195312 467.402344 637.324219 C 445.402344 658.980469 419.761719 675.136719 391.964844 687.953125 C 378.226562 694.285156 363.285156 696.582031 345.894531 698.035156 C 329.597656 693.804688 311.960938 687.59375 300.414062 671.570312 C 287.929688 654.242188 297.019531 643.21875 314.222656 638.777344 C 356.394531 627.882812 398.121094 615.621094 438.910156 600.367188 C 455.167969 594.285156 470.828125 586.605469 486.988281 580.230469 C 494.300781 577.34375 502.109375 575.554688 509.820312 573.875 C 513.902344 572.980469 518.558594 572.886719 520.773438 577.820312 C 522.976562 582.722656 519.554688 585.964844 516.855469 589.265625 Z M 514.570312 580.558594 C 511.789062 579.296875 509.667969 579.578125 507.464844 580.53125 C 500.945312 583.347656 494.324219 585.9375 487.855469 588.859375 C 456.035156 603.242188 423.769531 616.496094 390.320312 626.636719 C 364.8125 634.371094 339.167969 641.652344 313.636719 649.328125 C 305.996094 651.625 305.140625 654.382812 309.007812 661.335938 C 320.019531 681.128906 342.476562 689.609375 366.265625 683.414062 C 379.730469 679.90625 392.285156 674.667969 404.351562 667.679688 C 423.84375 656.398438 443.15625 645.144531 459.277344 628.980469 C 468.035156 620.199219 478.148438 612.777344 487.535156 604.601562 C 496.539062 596.757812 505.390625 588.734375 514.570312 580.558594 Z M 199.851562 318.515625 C 193.421875 310.527344 191.820312 306.375 195.054688 300.585938 C 199.128906 293.300781 206.324219 293.921875 212.949219 294.195312 C 236.285156 295.167969 258.53125 301.605469 280.730469 308.25 C 314.265625 318.289062 347.859375 328.121094 381.378906 338.207031 C 392.417969 341.53125 403.015625 346.046875 412.832031 352.160156 C 415.359375 353.734375 418.746094 355.195312 417.773438 359.191406 C 416.726562 363.507812 414.183594 365.742188 409.277344 365.710938 C 382.164062 365.542969 355.050781 365.632812 327.933594 365.632812 C 302.308594 365.636719 276.6875 365.769531 251.066406 365.582031 C 236.496094 365.476562 227.925781 361.210938 223.757812 347.386719 C 221.808594 340.917969 217.574219 335.824219 212.742188 331.460938 C 208.199219 327.351562 203.742188 323.351562 199.851562 318.515625 Z M 206.542969 309 C 209.582031 313.148438 213.226562 316.621094 216.867188 320.125 C 225.109375 328.066406 233.300781 336.167969 235.445312 347.933594 C 236.507812 353.753906 239.46875 355.09375 244.582031 354.929688 C 259.558594 354.449219 274.539062 354.355469 289.519531 353.789062 C 319.976562 352.640625 350.507812 353.335938 381.007812 353.527344 C 388.988281 353.574219 396.898438 355.921875 405.613281 354.4375 C 404.664062 353.824219 404.375 353.539062 404.027344 353.425781 C 381.625 346.128906 358.4375 341.65625 335.917969 334.847656 C 300.46875 324.132812 265.070312 313.230469 228.789062 305.664062 C 222.558594 304.363281 216.03125 303.136719 209.433594 303.628906 C 205.242188 303.941406 203.171875 304.40625 206.542969 309 Z M 200.25 153.140625 C 226.78125 165.398438 251.578125 180.816406 276.691406 195.671875 C 286.054688 201.210938 296.644531 204.535156 305.960938 210.363281 C 315.234375 216.164062 324.449219 221.996094 331.988281 230.058594 C 334.144531 232.363281 336.207031 234.378906 334.148438 238.3125 C 331.984375 242.4375 329.433594 240.785156 326.265625 240.617188 C 292.425781 238.792969 261.445312 225.140625 229.109375 217.1875 C 211.550781 212.863281 193.949219 208.664062 176.457031 204.074219 C 167.945312 201.839844 159.683594 198.332031 152.886719 192.613281 C 144.816406 185.828125 144.695312 180.734375 151.757812 172.824219 C 154.285156 169.996094 156.410156 167.125 155.726562 163.277344 C 153.703125 151.914062 163.453125 144.902344 174.671875 145.089844 C 183.921875 145.421875 192.140625 149.390625 200.25 153.140625 Z M 217.589844 171.648438 C 205.953125 165.441406 194.277344 159.058594 181.554688 155.335938 C 172.9375 152.816406 164.675781 152.921875 166.261719 165.699219 C 166.957031 171.300781 164.542969 176.042969 160.953125 180.023438 C 158.527344 182.71875 159.164062 183.964844 161.785156 185.949219 C 168.507812 191.042969 176.4375 193.195312 184.304688 194.96875 C 206.042969 199.867188 227.429688 206.089844 249.039062 211.425781 C 274.507812 217.71875 299.222656 226.925781 326.542969 231.484375 C 321.878906 227.320312 317.949219 224.664062 313.957031 222.03125 C 301.785156 214 287.8125 209.71875 275.007812 203.085938 C 255.632812 193.058594 236.839844 181.917969 217.589844 171.648438 Z M 222.839844 638.761719 C 215.601562 645.382812 206.945312 648.539062 197.371094 649.398438 C 189.585938 650.183594 184.703125 646.046875 181.875 639.632812 C 178.96875 633.039062 174.082031 629.152344 167.992188 625.722656 C 159.488281 620.9375 153.035156 614.351562 152.761719 603.484375 C 152.65625 599.160156 150.382812 594.976562 151.800781 590.453125 C 155.234375 579.527344 165.101562 577.484375 174.074219 575.472656 C 190.625 571.765625 207.597656 570.640625 224.507812 569.191406 C 237.414062 568.085938 250.050781 564.46875 263.144531 564.660156 C 272.609375 564.796875 275.046875 567.863281 271.78125 576.609375 C 267.851562 587.132812 262.019531 596.730469 254.707031 605.15625 C 244.589844 616.808594 234.261719 628.320312 222.839844 638.761719 Z M 211.886719 628.53125 C 227.796875 612.796875 242.40625 595.910156 256.367188 576.929688 C 252.371094 576.929688 248.960938 576.433594 245.738281 577.011719 C 228.429688 580.113281 210.6875 579.1875 193.4375 582.753906 C 184.703125 584.558594 175.578125 584.8125 167.566406 589.402344 C 165.78125 590.421875 163.09375 591.082031 163.4375 593.652344 C 164.507812 601.632812 164.09375 610.496094 172.234375 615.4375 C 181.101562 620.820312 188.574219 627.238281 192.253906 637.285156 C 193.3125 640.171875 195.015625 640.128906 197.679688 638.84375 C 203.082031 636.246094 207.714844 632.65625 211.886719 628.53125 Z M 301.691406 696.527344 C 290.984375 681.335938 270.503906 679.296875 260.042969 692.179688 C 253.691406 700 253.859375 708.164062 260.515625 715.503906 C 265.53125 721.027344 271.957031 721.441406 279.234375 717.148438 C 283.390625 714.695312 283.296875 711.894531 281.183594 708.191406 C 279.074219 704.492188 276.1875 704.074219 273.386719 706.664062 C 269.644531 710.117188 267.894531 706.957031 266.761719 704.671875 C 264.765625 700.640625 268.390625 697.652344 269.964844 694.421875 C 271.148438 691.988281 273.757812 690.976562 276.511719 691.683594 C 285.441406 693.96875 292.761719 698.550781 297.144531 706.972656 C 300.6875 713.78125 300.046875 721.878906 294.835938 726.207031 C 288.402344 731.550781 281.71875 736.714844 274.03125 740.25 C 269.148438 742.496094 264.570312 741.65625 260.554688 738.136719 C 256.679688 734.742188 254.246094 730.460938 252.332031 725.648438 C 247.785156 714.191406 241.550781 703.746094 231.667969 696.003906 C 224.914062 690.71875 225.027344 689.878906 230.910156 683.382812 C 243.65625 669.3125 259.511719 659.390625 275.230469 649.257812 C 284.886719 643.027344 288.410156 627.535156 281.871094 618.144531 C 279.089844 614.148438 275.394531 611.394531 270.042969 614 C 268.542969 614.730469 266.589844 615.03125 266.324219 617.027344 C 266.011719 619.390625 267.855469 620.445312 269.671875 620.992188 C 273.183594 622.054688 273.921875 624.347656 273.652344 627.707031 C 272.679688 639.796875 267.308594 648.390625 255.917969 653.71875 C 241.273438 660.566406 228.257812 669.820312 218.96875 683.515625 C 213.867188 691.039062 214.964844 697.152344 222.363281 702.382812 C 224.253906 703.71875 226.039062 705.230469 227.714844 706.824219 C 236.03125 714.757812 240.125 725.25 244.742188 735.378906 C 250.082031 747.109375 265.058594 754.796875 277.882812 747.632812 C 284.722656 743.8125 291.222656 739.574219 297.226562 734.726562 C 303.480469 729.679688 309.167969 723.757812 308.226562 714.832031 C 308.722656 707.566406 305.445312 701.851562 301.691406 696.527344 Z M 157.589844 538.25 C 155.5625 531.265625 152.324219 525.152344 147.960938 519.394531 C 139.601562 508.359375 144.113281 491.492188 161.925781 490.460938 C 173.371094 489.792969 183.769531 493.738281 194.246094 497.171875 C 212.484375 503.15625 230.835938 508.386719 250.007812 510.535156 C 258.042969 511.4375 265.921875 513.710938 273.953125 514.742188 C 277.953125 515.253906 280.300781 516.914062 281.113281 520.570312 C 282.023438 524.679688 280.441406 527.953125 276.953125 530.378906 C 269.671875 535.445312 261.828125 539.421875 253.339844 541.9375 C 241.472656 545.457031 229.152344 546.484375 216.949219 548.195312 C 208.09375 549.441406 199.269531 551.183594 190.605469 553.382812 C 187.417969 554.191406 184.308594 553.710938 181.476562 554.398438 C 170.121094 555.5 160.269531 547.476562 157.589844 538.25 Z M 159.140625 514.320312 C 164.066406 520.6875 168.164062 527.496094 170.492188 535.175781 C 172.398438 541.453125 176.261719 544.222656 183.328125 543.570312 C 184.167969 543.570312 185.761719 543.933594 187.113281 543.511719 C 204.988281 537.957031 223.832031 538.34375 241.964844 534.453125 C 251.972656 532.304688 261.726562 529.28125 270.855469 524.476562 C 272.457031 523.632812 274.050781 522.855469 273.441406 520.792969 C 272.933594 519.074219 271.523438 518.023438 269.628906 517.953125 C 268.359375 517.90625 267.089844 517.984375 265.820312 518.003906 C 249.222656 518.253906 232.730469 517.578125 216.496094 513.535156 C 200.550781 509.5625 185.175781 503.617188 169.054688 500.253906 C 163.960938 499.1875 159.859375 499.890625 156.792969 504.191406 C 153.839844 508.335938 156.921875 511.449219 159.140625 514.320312 Z M 519.507812 180.058594 C 523.449219 197.90625 530.621094 214.214844 542.71875 228.101562 C 547.304688 233.367188 552.691406 237.847656 560.167969 235.082031 C 568.339844 232.058594 567.816406 224.394531 568.109375 217.433594 C 568.128906 217.015625 568.015625 216.59375 567.902344 215.679688 C 567.257812 212.675781 568.074219 209.148438 567 205.535156 C 561.746094 187.933594 553.171875 172.007812 543.144531 156.777344 C 538.269531 149.375 533.53125 148.265625 524.964844 152.363281 C 517.953125 155.714844 515.152344 161.902344 517.136719 169.148438 C 518.121094 172.734375 518.703125 176.425781 519.507812 180.058594 Z M 307.195312 258.683594 C 276.601562 245.625 244.703125 238.523438 211.230469 240.359375 C 206.457031 240.625 201.800781 242.382812 197.644531 244.960938 C 189.421875 250.054688 188.679688 255.40625 195.234375 262.332031 C 196.523438 263.695312 198.054688 264.84375 199.558594 265.980469 C 206.714844 271.386719 215.09375 274.070312 223.519531 276.613281 C 240.351562 281.691406 257.746094 284.105469 275.035156 286.859375 C 279.707031 287.601562 285.242188 288.851562 289.453125 284.488281 C 295.65625 278.0625 294.097656 268.007812 285.503906 263.953125 C 272.5625 257.847656 258.734375 255.585938 244.40625 256.847656 C 242.039062 257.054688 239.996094 258.351562 239.773438 260.410156 C 239.53125 262.652344 241.671875 263.992188 243.890625 264.332031 C 248.652344 265.054688 253.332031 266.109375 258.257812 265.972656 C 265.6875 265.765625 272.640625 268.472656 279.636719 270.625 C 282.75 271.582031 283.148438 274.113281 282.589844 276.78125 C 281.976562 279.707031 279.804688 278.308594 278.007812 278.21875 C 261.863281 277.390625 246.347656 273.199219 230.726562 269.53125 C 221.285156 267.316406 212.28125 264.265625 204.335938 258.464844 C 200.359375 255.5625 200.773438 253.183594 204.824219 251.210938 C 209.59375 248.886719 214.789062 248.011719 220.0625 247.851562 C 245.28125 247.0625 269.382812 253.8125 293.664062 259.105469 C 306.289062 261.859375 316.191406 267.847656 314.539062 283.734375 C 320.910156 274.300781 317.777344 263.203125 307.195312 258.683594 Z M 475.367188 219.816406 C 480.433594 233.445312 488.875 244.839844 498.875 255.183594 C 502.859375 259.296875 507.117188 262.871094 512.875 264.515625 C 522.996094 267.40625 529.382812 261.609375 527.675781 250.90625 C 524.398438 230.355469 512.382812 215.515625 496.40625 203.425781 C 491.441406 199.667969 485.867188 200.214844 480.328125 203.171875 C 475.90625 205.53125 473.546875 208.691406 474.152344 213.375 C 474.152344 214.839844 473.996094 215.929688 474.199219 216.945312 C 474.394531 217.941406 475.003906 218.847656 475.367188 219.816406 Z M 283.753906 497.625 C 287.039062 497.265625 290.625 496.203125 293.660156 494.078125 C 300.730469 489.121094 304.832031 477.152344 302.640625 467.125 C 300.679688 458.179688 296.222656 453.558594 288.414062 453.066406 C 279.988281 452.539062 271.757812 454.316406 263.542969 455.949219 C 258.851562 456.882812 254.597656 459.515625 254.308594 464.054688 C 254.007812 468.761719 257.664062 472.351562 262.1875 474.53125 C 264.253906 475.523438 266.042969 476.285156 267.9375 474.433594 C 270.0625 472.359375 267.707031 471.121094 267.082031 469.515625 C 266.21875 467.304688 264.144531 464.214844 268.589844 463.90625 C 272 463.667969 275.179688 462.664062 278.480469 462.226562 C 292.710938 460.347656 294.203125 461.816406 293.082031 476.273438 C 292.957031 477.90625 292.097656 479.46875 291.847656 481.105469 C 291.074219 486.09375 287.4375 487.835938 283.230469 489.160156 C 275.335938 491.644531 267.421875 490.855469 259.636719 489.074219 C 248.535156 486.527344 243.339844 478.847656 244.90625 467.664062 C 245.359375 464.421875 246.964844 461.347656 247.507812 458.109375 C 248.738281 450.796875 253.90625 448.3125 260.25 447.144531 C 268.691406 445.59375 277.125 444.183594 285.742188 443.773438 C 289.832031 443.578125 293.828125 441.90625 297.910156 441.132812 C 299.972656 440.746094 302.03125 440.128906 301.757812 437.867188 C 301.472656 435.523438 299.039062 436.484375 297.53125 436.441406 C 293.085938 436.3125 288.636719 436.394531 284.1875 436.386719 C 276.816406 436.535156 269.519531 436.808594 262.132812 437.773438 C 245.097656 439.992188 240.730469 442.996094 236.320312 459.300781 C 235.398438 462.71875 234.78125 466.257812 234.421875 469.78125 C 233.726562 476.621094 235.753906 482.5 240.722656 487.496094 C 252.996094 499.835938 268.320312 499.316406 283.753906 497.625 Z M 165.542969 130.035156 C 177.730469 136.269531 190.683594 140.59375 203.636719 144.722656 C 210.140625 146.796875 217.261719 145.558594 216.140625 135.46875 C 217.011719 132.964844 216.265625 129.847656 213.582031 128.226562 C 206.871094 124.167969 199.539062 121.390625 191.898438 119.570312 C 190.109375 119.144531 188.429688 120.128906 187.835938 121.910156 C 187.132812 124.035156 188.871094 124.804688 190.417969 125.578125 C 194.953125 127.84375 199.765625 129.339844 204.722656 130.1875 C 208.914062 130.902344 209.125 133.800781 208.632812 136.816406 C 207.855469 141.585938 204.800781 138.175781 203.433594 137.597656 C 191.304688 132.449219 178.597656 128.65625 167.011719 122.238281 C 162.125 119.53125 157.808594 116.253906 156.175781 110.515625 C 155.261719 107.316406 155.664062 105.652344 159.726562 106.519531 C 181.726562 111.203125 202.542969 118.976562 222.851562 128.644531 C 233.996094 133.953125 241.34375 142.019531 246.835938 152.484375 C 247.621094 153.976562 248.609375 155.371094 249.277344 156.910156 C 249.746094 157.988281 250.277344 159 251.472656 158.519531 C 252.542969 158.089844 253.464844 157.410156 252.988281 155.652344 C 250.335938 145.789062 246.824219 135.910156 238.628906 129.734375 C 226.921875 120.910156 213.386719 114.945312 200.027344 108.835938 C 186.839844 102.804688 172.351562 101.355469 158.832031 96.515625 C 153.15625 94.480469 147.316406 97.558594 146.863281 102.199219 C 146.460938 106.347656 146.230469 110.585938 148.542969 114.519531 C 152.628906 121.472656 158.433594 126.398438 165.542969 130.035156 Z M 165.542969 130.035156 " fill-opacity="1" fill-rule="nonzero"/><path fill="#df0d14" d="M 22.574219 11.007812 C 23.863281 8.058594 28.503906 11.046875 31.476562 12.140625 C 50.660156 19.210938 61.25 33.894531 66.648438 52.804688 C 69.605469 63.160156 70.730469 73.828125 69.816406 84.636719 C 69.816406 89.300781 69.773438 93.964844 69.824219 98.625 C 69.894531 104.941406 71.996094 110.359375 76.414062 115.042969 C 86.664062 125.90625 97.023438 136.664062 101.449219 151.613281 C 105.191406 164.257812 104.207031 176.535156 100.582031 189.023438 C 98.332031 196.777344 95.707031 204.640625 97.574219 213.046875 C 99.558594 221.972656 106.550781 226.496094 113.289062 231.082031 C 122.957031 237.667969 131.898438 244.636719 135.335938 256.617188 C 138.609375 268.039062 138.949219 279.136719 133.195312 289.953125 C 130.832031 294.398438 128.644531 298.941406 126.546875 303.519531 C 122.429688 312.484375 125.261719 321.964844 133.144531 327.722656 C 142.902344 334.84375 152.117188 342.445312 155.011719 355.203125 C 156.207031 360.488281 156.347656 365.839844 155.453125 370.914062 C 153.851562 380.023438 153.058594 388.761719 157.769531 397.222656 C 158.449219 398.445312 158.714844 400.019531 158.761719 401.445312 C 158.824219 403.242188 159.445312 405.574219 157.003906 406.339844 C 154.691406 407.0625 153.070312 405.703125 151.597656 403.941406 C 143.933594 394.78125 144.289062 384.027344 145.984375 373.320312 C 147.542969 363.453125 146.613281 354.519531 139.46875 347.078125 C 135.226562 342.660156 130.699219 338.5 126.148438 334.386719 C 119.574219 328.441406 114.109375 315.863281 117.539062 304.429688 C 120.140625 295.75 125.195312 288.25 127.65625 279.550781 C 130.605469 269.117188 125.339844 250.882812 115.433594 244.816406 C 109.171875 240.984375 103.167969 236.730469 97.804688 231.515625 C 88.1875 222.160156 86.6875 211.285156 88.957031 198.621094 C 90.425781 190.425781 93.3125 182.445312 93.761719 174.183594 C 94.460938 161.425781 90.320312 149.753906 82.730469 139.546875 C 77.835938 132.964844 71.929688 127.132812 67.050781 120.535156 C 62.917969 114.949219 60.40625 108.585938 60.589844 101.277344 C 60.851562 90.6875 61.027344 80.066406 60.582031 69.488281 C 59.601562 46.414062 49.535156 28.617188 29.199219 16.914062 C 26.589844 15.40625 20.941406 14.734375 22.574219 11.007812 Z M 219.15625 794.664062 C 218.328125 793.75 217.183594 793.089844 216.113281 792.429688 C 209.460938 788.34375 204.453125 782.78125 201.097656 775.75 C 196.960938 767.070312 192.964844 758.320312 188.753906 749.675781 C 184.5625 741.066406 178.183594 734.648438 169.421875 730.515625 C 162.566406 727.28125 155.28125 725.480469 148.117188 723.230469 C 136.890625 719.703125 125.535156 712.507812 127.109375 695.289062 C 127.703125 688.769531 126.996094 682.144531 127.246094 675.585938 C 127.792969 661.167969 121.988281 649.488281 112.144531 639.484375 C 106.351562 633.59375 100.175781 628.0625 94.6875 621.90625 C 89.386719 615.964844 85.820312 608.511719 86.753906 600.648438 C 88.070312 589.539062 90.6875 578.542969 94.582031 567.921875 C 100.636719 551.421875 100.464844 535.203125 89.136719 521.027344 C 81.101562 510.964844 82.054688 499.574219 83.9375 488.976562 C 87.238281 470.371094 92.761719 452.148438 101.34375 435.074219 C 101.953125 433.863281 103.882812 432.144531 101.195312 430.925781 C 99.125 429.992188 98.003906 431.40625 97.132812 432.90625 C 93.363281 439.417969 89.324219 445.703125 86.308594 452.71875 C 80.765625 465.628906 76.761719 479.019531 74.738281 492.734375 C 72.957031 504.8125 73.179688 517.152344 82.605469 527.292969 C 87.59375 532.660156 89.15625 539.613281 89.550781 547.054688 C 90.226562 559.871094 83.40625 570.734375 81.179688 582.761719 C 79.664062 590.945312 76.003906 599.050781 77.539062 607.386719 C 79.871094 620.078125 85.753906 631.523438 96.050781 639.480469 C 111.605469 651.5 120.023438 666.304688 118.121094 686.300781 C 116.59375 696.660156 118.96875 706.546875 123.59375 715.539062 C 129.445312 726.902344 139.902344 732.699219 152.203125 735.148438 C 168.773438 738.449219 180.351562 747.441406 186.3125 763.59375 C 188.695312 770.054688 191.808594 776.3125 195.199219 782.320312 C 199.976562 790.78125 206.582031 797.417969 216.476562 799.769531 C 218.046875 800.140625 220.097656 800.488281 221.113281 798.699219 C 222.222656 796.730469 220.175781 795.78125 219.15625 794.664062 Z M 59.421875 137.757812 C 72.144531 147.007812 80.210938 159.285156 79.101562 176.359375 C 78.367188 187.671875 77.148438 198.945312 77.042969 210.351562 C 76.878906 227.636719 85.183594 239.9375 97.589844 250.210938 C 101.492188 253.441406 104.621094 257.074219 105.820312 261.640625 C 109.25 274.695312 106.992188 287.753906 105.371094 300.898438 C 103.875 313.074219 101.730469 325.824219 111.171875 336.359375 C 114.277344 339.828125 117.847656 342.890625 120.859375 346.429688 C 127.078125 353.742188 132.234375 361.140625 129.027344 371.941406 C 125.742188 383 126.675781 393.878906 135.230469 402.871094 C 136.832031 404.554688 139.089844 406.992188 141.023438 405.777344 C 143.898438 403.972656 141.074219 401.976562 139.886719 400.085938 C 135.175781 392.585938 131.621094 385.421875 134.242188 375.5 C 136.6875 366.261719 135.683594 356.367188 129.019531 347.917969 C 124.921875 342.722656 120.121094 338.332031 115.523438 333.699219 C 108.933594 327.050781 106.492188 318.363281 107.828125 310.003906 C 110.039062 296.15625 112.730469 282.492188 112.234375 268.355469 C 112.042969 262.910156 110.355469 258.246094 107.953125 253.523438 C 104.625 246.980469 98.015625 243.871094 93.34375 238.792969 C 80.207031 224.507812 80.625 207.320312 82.667969 189.558594 C 83.839844 179.363281 84.363281 169.03125 81.976562 158.78125 C 79.347656 147.476562 71.15625 140.125 62.976562 133.449219 C 51.675781 124.226562 48.308594 112.765625 48.574219 99 C 48.796875 87.511719 51.140625 76.261719 49.007812 64.457031 C 44.933594 41.859375 29.488281 30.242188 10.730469 19.429688 C 10.832031 23.863281 13.578125 24.648438 15.464844 25.972656 C 33.9375 38.914062 45.53125 55.328125 44.21875 79.175781 C 43.765625 87.375 41.835938 95.425781 42.496094 103.738281 C 43.585938 117.425781 47.464844 129.066406 59.421875 137.757812 Z M 164.421875 169.816406 C 176.675781 171.917969 181.636719 180.820312 184.925781 191.394531 C 185.359375 192.78125 186.109375 194.097656 186.886719 195.332031 C 187.492188 196.292969 187.4375 198.242188 189.1875 197.820312 C 191.109375 197.359375 190.90625 195.609375 190.515625 194.152344 C 189.175781 189.226562 187.746094 184.320312 186.277344 179.144531 C 192.222656 180.125 196.554688 181.980469 198.097656 188.421875 C 199.097656 192.601562 201.894531 196.320312 203.644531 200.347656 C 204.511719 202.34375 205.773438 203.066406 207.570312 202.199219 C 209.484375 201.273438 208.359375 199.769531 207.894531 198.382812 C 206.601562 194.527344 205.425781 190.636719 204.011719 186.148438 C 208.5625 186.636719 211.417969 187.40625 212.3125 192.25 C 213.105469 196.511719 215.320312 200.523438 218.238281 203.9375 C 218.90625 204.71875 219.613281 205.726562 220.839844 205.347656 C 222.488281 204.839844 222.277344 203.246094 222.019531 202.171875 C 221.261719 199.011719 220.207031 195.917969 219.222656 192.636719 C 225.242188 193.359375 229.171875 195.753906 230.8125 201.566406 C 231.875 205.332031 235.515625 207.425781 238.074219 210.195312 C 238.914062 211.105469 240.03125 212.097656 241.359375 211.054688 C 242.820312 209.90625 241.570312 208.960938 241.019531 207.851562 C 239.707031 205.207031 237.128906 203.148438 236.632812 199.644531 C 244.050781 201.964844 251.203125 203.570312 253.644531 211.761719 C 253.917969 212.683594 254.875 213.484375 255.675781 214.148438 C 257.523438 215.683594 259.214844 218.941406 261.917969 217.046875 C 264.449219 215.273438 261.269531 212.964844 260.988281 210.824219 C 260.886719 210.039062 260.269531 209.320312 260.976562 208.894531 C 268.8125 210.074219 274.414062 214.582031 279.527344 219.929688 C 280.984375 221.457031 282.613281 223.386719 284.949219 222.089844 C 288.007812 220.398438 282.722656 218.890625 285.101562 216.566406 C 296.6875 220.683594 308.601562 224.929688 320.527344 229.136719 C 322.460938 229.820312 324.992188 231.007812 325.988281 228.402344 C 327.152344 225.347656 323.972656 225.347656 322.1875 224.625 C 310.960938 220.105469 299.859375 215.261719 288.242188 211.777344 C 287.121094 211.441406 285.628906 211.765625 285.8125 209.738281 C 286.429688 202.96875 284.300781 200.953125 278.46875 204.4375 C 272.160156 208.203125 267.976562 204.710938 262.027344 202.71875 C 263.59375 201.691406 264.351562 201.351562 264.90625 200.804688 C 266.332031 199.402344 269.476562 199.15625 267.828125 195.710938 C 266.238281 192.378906 263.933594 192.671875 261.035156 193.292969 C 259.199219 193.6875 257.804688 194.597656 256.886719 195.949219 C 254.371094 199.660156 251.160156 199.4375 247.675781 197.894531 C 245.417969 196.898438 243.253906 195.695312 240.042969 194.074219 C 241.863281 192.96875 242.835938 192.542969 243.597656 191.878906 C 245.320312 190.375 248.890625 189.578125 247.148438 186.359375 C 245.546875 183.390625 242.429688 183.902344 239.835938 185.140625 C 237.578125 186.222656 235.511719 187.730469 233.433594 189.152344 C 228.96875 192.207031 224.523438 189.363281 222.140625 187.027344 C 220.039062 184.976562 224.898438 183.589844 226.644531 181.878906 C 228 180.554688 229.59375 179.445312 230.8125 178.011719 C 232.132812 176.460938 235.496094 175.441406 233.128906 172.515625 C 230.828125 169.671875 228.300781 171.011719 225.886719 172.664062 C 222.222656 175.171875 218.730469 177.859375 215.695312 181.132812 C 212.078125 185.03125 207.640625 182.507812 205.65625 180.292969 C 202.945312 177.269531 207.679688 176.589844 209.433594 175.035156 C 211.171875 173.492188 212.957031 171.964844 214.460938 170.207031 C 215.636719 168.832031 219.0625 167.980469 216.875 165.453125 C 215.261719 163.585938 212.738281 162.941406 210.167969 164.953125 C 206.039062 168.183594 201.203125 170.558594 198.089844 174.988281 C 194.914062 179.503906 190.886719 176.136719 188.679688 174.804688 C 185.667969 172.988281 189.726562 171.351562 190.894531 169.851562 C 192.441406 167.859375 194.5 166.273438 196.199219 164.386719 C 198.132812 162.242188 199.691406 159.808594 197.023438 157.226562 C 194.085938 154.378906 191.597656 157.121094 190.140625 158.871094 C 187.292969 162.285156 183.925781 165.304688 181.414062 168.878906 C 179.332031 171.835938 177.398438 171.558594 174.835938 170.617188 C 170.726562 169.113281 166.753906 167.09375 162.304688 166.8125 C 161.757812 169.226562 163.449219 169.652344 164.421875 169.816406 Z M 177.53125 768.65625 C 171.839844 758.234375 163.75 749.421875 153.554688 743.238281 C 145.511719 738.359375 136.738281 734.683594 128.226562 730.59375 C 123.117188 728.136719 119.417969 724.242188 116.230469 719.703125 C 108.867188 709.214844 109.003906 696.644531 107.78125 684.875 C 105.75 665.382812 97.042969 650.4375 82.054688 638.582031 C 74.15625 632.332031 68.628906 623.867188 67.15625 614.472656 C 64.910156 600.117188 67.847656 585.550781 69.132812 571.097656 C 70.261719 558.414062 70.207031 545.867188 59.945312 536.109375 C 55.105469 531.507812 51.996094 526.191406 53.203125 519.253906 C 54.417969 512.28125 55.40625 505.21875 57.3125 498.421875 C 60.960938 485.386719 66.574219 473.03125 71.441406 460.417969 C 73.996094 453.792969 77.6875 447.535156 78.992188 440.0625 C 77.894531 440.308594 77.363281 440.265625 77.144531 440.503906 C 76.59375 441.113281 76.066406 441.796875 75.738281 442.539062 C 66.050781 464.539062 54.351562 485.867188 50.523438 509.945312 C 48.894531 520.183594 46.695312 531.121094 56.949219 539.453125 C 59.535156 541.550781 61.472656 545.351562 62.386719 549.207031 C 65.929688 564.109375 64.53125 579.226562 61.59375 593.671875 C 58.292969 609.902344 65.976562 632.832031 79.191406 643.300781 C 86.605469 649.171875 93.207031 655.96875 97.339844 664.921875 C 102.367188 675.808594 102.472656 687.585938 104.589844 699.003906 C 105.945312 706.308594 105.5625 714.101562 110.578125 720.402344 C 119.015625 731.011719 129.929688 738.316406 141.96875 744.175781 C 149.335938 747.757812 156.5 751.511719 162.417969 757.527344 C 169.785156 765.011719 173.941406 774.53125 179.800781 782.953125 C 184.863281 790.226562 190.410156 796.730469 200.832031 797.21875 C 200.285156 795.96875 200.199219 795.136719 199.785156 794.917969 C 188.914062 789.066406 183.207031 779.050781 177.53125 768.65625 Z M 552.378906 88.199219 C 552.78125 86.398438 551.109375 85.230469 549.789062 85.207031 C 545.546875 85.121094 541.484375 84.0625 537.726562 83.296875 C 536.074219 83.480469 534.800781 83.53125 533.566406 83.785156 C 532.34375 84.035156 531.167969 84.785156 529.960938 84.8125 C 514.429688 85.15625 503.191406 93.589844 496.484375 106.242188 C 490.625 117.292969 482.476562 123.261719 471.304688 127.265625 C 461.261719 130.863281 453.382812 137.386719 450.597656 148.492188 C 449.390625 153.3125 450.328125 158.195312 449.992188 163.039062 C 449.453125 170.773438 447.308594 177.730469 441.441406 183.351562 C 436.445312 188.140625 430.242188 190.835938 424.414062 194.1875 C 416.996094 198.449219 410.320312 203.335938 407.585938 211.964844 C 407.207031 213.167969 405.128906 214.527344 407.203125 215.707031 C 408.640625 216.527344 411.140625 216.75 411.949219 215.375 C 418.914062 203.511719 431.886719 200.515625 442.582031 194.144531 C 449.84375 189.816406 455.394531 183.988281 457.628906 175.445312 C 459.550781 168.082031 461.160156 160.609375 460.582031 153.042969 C 460.101562 146.695312 462.871094 142.644531 467.476562 139.101562 C 470.6875 136.632812 474.136719 134.671875 477.9375 133.300781 C 488.792969 129.382812 497.421875 123.125 502.324219 112.113281 C 506.230469 103.34375 513.316406 97.601562 521.96875 93.339844 C 530.742188 89.015625 539.914062 89.476562 549.148438 89.429688 C 550.355469 89.421875 552.023438 89.765625 552.378906 88.199219 Z M 246.511719 522.128906 C 247.042969 520.558594 247.449219 519.597656 247.691406 518.59375 C 248.402344 515.597656 248.835938 512.496094 245.328125 510.957031 C 241.507812 509.28125 240.527344 512.671875 239.476562 514.992188 C 236.40625 521.785156 230.976562 523.386719 224.125 523.054688 C 220.667969 522.886719 219.941406 522.214844 221.53125 519 C 222.496094 517.046875 223.160156 514.632812 222.953125 512.523438 C 222.832031 511.261719 220.886719 509.394531 219.554688 509.199219 C 217.171875 508.851562 215.84375 511.21875 215.171875 513.105469 C 211.984375 522.03125 205.882812 524.527344 196.59375 521.613281 C 198.683594 517.96875 200.65625 514.359375 202.050781 510.457031 C 203.246094 507.121094 200.796875 506.203125 199.117188 505.066406 C 196.730469 503.449219 196.582031 506.25 195.769531 507.417969 C 193.496094 510.691406 190.625 513.785156 189.289062 517.425781 C 187.199219 523.121094 183.519531 523.148438 178.777344 521.960938 C 179.90625 515.933594 182.027344 510.167969 181.363281 503.996094 C 181.140625 501.914062 180.441406 500.285156 178.207031 499.890625 C 175.824219 499.476562 175.492188 501.390625 175.015625 502.984375 C 173.644531 507.554688 171.503906 512.09375 171.214844 516.738281 C 170.917969 521.445312 169.679688 523.292969 164.980469 522.539062 C 163.570312 522.3125 161.589844 522.3125 161.683594 524.335938 C 161.75 525.816406 163.425781 526.84375 164.910156 526.859375 C 167.796875 526.890625 168.515625 528.683594 170.1875 530.710938 C 174.539062 535.996094 180.160156 540.246094 185.363281 544.800781 C 186.117188 545.464844 187.472656 545.503906 188.300781 544.648438 C 189.570312 543.332031 188.394531 542.316406 187.554688 541.449219 C 185.195312 539.015625 182.605469 536.796875 180.425781 534.21875 C 179.210938 532.785156 175.863281 531.289062 177.820312 529.382812 C 179.363281 527.878906 182.398438 527.796875 184.945312 530.441406 C 188.53125 534.171875 192.902344 537.234375 197.246094 540.121094 C 199.480469 541.605469 202.285156 543.351562 205.585938 540.738281 C 201.835938 537.351562 198.257812 534.121094 194.359375 530.601562 C 203.136719 529.09375 210.75 529.207031 216.289062 536.824219 C 217.792969 538.898438 220.203125 539.957031 222.710938 540.441406 C 223.914062 540.675781 225.445312 540.800781 226.21875 539.621094 C 227.152344 538.199219 225.71875 537.371094 224.921875 536.464844 C 223.195312 534.503906 220.707031 533.152344 219.75 530.492188 C 225.226562 529.53125 230.265625 527.40625 235.046875 532.390625 C 237.105469 534.535156 241.101562 534.859375 244.253906 535.898438 C 245.730469 536.382812 247.3125 536.261719 248.347656 534.972656 C 249.816406 533.144531 247.859375 532.40625 246.917969 531.476562 C 246.078125 530.640625 245.023438 530.023438 243.613281 528.976562 C 253.550781 525.433594 264.40625 526.6875 274.769531 520.71875 C 264.3125 517.636719 255.683594 522.695312 246.511719 522.128906 Z M 325.804688 338.890625 C 301.183594 331.160156 276.46875 323.707031 251.792969 316.136719 C 249.351562 315.390625 247.808594 316.277344 246.4375 318.21875 C 243.300781 322.652344 245.722656 325.375 249.015625 328.289062 C 252.398438 331.273438 256.65625 334 251.976562 339.730469 C 248.867188 343.535156 251.414062 346.480469 255.734375 347.203125 C 259.660156 347.867188 263.695312 348.214844 267.675781 348.164062 C 286.539062 347.929688 305.363281 344.925781 324.351562 347.089844 C 326.53125 346.5 329.867188 346.945312 330.691406 344.332031 C 331.867188 340.613281 328.035156 339.59375 325.804688 338.890625 Z M 753.351562 270.554688 C 758.167969 271.152344 760.699219 274.820312 762.042969 278.765625 C 762.976562 281.5 763.917969 285.367188 760.921875 287.601562 C 757.972656 289.800781 754.421875 291.332031 749.222656 288.410156 C 752.71875 288.164062 755.75 288.804688 755.074219 284.921875 C 754.507812 281.675781 752.410156 281.097656 749.59375 280.945312 C 744.574219 280.671875 743.339844 284.585938 743.039062 287.863281 C 742.632812 292.257812 744.816406 296.214844 749.554688 297.40625 C 758.132812 299.566406 766.792969 294.699219 768.492188 287.101562 C 770.535156 277.964844 764.558594 266.21875 756.417969 264.6875 C 747.242188 262.957031 738.371094 263.859375 729.910156 268.832031 C 716.449219 276.746094 707.765625 288.804688 700.707031 302.019531 C 694.496094 313.648438 691.535156 326.457031 689.417969 339.566406 C 687.253906 352.976562 686.890625 366.347656 687.179688 379.816406 C 687.210938 381.414062 688.261719 382.964844 688.585938 384.589844 C 688.914062 386.210938 689.835938 386.644531 691.265625 386.441406 C 693.058594 386.191406 693.089844 384.703125 692.824219 383.546875 C 692.152344 380.675781 691.3125 377.902344 691.429688 374.855469 C 691.796875 365.402344 693.382812 356.101562 694.402344 346.730469 C 696.796875 324.726562 702.347656 304.183594 717.066406 286.894531 C 726.648438 275.636719 737.964844 268.648438 753.351562 270.554688 Z M 787.796875 300.054688 C 782.90625 300.378906 778.035156 301.21875 773.972656 303.949219 C 769.453125 306.984375 765.738281 311.128906 767.171875 317.117188 C 768.222656 321.515625 770.894531 325.363281 775.820312 326.238281 C 780.449219 327.058594 786.542969 322.40625 788.722656 317.683594 C 789.835938 315.261719 788.726562 314.179688 787.40625 312.796875 C 785.957031 311.273438 784.675781 309.582031 782.101562 309.976562 C 780.109375 310.277344 780.152344 312.128906 779.621094 313.246094 C 779.097656 314.339844 781.828125 316.367188 778.851562 317.199219 C 777.382812 317.609375 776.609375 316.648438 775.953125 315.390625 C 774.90625 313.390625 775.101562 311.183594 776.878906 310.371094 C 781.722656 308.167969 786.371094 304.863281 792.332031 308.078125 C 797.855469 311.054688 802.289062 314.183594 801.824219 321.378906 C 800.972656 334.601562 793.46875 344.800781 785.226562 353.738281 C 768.410156 371.972656 751.152344 390.074219 727.042969 399.171875 C 725.875 399.609375 724.566406 400.484375 724.921875 401.929688 C 725.324219 403.5625 726.867188 403.179688 728.046875 402.871094 C 734.945312 401.039062 741.6875 398.664062 747.585938 394.613281 C 767.945312 380.644531 786.335938 364.640625 800.148438 343.824219 C 805.105469 336.351562 808.515625 328.039062 809.109375 319.546875 C 809.769531 310.09375 797.527344 300.078125 787.796875 300.054688 Z M 424.863281 183.644531 C 434.230469 178.742188 439.257812 171.238281 441.863281 161.5625 C 443.113281 156.917969 443.621094 151.960938 443.835938 147.335938 C 444.503906 132.863281 452.351562 123.851562 465.007812 119.984375 C 479.097656 115.683594 488.542969 107.515625 495.75 94.929688 C 503.035156 82.203125 514.105469 73.8125 529.566406 72.773438 C 531.691406 72.628906 535.648438 73.921875 535.539062 71.390625 C 535.398438 68.191406 531.390625 70.515625 529.382812 69.605469 C 522.035156 70.011719 515.046875 71.140625 508.898438 75.207031 C 500.886719 80.5 493.507812 86.90625 489.050781 95.238281 C 482.605469 107.285156 472.015625 112.472656 460.128906 116.601562 C 450.710938 119.875 443.792969 125.898438 440.890625 135.777344 C 439.179688 141.605469 438.261719 147.550781 437.960938 153.65625 C 437.417969 164.714844 433.234375 173.90625 423.328125 179.859375 C 413.214844 185.9375 404.359375 192.984375 402.753906 205.898438 C 402.550781 207.539062 402.035156 208.828125 403.777344 209.496094 C 406.695312 210.617188 405.984375 208.140625 406.4375 206.691406 C 409.597656 196.632812 415.644531 188.472656 424.863281 183.644531 Z M 225.703125 587.519531 C 223.347656 588.398438 220.089844 588.800781 216.675781 588.921875 C 204.441406 589.363281 193.195312 593 183.351562 600.445312 C 178.871094 603.835938 178.96875 607.226562 183.660156 610.277344 C 187.21875 612.589844 190.480469 615.203125 193.53125 618.160156 C 198.832031 623.300781 200.648438 623.160156 206.128906 617.921875 C 213.429688 610.941406 218.355469 601.789062 226.625 595.65625 C 228 594.636719 228.757812 592.542969 229.378906 590.800781 C 230.21875 588.433594 229.191406 587.148438 225.703125 587.519531 Z M 644.289062 549.390625 C 636.585938 545.894531 628.296875 546.171875 620.121094 547.007812 C 618.285156 547.195312 615.9375 548.777344 616.378906 551.378906 C 616.816406 553.96875 619.011719 554.242188 621.316406 554.179688 C 624.703125 554.089844 628.101562 554.300781 631.488281 554.195312 C 634.632812 554.101562 636.148438 555.152344 637.375 558.429688 C 640.035156 565.53125 638.289062 571.921875 636.253906 578.667969 C 633.753906 586.964844 628.511719 593.957031 625.851562 602.167969 C 624.648438 605.882812 625.625 608.515625 628.589844 610.089844 C 632.292969 612.054688 636.492188 613.035156 640.738281 612.921875 C 644.234375 612.828125 646.019531 610.429688 646.257812 607.175781 C 646.527344 603.480469 643.917969 602.640625 640.863281 602.535156 C 639.453125 602.484375 638.039062 602.375 636.082031 602.261719 C 641.457031 590.847656 646.527344 579.886719 648.746094 567.808594 C 650.101562 560.410156 648.726562 551.398438 644.289062 549.390625 Z M 603.136719 583.230469 C 599.066406 583.9375 595.0625 585.121094 591.105469 586.332031 C 587.5 587.4375 583.464844 590.476562 584.324219 593.445312 C 585.355469 597.011719 590.394531 595.304688 593.453125 594.710938 C 604.726562 592.53125 604.792969 592.375 601.292969 603.050781 C 597.996094 613.097656 594.242188 623.003906 591.0625 633.089844 C 588.132812 642.386719 591.878906 648.820312 599.929688 649.300781 C 603.835938 649.535156 607.953125 648.75 608.179688 644.53125 C 608.402344 640.324219 604.386719 639.773438 600.757812 640.105469 C 600.175781 640.160156 599.5625 639.867188 598.605469 639.65625 C 599.207031 638.214844 599.664062 636.890625 600.296875 635.664062 C 606.953125 622.796875 611.132812 609.117188 613.835938 594.9375 C 615.058594 588.503906 609.441406 582.128906 603.136719 583.230469 Z M 652.78125 500.183594 C 645.550781 499.722656 641.875 495.007812 638.167969 489.660156 C 634.800781 484.804688 626.394531 482.429688 622.789062 484.4375 C 621.617188 485.089844 620.550781 485.59375 620.597656 487.113281 C 620.628906 488.320312 621.242188 489.253906 622.449219 489.214844 C 629.9375 488.964844 632.875 494.457031 635.804688 499.820312 C 638.757812 505.21875 643.554688 507.0625 650.554688 507.578125 C 652.398438 507.976562 655.066406 506.617188 656.148438 504.074219 C 656.90625 502.296875 654.304688 500.28125 652.78125 500.183594 Z M 699.484375 437.734375 C 697.441406 435.140625 694.609375 434.101562 691.433594 433.339844 C 686.828125 432.238281 682.535156 430.976562 679.851562 425.921875 C 678.21875 422.847656 675.363281 418.992188 670.457031 419.808594 C 668.019531 419.683594 665.171875 419.605469 664.839844 422.527344 C 664.480469 425.699219 667.613281 423.921875 669.082031 424.574219 C 671.808594 425.789062 673.207031 427.90625 673.996094 430.6875 C 675.515625 436.046875 679.046875 438.613281 684.617188 439.933594 C 688.886719 440.941406 693.433594 440.199219 697.488281 442.335938 C 698.539062 442.890625 699.996094 442.46875 700.867188 441.28125 C 702.25 439.394531 700.273438 438.742188 699.484375 437.734375 Z M 673.015625 468.578125 C 666.882812 468.59375 665.546875 464.058594 663.382812 460.121094 C 658.015625 450.34375 651.09375 447.816406 642.785156 453.246094 C 654.964844 457.304688 653.476562 455.574219 659.207031 468.53125 C 661.707031 474.183594 666.320312 476.339844 671.523438 476.609375 C 673.933594 476.734375 678.796875 476.714844 679.167969 472.765625 C 679.480469 469.460938 675.15625 468.570312 673.015625 468.578125 Z M 601.476562 521.324219 C 605.839844 523.9375 609.070312 527.675781 611.746094 532.117188 C 614.140625 536.097656 618.171875 538.03125 622.269531 537.695312 C 626.464844 537.625 631.25 537.054688 631.515625 534.035156 C 631.839844 530.332031 627.257812 528.769531 623.652344 528.730469 C 620.21875 528.695312 618.429688 527.226562 616.601562 524.527344 C 613.375 519.753906 609.1875 516.046875 602.800781 516.386719 C 601.585938 516.449219 600.097656 516.164062 599.738281 517.847656 C 599.40625 519.386719 599.855469 520.355469 601.476562 521.324219 Z M 573.292969 603.019531 C 567.5 601.304688 564.355469 596.773438 560.347656 593.015625 C 558.796875 591.5625 556.246094 591.042969 554.0625 590.425781 C 552.144531 589.886719 550.804688 591.144531 550.105469 592.800781 C 549.523438 594.1875 549.339844 596.566406 550.535156 596.871094 C 555.867188 598.226562 556.710938 603.199219 559.3125 606.761719 C 561.179688 609.320312 563.703125 610.675781 566.824219 610.046875 C 569.355469 610.238281 571.527344 610.042969 573.507812 608.390625 C 575.980469 606.328125 576.035156 603.832031 573.292969 603.019531 Z M 514.226562 118.019531 C 508.492188 117.84375 505.441406 120.503906 505.058594 125.226562 C 504.699219 129.640625 511.320312 136.097656 515.375 136.074219 C 521.042969 136.039062 522.25 132.050781 522.351562 127.613281 C 522.480469 121.660156 518.859375 117.949219 514.226562 118.019531 Z M 128.792969 455.898438 C 129.054688 450.238281 126.242188 448.34375 121.136719 448.601562 C 115.722656 448.125 113.367188 451.292969 113.042969 456.03125 C 112.714844 460.851562 118.097656 467.347656 121.863281 466.453125 C 127.027344 465.226562 128.550781 460.953125 128.792969 455.898438 Z M 597.71875 575.152344 C 599.117188 574.984375 600.171875 574.1875 600.667969 573.035156 C 601.265625 571.648438 600.238281 570.328125 599.175781 569.878906 C 594.265625 567.808594 591.632812 563.226562 587.898438 559.882812 C 584.886719 557.195312 581.386719 556.335938 577.734375 555.671875 C 575.324219 555.335938 573.265625 556.011719 572.5625 558.34375 C 571.964844 560.324219 573.417969 561.675781 575.324219 561.671875 C 581.820312 561.664062 585.046875 565.605469 587.472656 570.945312 C 589.492188 575.394531 593.511719 575.652344 597.71875 575.152344 Z M 149.945312 657.183594 C 147.011719 656.425781 143.496094 655.71875 141.15625 658.804688 C 138.828125 661.878906 139.101562 664.941406 141.695312 667.890625 C 142.644531 668.972656 143.070312 670.5 143.984375 671.625 C 147.804688 676.34375 150.449219 675.9375 153.410156 670.6875 C 154.460938 668.820312 154.105469 667.039062 154.285156 665.230469 C 154.875 661.421875 153.828125 658.179688 149.945312 657.183594 Z M 117.496094 567.757812 C 110.667969 567.769531 108.855469 569.441406 108.9375 575.25 C 109.003906 579.863281 112.851562 584.40625 116.664062 584.371094 C 120.40625 584.335938 124.097656 578.769531 124.046875 573.417969 C 124.003906 568.640625 121.394531 567.1875 117.496094 567.757812 Z M 205.539062 736.195312 C 206.296875 730.820312 203.976562 729.0625 198.738281 729.011719 C 194.011719 728.964844 191.363281 731.007812 190.695312 735.128906 C 190.089844 738.871094 196.535156 746.175781 199.898438 745.734375 C 205.53125 744.996094 205.089844 740.171875 205.539062 736.195312 Z M 467.648438 180.039062 C 461.476562 178.597656 462.539062 183.730469 462.328125 187.429688 C 462.101562 191.410156 466.714844 194.992188 471.433594 195.132812 C 476.519531 195.28125 477.34375 192.023438 477.308594 188.085938 C 477.265625 182.734375 474.210938 180.070312 467.648438 180.039062 Z M 155.617188 268.933594 C 160.65625 268.039062 162.058594 263.804688 162.816406 259.675781 C 163.339844 256.820312 156.617188 252.328125 151.945312 252.539062 C 148.800781 253.183594 148.171875 256.136719 148.207031 259.445312 C 148.253906 264.15625 152.351562 269.511719 155.617188 268.933594 Z M 118.882812 148.402344 C 123.429688 147.113281 125.394531 143.425781 125.625 138.992188 C 125.4375 134.292969 123.515625 131.671875 118.65625 131.71875 C 114.234375 131.765625 111.390625 133.867188 110.925781 138.160156 C 110.503906 142.015625 116.136719 149.175781 118.882812 148.402344 Z M 181.476562 361.277344 C 182.21875 365.246094 182.832031 370.945312 187.59375 370.910156 C 191.597656 370.882812 194.574219 366.195312 194.886719 361.835938 C 195.234375 357.015625 190.671875 356.40625 187.183594 354.992188 C 184.617188 356.464844 180.691406 357.074219 181.476562 361.277344 Z M 530.730469 628.390625 C 528.925781 629.53125 528.042969 631.421875 530.375 631.960938 C 534.972656 633.019531 537.425781 636.070312 539.828125 639.578125 C 541.535156 642.082031 543.769531 640.832031 545.964844 640.203125 C 547.414062 639.792969 548.234375 639.210938 548 636.582031 C 544.96875 634.109375 541.382812 631.066406 537.671875 628.191406 C 535.402344 626.4375 533.042969 626.9375 530.730469 628.390625 Z M 530.730469 628.390625 " fill-opacity="1" fill-rule="nonzero"/><path fill="#45dbd9" d="M 347.066406 571.832031 C 345.667969 574.269531 343.597656 575.703125 341.691406 577.328125 C 339.542969 579.15625 337.472656 581.371094 338.765625 584.390625 C 339.96875 587.214844 342.871094 585.59375 345.011719 585.929688 C 352.578125 587.113281 359.972656 583.957031 367.539062 584.585938 C 367.773438 587.023438 366.386719 588.382812 365.453125 589.996094 C 362.726562 594.710938 363.71875 596.347656 369.019531 596.503906 C 376.738281 596.734375 383.828125 594.214844 390.933594 591.726562 C 392.332031 591.238281 394.113281 590.515625 393.949219 588.9375 C 393.710938 586.636719 391.410156 587.347656 389.875 587.074219 C 385.492188 586.289062 381.363281 589.707031 376.171875 588.265625 C 377.429688 586.945312 378.1875 586.25 378.832031 585.453125 C 380.101562 583.894531 382.835938 582.824219 381.808594 580.363281 C 380.785156 577.910156 378.527344 576.597656 375.609375 576.894531 C 371.863281 577.273438 368.160156 576.695312 364.320312 577.800781 C 359.726562 579.125 354.761719 579.15625 348.3125 579.953125 C 352.398438 576.996094 355.070312 575.078125 357.722656 573.132812 C 364.226562 568.371094 364.003906 564.691406 356.902344 560.367188 C 353.609375 558.367188 349.640625 557.503906 346.808594 554.695312 C 348.441406 552.308594 350.707031 552.777344 352.769531 552.785156 C 358.914062 552.820312 364.691406 550.914062 370.605469 549.660156 C 373.199219 549.109375 375.144531 547.746094 375.671875 545.535156 C 376.226562 543.214844 373.796875 542.007812 372.113281 540.804688 C 370.300781 539.515625 368.386719 538.375 365.691406 536.636719 C 371.433594 535.6875 376.523438 537.105469 380.695312 533.886719 C 383.613281 531.640625 384.269531 530.21875 380.078125 528.363281 C 373.488281 525.441406 367.261719 527.953125 360.867188 528.578125 C 357.695312 528.890625 354.953125 529.84375 353.714844 532.894531 C 352.460938 535.988281 354.59375 537.980469 356.621094 539.980469 C 357.558594 540.902344 359.726562 541.664062 358.699219 543.320312 C 358.074219 544.335938 356.230469 544.957031 354.867188 545.09375 C 349.257812 545.660156 343.730469 546.5 338.269531 547.964844 C 336.03125 548.566406 334.171875 549.074219 333.882812 551.675781 C 333.601562 554.191406 334.285156 555.964844 336.859375 557.273438 C 341.425781 559.589844 345.742188 562.40625 350.164062 565.011719 C 338.007812 563.910156 326.101562 569.832031 314.105469 564.988281 C 311.007812 563.738281 306.914062 564.34375 303.398438 564.875 C 296.203125 565.960938 291.367188 572.039062 292.53125 577.839844 C 293.679688 583.539062 299.890625 587.179688 306.992188 585.84375 C 313.902344 584.542969 320.652344 581.726562 325.28125 576.714844 C 331.664062 569.800781 339.1875 571.875 347.066406 571.832031 Z M 304.25 579.816406 C 302.101562 579.804688 299.921875 579.914062 299.363281 577.074219 C 298.71875 573.792969 301.410156 573.117188 303.414062 572.503906 C 307.816406 571.152344 311.976562 573.636719 317.375 573.933594 C 312.921875 577.59375 309.089844 579.84375 304.25 579.816406 Z M 501.859375 549.855469 C 500.339844 549.179688 498.773438 548.480469 497.160156 548.15625 C 474.566406 543.628906 451.898438 539.769531 424.003906 540.707031 C 418.960938 541.238281 408.90625 538.542969 399.503906 543.257812 C 395.257812 545.386719 390.628906 547.578125 391.34375 553.160156 C 392.003906 558.34375 396.546875 560.746094 401.117188 561.699219 C 416.96875 565.007812 433.070312 564.230469 448.714844 561.308594 C 465.921875 558.09375 483.027344 554.664062 500.542969 553.828125 C 501.769531 553.769531 502.546875 553.855469 502.8125 552.582031 C 503.035156 551.507812 503.019531 550.371094 501.859375 549.855469 Z M 412.375 555.71875 C 410.214844 555.667969 408.304688 555.167969 406.34375 554.359375 C 404.808594 553.726562 401.914062 554.84375 402.25 551.972656 C 402.488281 549.914062 404.828125 549.757812 406.804688 549.464844 C 424.96875 546.789062 443.085938 548.058594 461.277344 549.910156 C 445.125 553.441406 428.917969 556.097656 412.375 555.71875 Z M 410.226562 303.355469 C 405.878906 305.230469 402.773438 308.152344 403.195312 313.625 C 404.324219 323.984375 411.960938 329.796875 419.875 334.207031 C 430.179688 339.949219 440.613281 346.054688 452.777344 347.433594 C 454.230469 347.597656 454.921875 348.65625 455.835938 349.5 C 463.273438 356.386719 470.71875 363.261719 478.140625 370.164062 C 479.804688 371.714844 481.558594 374.511719 483.855469 372.53125 C 486.144531 370.5625 483.277344 368.480469 482.144531 366.894531 C 474.433594 356.097656 465.199219 346.628906 455.796875 337.316406 C 445.726562 327.339844 435.921875 317.089844 425.609375 307.375 C 421.515625 303.519531 416.3125 300.734375 410.226562 303.355469 Z M 430.550781 321.972656 C 433.804688 327.136719 439.589844 330.125 443.292969 337.121094 C 429.882812 332.339844 417.097656 329.558594 408.582031 318.640625 C 406.898438 316.484375 406.914062 313.324219 408.875 311.039062 C 410.9375 308.636719 413.410156 307.753906 416.640625 309.664062 C 422.105469 312.890625 427.117188 316.527344 430.550781 321.972656 Z M 346.066406 279.085938 C 350.785156 282.683594 356.441406 284.375 362.105469 283.703125 C 368.34375 282.960938 371.28125 287.105469 375.574219 289.675781 C 374.078125 291.726562 372.46875 291.273438 371.101562 291.402344 C 368.957031 291.605469 366.464844 291.546875 365.867188 294.035156 C 365.316406 296.300781 367.796875 297.097656 369.207031 298.179688 C 373.28125 301.292969 377.503906 304.210938 382.203125 307.59375 C 379.757812 308.636719 377.980469 309.214844 376.398438 310.132812 C 375.394531 310.714844 374.460938 311.484375 375.503906 313.148438 C 377.957031 317.042969 389.066406 321.917969 394.230469 320.988281 C 392.578125 317.136719 387.925781 316.691406 385.542969 313.800781 C 387.273438 311.738281 390.851562 314.320312 391.296875 310.660156 C 391.652344 307.78125 389.542969 306.460938 387.671875 305.183594 C 383.628906 302.425781 379.453125 299.871094 374.839844 296.917969 C 387.878906 294.828125 387.878906 294.828125 383.722656 280.472656 C 388.042969 283.066406 391.378906 285.121094 394.769531 287.078125 C 397.460938 288.632812 400.503906 291.40625 403.390625 289.441406 C 406.5 287.324219 402.777344 284.136719 402.980469 281.359375 C 403 281.117188 403.300781 280.894531 403.636719 280.445312 C 405.894531 282.472656 408.15625 284.375 411.082031 285.230469 C 412.382812 285.609375 413.757812 285.855469 414.625 284.828125 C 415.683594 283.574219 414.328125 282.464844 413.742188 281.464844 C 410.78125 276.417969 405.621094 274.261719 400.609375 272.183594 C 397.976562 271.097656 396.273438 272.863281 395.878906 275.707031 C 395.664062 277.257812 396.664062 279.058594 394.785156 280.605469 C 390.804688 278.445312 386.789062 276.238281 382.746094 274.089844 C 380.957031 273.136719 379.207031 272.863281 377.492188 274.445312 C 375.78125 276.015625 377.175781 277.359375 377.367188 278.9375 C 377.757812 282.15625 380.558594 284.6875 380.144531 289.707031 C 373.863281 282.285156 365.390625 279.554688 360.734375 272.03125 C 359.160156 269.488281 356.324219 267.523438 353.207031 266.433594 C 349.097656 265.003906 345.375 265.648438 343.359375 269.558594 C 341.507812 273.140625 342.863281 276.644531 346.066406 279.085938 Z M 347.695312 271.816406 C 348.753906 270.308594 350.296875 270.574219 351.570312 271.359375 C 354.027344 272.871094 356.269531 274.660156 356.738281 277.960938 C 353.464844 278.777344 350.957031 277.476562 348.640625 275.582031 C 347.414062 274.578125 346.617188 273.351562 347.695312 271.816406 Z M 552.003906 180.128906 C 559.121094 186.945312 561.117188 204.824219 555.921875 213.210938 C 552.484375 218.761719 547.515625 219.289062 542.394531 213.984375 C 534.644531 205.957031 529.6875 196.328125 528.640625 185.113281 C 528.195312 180.304688 525.128906 175.394531 528.609375 170.519531 C 529.558594 169.191406 530.152344 166.925781 532.238281 167.984375 C 534.285156 169.023438 531.808594 170.542969 531.953125 171.613281 C 532.632812 176.460938 533.484375 181.320312 534.753906 186.046875 C 536.796875 193.644531 540.441406 200.421875 546.015625 206.128906 C 548.199219 208.363281 550.34375 208.78125 550.703125 205.382812 C 551.417969 198.671875 552.980469 191.597656 547.308594 184.933594 C 545.742188 188.273438 547.1875 193.214844 543.519531 192.859375 C 539.683594 192.484375 539.109375 188 538.972656 184.234375 C 538.84375 180.707031 540.621094 178.597656 543.539062 177.363281 C 547.023438 175.894531 549.765625 177.984375 552.003906 180.128906 Z M 506.738281 252.757812 C 501.25 250.234375 496.902344 246.53125 493.921875 241.125 C 490.105469 234.191406 485.542969 227.625 484.523438 219.488281 C 484.3125 217.777344 484.292969 215.449219 485.914062 215.125 C 488.644531 214.582031 487.25 217.324219 487.820312 218.585938 C 492.039062 227.949219 496.496094 237.164062 505.050781 243.542969 C 506.445312 244.582031 508.242188 245.839844 509.644531 245.070312 C 511.53125 244.039062 510.769531 241.492188 510.382812 239.914062 C 508.882812 233.761719 506.988281 227.695312 501.660156 223.484375 C 500.285156 224.84375 501.171875 225.523438 501.3125 226.277344 C 501.691406 228.296875 504.804688 230.722656 501.800781 232.195312 C 499.539062 233.308594 497.726562 230.25 496.507812 228.5 C 494.320312 225.359375 492.757812 221.472656 496.035156 218.285156 C 499.207031 215.199219 502.792969 216.082031 506.195312 218.773438 C 513.597656 224.632812 518.804688 239.472656 516.410156 248.484375 C 515.089844 253.453125 511.628906 255.007812 506.738281 252.757812 Z M 348.113281 647.945312 C 341.605469 645.160156 334.394531 649.132812 333.902344 655.773438 C 333.226562 664.949219 346.257812 678.816406 355.527344 679.089844 C 361.082031 679.257812 362.160156 675.578125 362.574219 671.464844 C 363.335938 663.90625 355.261719 651.003906 348.113281 647.945312 Z M 350.695312 671.164062 C 345.308594 668.496094 341.246094 664.277344 338.398438 659.039062 C 336.921875 656.328125 338.183594 655.210938 342.332031 655.191406 C 347.554688 655.171875 356.769531 663.65625 356.359375 668.628906 C 356.082031 671.9375 353.292969 672.453125 350.695312 671.164062 Z M 378.808594 638.207031 C 375.261719 635.746094 369.859375 635.425781 367.070312 638.347656 C 364.828125 640.695312 361.519531 644.925781 364.308594 649.28125 C 368.222656 655.382812 371.394531 662.085938 378.171875 665.921875 C 381.148438 667.605469 384.046875 670.160156 387.402344 668.394531 C 390.875 666.566406 391.339844 662.722656 391.289062 658.941406 C 390.480469 650.039062 385.9375 643.15625 378.808594 638.207031 Z M 383.367188 660.882812 C 375.859375 657.789062 371.839844 651.519531 367.492188 645.566406 C 370.21875 642.648438 373.277344 643.359375 375.699219 645.320312 C 380.40625 649.136719 385.003906 653.277344 383.367188 660.882812 Z M 367.246094 446.324219 C 364.867188 450.707031 362.078125 454.898438 360.078125 459.441406 C 358.207031 463.695312 359.726562 467.566406 362.976562 470.855469 C 365.050781 472.957031 367.398438 473.585938 369.757812 472.023438 C 377.1875 467.101562 380.433594 459.570312 382.21875 451.667969 C 382.007812 446.957031 379.484375 445.066406 375.664062 443.875 C 372.101562 442.761719 369.261719 442.621094 367.246094 446.324219 Z M 372.597656 457.054688 C 370.96875 459.339844 370.183594 462.519531 367.0625 463.585938 C 365.191406 463.296875 365.4375 461.753906 365.632812 460.679688 C 366.320312 456.972656 368.15625 453.707031 369.929688 450.421875 C 371.675781 447.183594 373.789062 450.34375 374.105469 450.820312 C 375.625 453.121094 373.796875 455.371094 372.597656 457.054688 Z M 393.605469 453.136719 C 390.449219 457.777344 388.136719 462.996094 387.628906 468.691406 C 387.332031 472.011719 388.839844 474.929688 391.65625 476.761719 C 394.242188 478.449219 396.820312 477.605469 399.300781 476.011719 C 405.039062 472.320312 408 467.199219 407.808594 460.324219 C 407.703125 456.074219 407.789062 451.96875 402.679688 449.964844 C 398.472656 448.320312 395.585938 450.222656 393.605469 453.136719 Z M 395 468.765625 C 392.882812 462.945312 396.835938 459.597656 398.488281 455.40625 C 403.269531 460.039062 402.492188 463.082031 395 468.765625 Z M 407.050781 629.972656 C 404.945312 628.378906 402.210938 627.25 399.328125 628.546875 C 395.824219 630.125 398.914062 632.945312 398.140625 635.042969 C 397.390625 632.761719 395.757812 632.3125 393.675781 633.054688 C 392.671875 633.414062 392.707031 634.304688 393.0625 635.144531 C 395.976562 642.042969 398.367188 649.277344 405.222656 653.601562 C 411.132812 657.332031 416.097656 655.042969 416.71875 648.015625 C 417.429688 639.992188 412.957031 634.441406 407.050781 629.972656 Z M 409.011719 646.90625 C 407.648438 647.640625 406.289062 646.429688 405.773438 645.753906 C 403.164062 642.316406 399.992188 639.25 398.230469 635.210938 C 404.242188 635.191406 409.25 639.382812 409.828125 644.773438 C 409.933594 645.792969 409.699219 646.535156 409.011719 646.90625 Z M 438.011719 631.597656 C 437.421875 626.734375 435.511719 622.363281 430.652344 620.859375 C 426.59375 619.601562 421.503906 619.90625 418.789062 623.171875 C 415.882812 626.675781 418.671875 631.050781 420.226562 634.859375 C 420.699219 636.015625 421.171875 637.238281 421.9375 638.195312 C 424.597656 641.511719 427.753906 645.542969 432.148438 644.289062 C 436.691406 642.996094 438.386719 638.394531 438.023438 633.503906 C 438.023438 632.871094 438.089844 632.226562 438.011719 631.597656 Z M 430.308594 634.289062 C 430.191406 634.75 429.558594 635.40625 429.160156 635.410156 C 427.507812 635.417969 426.722656 634.175781 425.964844 632.894531 C 425.054688 631.351562 424.019531 629.882812 422.964844 628.265625 C 425.546875 627.398438 427.167969 628.652344 428.832031 629.894531 C 430.367188 631.039062 430.746094 632.558594 430.308594 634.289062 Z M 420.335938 458.367188 C 417.480469 462.960938 415.160156 467.933594 414.144531 473.285156 C 413.191406 478.3125 417.445312 483.304688 422.808594 483.199219 C 423.207031 483.117188 424.300781 483.078125 425.226562 482.65625 C 431.289062 479.902344 436.007812 465.667969 433.394531 460.691406 C 430.9375 456.003906 422.894531 454.261719 420.335938 458.367188 Z M 427.554688 465.109375 C 427.628906 469.464844 425.734375 472.339844 422.960938 474.742188 C 422.152344 475.441406 421.386719 474.949219 420.878906 474.242188 C 418.359375 470.722656 422.0625 468.152344 422.449219 465.050781 C 422.628906 463.578125 422.972656 460.816406 425.625 461.433594 C 427.488281 461.867188 427.695312 463.832031 427.554688 465.109375 Z M 445.855469 464.449219 C 441.480469 466.917969 438.273438 478.351562 440.246094 483.167969 C 442.953125 489.789062 447.855469 490.894531 452.789062 485.832031 C 456.320312 482.210938 457.820312 477.722656 457.503906 472.3125 C 457.917969 469.339844 457.601562 466.050781 454.359375 464.414062 C 451.71875 463.078125 448.472656 462.976562 445.855469 464.449219 Z M 447.488281 479.714844 C 446.289062 480.234375 445.320312 478.183594 445.71875 477.050781 C 446.71875 474.242188 445.96875 470.328125 449.121094 468.917969 C 450.636719 468.238281 451.707031 470.582031 451.628906 473.15625 C 451.175781 475.4375 450.410156 478.445312 447.488281 479.714844 Z M 482.746094 481.59375 C 482.457031 483.011719 482.023438 484.394531 481.644531 485.792969 C 480.28125 490.890625 474.683594 496.464844 472.027344 494.929688 C 467.394531 492.25 465.859375 487.691406 466.671875 482.460938 C 467.515625 476.996094 471.992188 471.15625 475.03125 471.328125 C 479.214844 471.5625 483.613281 477.382812 482.746094 481.59375 Z M 503.835938 488.789062 C 503.390625 492.410156 503.101562 497.589844 498.097656 498.023438 C 494.132812 498.363281 492.789062 494.679688 492.304688 490.757812 C 493.566406 487.960938 493.179688 483.378906 498.019531 483.425781 C 501.039062 483.453125 504.222656 485.609375 503.835938 488.789062 Z M 456 621.921875 C 455.824219 624.335938 455.105469 626.566406 452.039062 626.609375 C 448.105469 626.667969 443.960938 621.820312 444.105469 617.65625 C 444.21875 614.46875 446.0625 612.816406 448.394531 611.652344 C 451.085938 611.8125 456.222656 618.847656 456 621.921875 Z M 471.121094 609.992188 C 471.609375 613.695312 469.089844 614.59375 466.121094 614.410156 C 461.101562 614.628906 460.699219 611.453125 460.710938 607.765625 C 460.722656 604.601562 461.566406 602.382812 465.257812 602.550781 C 470.046875 602.773438 470.667969 606.523438 471.121094 609.992188 Z M 603.546875 541.367188 C 600.972656 545.683594 600.21875 550.773438 595.632812 553.378906 C 594.699219 553.910156 593.550781 554.519531 592.800781 553.65625 C 592.230469 553 591.921875 551.609375 592.210938 550.804688 C 593.710938 546.675781 595.621094 542.765625 599.332031 540.054688 C 600.242188 539.390625 601.074219 538.804688 602.082031 539.636719 C 602.660156 540.109375 603.070312 540.789062 603.546875 541.367188 Z M 620.28125 516.347656 C 619.089844 516.222656 617.238281 516.367188 617.796875 514.558594 C 619.007812 510.621094 620.707031 506.796875 623.882812 504 C 625.628906 502.460938 627.027344 503.65625 627.789062 505.371094 C 629.367188 508.925781 624.121094 516.519531 620.28125 516.347656 Z M 486.296875 596.761719 C 486.566406 600.246094 485.308594 603.261719 482.527344 603.378906 C 479.753906 603.492188 477.164062 601.425781 477.320312 597.664062 C 477.457031 594.3125 479.398438 593.496094 482.28125 593.492188 C 484.863281 593.484375 487.15625 593.613281 486.296875 596.761719 Z M 614.585938 546.90625 C 614.710938 549.191406 605.644531 558.601562 603.96875 558.371094 C 602.132812 558.117188 601.992188 556.375 602.597656 555.523438 C 605.007812 552.128906 607.515625 548.738281 610.453125 545.816406 C 611.683594 544.597656 614.097656 544.511719 614.585938 546.90625 Z M 649.933594 474.207031 C 649.148438 477.902344 647.980469 481.585938 643.21875 481.871094 C 641.746094 481.957031 639.832031 481.832031 640.664062 479.609375 C 642.101562 475.773438 643.238281 471.589844 647.847656 469.8125 C 649.738281 470.652344 650.300781 472.492188 649.933594 474.207031 Z M 586.535156 548.050781 C 585.003906 548.015625 584.308594 547.5625 584.714844 545.75 C 585.6875 541.433594 588.375 538.417969 591.636719 535.726562 C 593.234375 534.40625 594.015625 535.738281 594.453125 536.746094 C 595.746094 539.730469 589.746094 548.152344 586.535156 548.050781 Z M 659.152344 480.496094 C 657.96875 483.863281 657.625 488.011719 653.804688 489.234375 C 651.71875 489.347656 650.867188 488.765625 650.738281 487.148438 C 650.535156 484.664062 654.96875 477.261719 656.75 477.382812 C 658.621094 477.511719 659.507812 479.496094 659.152344 480.496094 Z M 573.765625 571.121094 C 571.328125 575.519531 569.410156 580.242188 565.777344 583.691406 C 564.292969 585.101562 562.796875 583.5 563.261719 581.757812 C 564.539062 576.988281 567.6875 573.285156 571.140625 569.9375 C 572.109375 569 573.539062 569.339844 573.765625 571.121094 Z M 579.238281 588.734375 C 582.027344 585.871094 584.828125 583.027344 588.324219 579.457031 C 588.703125 584.273438 583.300781 592.75 580.269531 593.246094 C 579.761719 593.328125 578.871094 593.148438 578.695312 592.808594 C 577.96875 591.390625 578.058594 589.949219 579.238281 588.734375 Z M 620.375 500.414062 C 620.394531 503.414062 615.347656 510.234375 613.089844 510.074219 C 611.210938 509.945312 611.238281 508.492188 611.5 507.300781 C 612.355469 503.371094 613.714844 499.71875 617.394531 498.203125 C 619.46875 498.21875 620.359375 498.710938 620.375 500.414062 Z M 685.03125 450.550781 C 684.585938 454.042969 682.566406 456.710938 678.589844 457.496094 C 677.070312 457.796875 676.097656 456.617188 676.421875 455.164062 C 677.285156 451.304688 679.554688 447.972656 682.996094 446.445312 C 684.972656 445.566406 684.816406 448.496094 685.03125 450.550781 Z M 673.425781 444.332031 C 673.34375 446.6875 669.1875 451.382812 666.945312 451.351562 C 665.261719 451.21875 664.730469 449.808594 665.09375 448.304688 C 665.890625 445.046875 666.953125 441.757812 670.941406 441.117188 C 673.441406 440.71875 673.480469 442.582031 673.425781 444.332031 Z M 643.1875 465.144531 C 640.769531 467.75 641.75 473.375 636.222656 474.105469 C 634.546875 474.324219 634.160156 473.050781 634.175781 471.628906 C 634.210938 469.015625 639.945312 462.066406 641.886719 462.296875 C 643.417969 462.476562 643.214844 463.613281 643.1875 465.144531 Z M 580.761719 577.175781 C 581.476562 579.6875 575.445312 587.511719 572.917969 587.429688 C 571.730469 587.449219 570.886719 587.027344 570.800781 585.710938 C 570.714844 584.347656 577.246094 575.402344 578.347656 575.476562 C 579.433594 575.546875 580.4375 576.039062 580.761719 577.175781 Z M 519.453125 494.84375 C 519.199219 496.433594 518.582031 499.488281 515.746094 499.207031 C 513.460938 498.984375 511.808594 496.554688 511.902344 493.574219 C 512 490.46875 514.179688 489.613281 516.40625 489.527344 C 519.125 489.421875 519.59375 491.664062 519.453125 494.84375 Z M 550.96875 607.601562 C 548.886719 611.273438 547.121094 615.238281 542.878906 618.332031 C 542.066406 612.539062 545.429688 609.339844 547.304688 605.625 C 547.753906 604.734375 548.773438 604.023438 549.902344 604.933594 C 550.738281 605.601562 551.578125 606.523438 550.96875 607.601562 Z M 635.84375 513.929688 C 635.957031 517.484375 634.035156 519.785156 631.125 520.976562 C 628.902344 521.078125 627.523438 520.027344 628.183594 518.386719 C 629.390625 515.398438 630.058594 511.5625 633.84375 510.691406 C 635.898438 510.214844 635.800781 512.640625 635.84375 513.929688 Z M 533.152344 643.074219 C 531.042969 645.152344 531.675781 649.757812 527.46875 650.648438 C 525.875 650.984375 525.253906 649.042969 525.765625 648.023438 C 527.273438 645.019531 527.296875 640.886719 530.890625 639.433594 C 532.105469 638.941406 533.144531 640.933594 533.152344 643.074219 Z M 534.554688 499.304688 C 534.1875 501.597656 533.195312 504.117188 530.574219 504.320312 C 528.003906 504.515625 527.269531 502.328125 527.070312 499.992188 C 526.792969 496.671875 528.964844 496.832031 532.011719 496.972656 C 532.78125 497.039062 534.972656 496.664062 534.554688 499.304688 Z M 665.710938 435.5 C 663.996094 438.636719 663.523438 442.855469 659.828125 443.824219 C 657.917969 443.882812 656.679688 443.417969 657.082031 442.183594 C 658.289062 438.519531 660.542969 435.496094 664.054688 433.75 C 665.304688 433.128906 666.203125 434.597656 665.710938 435.5 Z M 556.917969 611.273438 C 557.136719 612.957031 557.269531 613.570312 557.285156 614.183594 C 557.378906 618.140625 554.222656 619.757812 551.667969 621.757812 C 551.445312 621.929688 550.269531 621.46875 550.15625 621.109375 C 549.007812 617.464844 552.328125 616.109375 554.011719 613.925781 C 554.609375 613.152344 555.46875 612.578125 556.917969 611.273438 Z M 556.917969 611.273438 " fill-opacity="1" fill-rule="nonzero"/></svg>