<svg xmlns="http://www.w3.org/2000/svg" xmlns:xlink="http://www.w3.org/1999/xlink" width="250" zoomAndPan="magnify" viewBox="0 0 187.5 74.999997" height="100" preserveAspectRatio="xMidYMid meet" version="1.0"><defs><clipPath id="7d618b9941"><path d="M 0 0.101562 L 79.6875 0.101562 L 79.6875 74.898438 L 0 74.898438 Z M 0 0.101562 " clip-rule="nonzero"/></clipPath><clipPath id="6b5c10c41a"><path d="M 36 0.101562 L 135.5625 0.101562 L 135.5625 72.40625 L 36 72.40625 Z M 36 0.101562 " clip-rule="nonzero"/></clipPath><clipPath id="23d21e3c0a"><path d="M 59.316406 20.476562 L 120.816406 20.476562 L 120.816406 65.359375 L 59.316406 65.359375 Z M 59.316406 20.476562 " clip-rule="nonzero"/></clipPath><clipPath id="fcc369cadd"><path d="M 82 2.570312 L 181.574219 2.570312 L 181.574219 74.878906 L 82 74.878906 Z M 82 2.570312 " clip-rule="nonzero"/></clipPath><clipPath id="d1ab73a367"><path d="M 110.421875 2.109375 L 187 2.109375 L 187 74.414062 L 110.421875 74.414062 Z M 110.421875 2.109375 " clip-rule="nonzero"/></clipPath></defs><g clip-path="url(#7d618b9941)"><path fill="#ffeadd" d="M 32.039062 0.101562 C 27.0625 0.101562 23.425781 1.292969 19.796875 4.105469 C 18.597656 5.039062 15.828125 7.726562 14.8125 8.941406 L 14.214844 9.660156 L 12.40625 9.050781 C 10.015625 8.246094 8.746094 7.992188 7.042969 7.984375 C 5.851562 7.980469 5.46875 8.035156 4.585938 8.339844 C 3.242188 8.800781 1.816406 9.515625 0.785156 10.25 C -0.847656 11.410156 -2.804688 13.871094 -3.4375 15.5625 C -3.71875 16.320312 -3.761719 16.367188 -4.089844 16.28125 C -6.113281 15.765625 -6.929688 15.71875 -8.78125 16.019531 C -10.355469 16.277344 -11.347656 16.601562 -12.964844 17.398438 C -15.253906 18.523438 -16.933594 20.566406 -17.472656 22.882812 C -17.796875 24.28125 -17.757812 26.460938 -17.375 28.214844 L -17.230469 28.855469 L -17.910156 29.574219 C -20.195312 31.988281 -22.367188 36.84375 -22.890625 40.710938 C -23.292969 43.65625 -22.777344 48.085938 -21.660156 51.28125 C -20.359375 55.003906 -18.734375 58.046875 -17.101562 59.808594 C -15.679688 61.34375 -13.003906 63.007812 -10.75 63.757812 C -9.3125 64.234375 -7.128906 64.578125 -5.535156 64.578125 C -3.015625 64.578125 0.78125 63.800781 3.296875 62.773438 C 3.46875 62.703125 3.585938 62.898438 3.882812 63.730469 C 5.121094 67.222656 6.96875 69.515625 10.226562 71.605469 C 13.71875 73.847656 17.867188 74.8125 21.609375 74.253906 C 25.535156 73.671875 29.71875 71.949219 32.601562 69.730469 L 33.523438 69.023438 L 34.109375 69.742188 C 36.078125 72.160156 39.265625 74.035156 42.574219 74.722656 C 43.203125 74.851562 44.097656 74.898438 45.378906 74.863281 C 47.628906 74.804688 48.582031 74.570312 50.75 73.523438 C 53.175781 72.355469 54.925781 70.96875 56.625 68.875 C 57.394531 67.925781 59.1875 65.3125 59.300781 64.976562 C 59.335938 64.859375 59.539062 64.875 60.054688 65.027344 C 60.441406 65.144531 61.34375 65.308594 62.0625 65.398438 C 63.183594 65.539062 63.597656 65.53125 64.941406 65.335938 C 68.878906 64.769531 71.628906 63.417969 74.246094 60.753906 C 77.015625 57.941406 78.46875 55.136719 79.304688 51.003906 C 79.726562 48.925781 79.761719 44.214844 79.367188 42.414062 C 78.792969 39.777344 77.28125 35.941406 76.003906 33.898438 C 74.4375 31.378906 70.761719 28.289062 68.453125 27.550781 L 67.765625 27.328125 L 67.675781 26.53125 C 67.535156 25.300781 66.972656 23.519531 66.347656 22.34375 C 65.332031 20.421875 62.933594 18.160156 60.675781 16.996094 C 58.273438 15.757812 55.003906 14.875 52.824219 14.875 C 51.933594 14.875 51.757812 14.839844 51.757812 14.660156 C 51.757812 14.542969 51.570312 13.890625 51.347656 13.214844 C 50.585938 10.925781 48.898438 8.382812 46.589844 6.0625 C 44.71875 4.171875 43.265625 3.105469 41.21875 2.109375 C 38.371094 0.722656 35.527344 0.0976562 32.039062 0.101562 Z M 32.039062 0.101562 " fill-opacity="1" fill-rule="nonzero"/></g><g clip-path="url(#6b5c10c41a)"><path fill="#ffeadd" d="M 89.375 0.101562 C 84.5625 0.101562 81.042969 1.25 77.53125 3.972656 C 76.371094 4.875 73.691406 7.472656 72.707031 8.648438 L 72.128906 9.339844 L 70.382812 8.753906 C 68.066406 7.976562 66.835938 7.730469 65.191406 7.722656 C 64.039062 7.71875 63.667969 7.769531 62.8125 8.0625 C 61.511719 8.511719 60.132812 9.203125 59.132812 9.910156 C 57.554688 11.03125 55.664062 13.410156 55.050781 15.046875 C 54.773438 15.78125 54.734375 15.824219 54.417969 15.742188 C 52.460938 15.242188 51.667969 15.199219 49.878906 15.488281 C 48.355469 15.738281 47.394531 16.054688 45.832031 16.820312 C 43.617188 17.90625 41.988281 19.882812 41.46875 22.125 C 41.15625 23.476562 41.195312 25.585938 41.566406 27.277344 L 41.699219 27.898438 L 41.046875 28.589844 C 38.835938 30.925781 36.734375 35.617188 36.222656 39.355469 C 35.835938 42.203125 36.335938 46.488281 37.414062 49.574219 C 38.675781 53.175781 40.25 56.117188 41.828125 57.820312 C 43.203125 59.300781 45.792969 60.910156 47.972656 61.632812 C 49.367188 62.097656 51.476562 62.429688 53.019531 62.429688 C 55.457031 62.429688 59.132812 61.679688 61.566406 60.683594 C 61.730469 60.613281 61.847656 60.804688 62.132812 61.609375 C 63.328125 64.984375 65.117188 67.203125 68.273438 69.222656 C 71.652344 71.386719 75.664062 72.320312 79.285156 71.785156 C 83.085938 71.21875 87.132812 69.554688 89.921875 67.410156 L 90.8125 66.726562 L 91.378906 67.417969 C 93.285156 69.757812 96.367188 71.570312 99.570312 72.234375 C 100.179688 72.359375 101.042969 72.402344 102.285156 72.371094 C 104.460938 72.316406 105.382812 72.085938 107.480469 71.078125 C 109.828125 69.945312 111.523438 68.605469 113.164062 66.585938 C 113.914062 65.664062 115.644531 63.140625 115.753906 62.8125 C 115.792969 62.703125 115.984375 62.714844 116.484375 62.863281 C 116.859375 62.976562 117.734375 63.136719 118.429688 63.222656 C 119.511719 63.359375 119.914062 63.347656 121.210938 63.164062 C 125.023438 62.613281 127.683594 61.304688 130.21875 58.734375 C 132.894531 56.011719 134.304688 53.300781 135.113281 49.308594 C 135.519531 47.296875 135.554688 42.746094 135.171875 41.003906 C 134.617188 38.457031 133.152344 34.746094 131.917969 32.769531 C 130.402344 30.335938 126.84375 27.351562 124.613281 26.636719 L 123.945312 26.421875 L 123.859375 25.648438 C 123.722656 24.460938 123.175781 22.738281 122.574219 21.601562 C 121.59375 19.742188 119.273438 17.558594 117.085938 16.433594 C 114.761719 15.238281 111.597656 14.382812 109.488281 14.382812 C 108.628906 14.382812 108.453125 14.347656 108.453125 14.175781 C 108.453125 14.0625 108.277344 13.433594 108.058594 12.777344 C 107.324219 10.566406 105.6875 8.109375 103.457031 5.863281 C 101.644531 4.035156 100.238281 3.003906 98.261719 2.042969 C 95.503906 0.699219 92.753906 0.0976562 89.375 0.101562 Z M 89.375 0.101562 " fill-opacity="1" fill-rule="nonzero"/></g><g clip-path="url(#23d21e3c0a)"><path fill="#ffeadd" d="M 92.335938 20.476562 C 89.363281 20.480469 87.195312 21.191406 85.03125 22.882812 C 84.3125 23.441406 82.660156 25.054688 82.054688 25.785156 L 81.699219 26.214844 L 80.621094 25.847656 C 79.191406 25.367188 78.433594 25.214844 77.417969 25.210938 C 76.707031 25.207031 76.476562 25.238281 75.953125 25.421875 C 75.148438 25.699219 74.300781 26.128906 73.683594 26.570312 C 72.707031 27.265625 71.542969 28.738281 71.164062 29.753906 C 70.996094 30.210938 70.96875 30.238281 70.773438 30.1875 C 69.566406 29.878906 69.078125 29.851562 67.976562 30.03125 C 67.035156 30.183594 66.441406 30.378906 65.476562 30.855469 C 64.113281 31.53125 63.109375 32.757812 62.789062 34.148438 C 62.59375 34.988281 62.617188 36.296875 62.847656 37.347656 L 62.929688 37.730469 L 62.527344 38.160156 C 61.164062 39.613281 59.867188 42.523438 59.554688 44.84375 C 59.3125 46.609375 59.621094 49.269531 60.289062 51.183594 C 61.0625 53.417969 62.035156 55.246094 63.007812 56.304688 C 63.855469 57.222656 65.453125 58.222656 66.800781 58.671875 C 67.65625 58.957031 68.960938 59.164062 69.914062 59.164062 C 71.414062 59.164062 73.679688 58.699219 75.183594 58.082031 C 75.285156 58.039062 75.355469 58.15625 75.53125 58.65625 C 76.269531 60.75 77.371094 62.125 79.320312 63.382812 C 81.402344 64.726562 83.878906 65.304688 86.113281 64.96875 C 88.453125 64.621094 90.949219 63.585938 92.671875 62.257812 L 93.222656 61.832031 L 93.570312 62.261719 C 94.746094 63.710938 96.648438 64.835938 98.621094 65.25 C 99 65.328125 99.53125 65.355469 100.296875 65.335938 C 101.640625 65.300781 102.207031 65.15625 103.5 64.53125 C 104.949219 63.828125 105.996094 62.996094 107.007812 61.742188 C 107.46875 61.171875 108.535156 59.605469 108.605469 59.402344 C 108.625 59.332031 108.746094 59.34375 109.054688 59.433594 C 109.285156 59.503906 109.824219 59.601562 110.253906 59.65625 C 110.921875 59.742188 111.167969 59.734375 111.96875 59.621094 C 114.320312 59.28125 115.960938 58.46875 117.523438 56.871094 C 119.175781 55.179688 120.042969 53.5 120.542969 51.019531 C 120.796875 49.773438 120.816406 46.945312 120.582031 45.867188 C 120.238281 44.285156 119.335938 41.984375 118.574219 40.757812 C 117.636719 39.246094 115.445312 37.390625 114.066406 36.949219 L 113.65625 36.816406 L 113.601562 36.335938 C 113.519531 35.597656 113.183594 34.53125 112.8125 33.824219 C 112.203125 32.671875 110.773438 31.316406 109.425781 30.617188 C 107.992188 29.875 106.042969 29.34375 104.738281 29.34375 C 104.207031 29.34375 104.101562 29.320312 104.101562 29.214844 C 104.101562 29.144531 103.992188 28.753906 103.859375 28.347656 C 103.402344 26.972656 102.394531 25.449219 101.019531 24.054688 C 99.902344 22.921875 99.035156 22.28125 97.816406 21.683594 C 96.113281 20.851562 94.417969 20.476562 92.335938 20.476562 Z M 92.335938 20.476562 " fill-opacity="1" fill-rule="nonzero"/></g><g clip-path="url(#fcc369cadd)"><path fill="#ffeadd" d="M 135.386719 2.570312 C 130.570312 2.570312 127.054688 3.722656 123.542969 6.445312 C 122.378906 7.34375 119.699219 9.941406 118.71875 11.117188 L 118.140625 11.8125 L 116.390625 11.222656 C 114.078125 10.445312 112.847656 10.203125 111.199219 10.195312 C 110.046875 10.1875 109.675781 10.242188 108.824219 10.535156 C 107.519531 10.980469 106.144531 11.671875 105.144531 12.382812 C 103.5625 13.503906 101.671875 15.878906 101.058594 17.515625 C 100.785156 18.25 100.746094 18.296875 100.429688 18.214844 C 98.46875 17.714844 97.679688 17.671875 95.890625 17.960938 C 94.367188 18.207031 93.402344 18.523438 91.839844 19.289062 C 89.625 20.378906 88 22.355469 87.480469 24.59375 C 87.164062 25.945312 87.203125 28.054688 87.574219 29.746094 L 87.710938 30.367188 L 87.054688 31.058594 C 84.84375 33.398438 82.742188 38.089844 82.234375 41.828125 C 81.847656 44.671875 82.34375 48.957031 83.425781 52.042969 C 84.683594 55.644531 86.257812 58.585938 87.835938 60.289062 C 89.210938 61.773438 91.800781 63.378906 93.984375 64.105469 C 95.375 64.566406 97.488281 64.898438 99.03125 64.898438 C 101.464844 64.898438 105.140625 64.148438 107.574219 63.152344 C 107.742188 63.085938 107.855469 63.273438 108.140625 64.082031 C 109.339844 67.457031 111.125 69.671875 114.28125 71.695312 C 117.660156 73.859375 121.675781 74.792969 125.296875 74.253906 C 129.09375 73.691406 133.140625 72.027344 135.933594 69.882812 L 136.824219 69.195312 L 137.390625 69.890625 C 139.296875 72.226562 142.378906 74.039062 145.582031 74.703125 C 146.191406 74.832031 147.054688 74.875 148.292969 74.84375 C 150.472656 74.785156 151.394531 74.554688 153.492188 73.546875 C 155.839844 72.414062 157.535156 71.078125 159.175781 69.054688 C 159.921875 68.132812 161.65625 65.609375 161.765625 65.285156 C 161.800781 65.171875 161.996094 65.1875 162.496094 65.335938 C 162.867188 65.445312 163.746094 65.605469 164.441406 65.695312 C 165.523438 65.828125 165.921875 65.820312 167.222656 65.632812 C 171.035156 65.085938 173.695312 63.777344 176.226562 61.203125 C 178.90625 58.484375 180.316406 55.773438 181.125 51.777344 C 181.53125 49.769531 181.5625 45.214844 181.183594 43.472656 C 180.628906 40.925781 179.164062 37.21875 177.929688 35.242188 C 176.410156 32.808594 172.855469 29.820312 170.625 29.105469 L 169.957031 28.890625 L 169.867188 28.117188 C 169.734375 26.933594 169.1875 25.207031 168.585938 24.070312 C 167.601562 22.214844 165.28125 20.027344 163.097656 18.902344 C 160.773438 17.707031 157.609375 16.855469 155.496094 16.855469 C 154.636719 16.855469 154.464844 16.820312 154.464844 16.644531 C 154.464844 16.53125 154.289062 15.902344 154.070312 15.25 C 153.332031 13.035156 151.699219 10.578125 149.46875 8.332031 C 147.65625 6.507812 146.25 5.472656 144.269531 4.511719 C 141.511719 3.171875 138.761719 2.570312 135.386719 2.570312 Z M 135.386719 2.570312 " fill-opacity="1" fill-rule="nonzero"/></g><g clip-path="url(#d1ab73a367)"><path fill="#ffeadd" d="M 163.96875 2.109375 C 159.152344 2.109375 155.636719 3.261719 152.125 5.980469 C 150.964844 6.882812 148.28125 9.480469 147.300781 10.65625 L 146.722656 11.347656 L 144.972656 10.761719 C 142.660156 9.984375 141.429688 9.738281 139.78125 9.730469 C 138.632812 9.726562 138.257812 9.78125 137.40625 10.070312 C 136.105469 10.519531 134.726562 11.210938 133.726562 11.921875 C 132.144531 13.039062 130.253906 15.417969 129.640625 17.054688 C 129.367188 17.789062 129.328125 17.832031 129.011719 17.753906 C 127.050781 17.253906 126.261719 17.207031 124.472656 17.5 C 122.949219 17.746094 121.984375 18.0625 120.421875 18.828125 C 118.207031 19.914062 116.582031 21.890625 116.058594 24.132812 C 115.746094 25.484375 115.785156 27.59375 116.15625 29.285156 L 116.292969 29.90625 L 115.636719 30.597656 C 113.425781 32.933594 111.324219 37.625 110.816406 41.367188 C 110.425781 44.210938 110.925781 48.496094 112.007812 51.582031 C 113.265625 55.183594 114.839844 58.125 116.417969 59.828125 C 117.792969 61.3125 120.382812 62.917969 122.566406 63.644531 C 123.957031 64.105469 126.070312 64.4375 127.613281 64.4375 C 130.046875 64.4375 133.722656 63.6875 136.15625 62.691406 C 136.324219 62.625 136.4375 62.8125 136.722656 63.621094 C 137.921875 66.996094 139.710938 69.210938 142.863281 71.230469 C 146.242188 73.398438 150.257812 74.328125 153.878906 73.792969 C 157.679688 73.226562 161.726562 71.5625 164.515625 69.417969 L 165.40625 68.734375 L 165.972656 69.429688 C 167.878906 71.765625 170.960938 73.578125 174.164062 74.242188 C 174.773438 74.367188 175.636719 74.414062 176.878906 74.378906 C 179.054688 74.324219 179.976562 74.09375 182.074219 73.085938 C 184.421875 71.953125 186.117188 70.613281 187.757812 68.59375 C 188.507812 67.671875 190.238281 65.148438 190.347656 64.820312 C 190.386719 64.710938 190.578125 64.722656 191.078125 64.871094 C 191.453125 64.984375 192.328125 65.144531 193.023438 65.230469 C 194.105469 65.367188 194.507812 65.359375 195.808594 65.171875 C 199.617188 64.625 202.28125 63.316406 204.8125 60.742188 C 207.492188 58.019531 208.898438 55.308594 209.707031 51.316406 C 210.117188 49.304688 210.148438 44.753906 209.769531 43.011719 C 209.214844 40.464844 207.746094 36.753906 206.515625 34.78125 C 204.996094 32.34375 201.441406 29.359375 199.207031 28.644531 L 198.539062 28.429688 L 198.453125 27.65625 C 198.320312 26.472656 197.773438 24.746094 197.171875 23.609375 C 196.1875 21.75 193.867188 19.566406 191.679688 18.441406 C 189.355469 17.246094 186.195312 16.390625 184.082031 16.390625 C 183.222656 16.390625 183.050781 16.355469 183.050781 16.183594 C 183.050781 16.070312 182.871094 15.441406 182.652344 14.789062 C 181.917969 12.574219 180.28125 10.117188 178.050781 7.871094 C 176.238281 6.046875 174.832031 5.011719 172.855469 4.050781 C 170.097656 2.707031 167.34375 2.109375 163.96875 2.109375 Z M 163.96875 2.109375 " fill-opacity="1" fill-rule="nonzero"/></g></svg>