<svg xmlns="http://www.w3.org/2000/svg" xmlns:xlink="http://www.w3.org/1999/xlink" width="1080" zoomAndPan="magnify" viewBox="0 0 810 809.999993" height="1080" preserveAspectRatio="xMidYMid meet" version="1.0"><path fill="#283d5b" d="M 548.015625 366.082031 C 542.953125 354.691406 537.730469 343.140625 537.730469 330.328125 C 537.730469 319.570312 542.636719 310.710938 543.742188 300.425781 C 544.21875 296.3125 544.058594 293.625 539.628906 292.515625 C 535.199219 291.566406 531.085938 291.726562 526.816406 293.148438 C 518.429688 295.839844 508.78125 301.21875 503.085938 308.496094 C 502.769531 314.03125 496.597656 319.253906 490.902344 314.824219 C 470.8125 299.320312 440.910156 298.84375 416.707031 299.792969 C 393.925781 300.742188 369.5625 303.433594 347.886719 310.867188 C 346.621094 311.34375 345.199219 311.5 344.089844 311.34375 C 342.191406 311.34375 340.136719 310.550781 338.394531 308.96875 C 332.382812 303.117188 326.214844 297.421875 319.570312 292.359375 C 312.609375 287.136719 303.589844 280.019531 294.574219 279.542969 C 276.855469 278.59375 288.085938 310.867188 292.199219 325.265625 C 295.523438 327.480469 297.261719 331.910156 294.574219 336.179688 C 286.980469 347.570312 273.214844 356.429688 268.46875 369.71875 C 263.882812 382.691406 264.355469 396.140625 267.519531 409.429688 C 270.210938 421.453125 274.957031 432.210938 282.550781 442.019531 C 288.402344 449.613281 298.210938 461.953125 309.285156 459.894531 C 311.660156 459.421875 313.714844 460.054688 315.296875 461.160156 C 335.546875 464.167969 352.160156 480.144531 356.90625 500.078125 C 362.285156 523.175781 349.152344 543.269531 327.164062 550.863281 C 304.066406 558.929688 282.707031 551.496094 271.792969 529.664062 C 268.152344 522.542969 266.097656 514.160156 261.507812 507.515625 C 258.503906 503.242188 254.707031 501.503906 250.277344 501.1875 C 253.757812 518.273438 251.859375 537.414062 265.148438 550.386719 C 280.175781 564.941406 300.742188 561.460938 319.726562 563.042969 C 333.964844 564.308594 344.40625 572.0625 341.558594 587.566406 C 339.820312 597.375 335.863281 607.023438 332.542969 616.515625 C 329.21875 626.167969 328.585938 634.394531 328.429688 644.203125 C 330.800781 644.519531 333.332031 644.992188 335.707031 645.308594 C 382.21875 651.164062 429.363281 643.570312 472.394531 625.535156 C 471.445312 623.160156 471.445312 620.3125 473.5 617.625 C 476.347656 613.828125 476.191406 607.339844 476.03125 602.910156 C 475.714844 595.316406 474.609375 587.566406 472.710938 580.128906 C 469.703125 567.789062 466.222656 554.183594 459.105469 543.585938 C 450.71875 530.929688 438.695312 518.90625 436.640625 503.242188 C 434.898438 489.953125 442.019531 469.230469 457.363281 467.804688 C 459.261719 467.648438 461.003906 468.121094 462.269531 468.914062 C 477.140625 467.015625 492.328125 464.484375 506.40625 459.261719 C 519.855469 454.199219 530.769531 447.238281 540.738281 436.957031 C 549.28125 428.097656 556.398438 417.023438 557.191406 404.523438 C 557.980469 390.601562 553.550781 378.265625 548.015625 366.082031 Z M 548.015625 366.082031 " fill-opacity="1" fill-rule="nonzero"/><path fill="#d6e5e5" d="M 642.144531 352.320312 C 624.742188 274.800781 561.460938 212.464844 486.472656 189.210938 C 451.035156 178.296875 413.226562 174.5 376.683594 181.144531 C 344.25 186.996094 314.824219 201.550781 287.457031 219.585938 C 258.1875 239.046875 230.34375 262.300781 209.460938 290.933594 C 194.75 311.1875 183.042969 335.707031 183.832031 360.859375 C 183.832031 361.019531 183.675781 361.335938 183.675781 361.492188 C 183.199219 370.351562 182.25 379.054688 181.460938 387.914062 C 180.667969 388.230469 180.035156 388.386719 179.246094 388.546875 C 178.296875 398.988281 176.714844 409.585938 176.398438 420.1875 C 176.082031 431.261719 176.082031 442.335938 176.714844 453.566406 C 177.820312 475.398438 180.667969 497.230469 186.519531 518.273438 C 195.378906 549.597656 210.25 579.8125 234.457031 602.121094 C 256.445312 622.371094 283.65625 634.710938 312.292969 641.195312 L 312.292969 640.089844 C 312.292969 639.773438 312.292969 639.296875 312.292969 638.980469 C 312.449219 631.230469 313.082031 623.953125 315.773438 616.042969 C 318.9375 606.234375 323.367188 596.265625 325.265625 586.140625 C 326.214844 580.761719 326.214844 579.972656 320.835938 579.179688 C 312.765625 578.074219 304.382812 578.707031 296.15625 578.230469 C 286.503906 577.597656 276.539062 576.175781 267.835938 571.902344 C 258.976562 567.472656 253.125 561.460938 247.113281 553.710938 C 234.457031 537.257812 239.203125 515.742188 231.925781 497.390625 C 230.5 493.75 232.714844 488.214844 236.828125 487.265625 C 252.808594 483.625 267.835938 486.632812 275.90625 502.136719 C 282.074219 513.683594 285.398438 531.878906 299.003906 537.257812 C 316.40625 544.058594 342.984375 530.296875 341.71875 510.046875 C 340.609375 492.167969 326.847656 478.089844 309.128906 476.347656 C 308.335938 476.347656 307.703125 476.191406 307.070312 475.875 C 293.78125 476.191406 282.074219 466.855469 273.691406 456.890625 C 264.199219 445.65625 256.921875 433 253.125 418.761719 C 248.695312 401.992188 247.269531 385.066406 252.015625 368.296875 C 256.289062 353.265625 268.3125 343.933594 277.488281 332.382812 C 275.273438 317.988281 268.3125 304.382812 268.785156 289.511719 C 269.101562 278.121094 277.171875 264.988281 289.511719 263.882812 C 311.34375 261.984375 331.277344 280.019531 346.464844 294.890625 C 370.035156 287.613281 395.347656 284.605469 419.871094 283.976562 C 443.441406 283.34375 470.96875 284.605469 492.167969 296.632812 C 499.761719 287.929688 511.3125 281.601562 521.910156 278.121094 C 532.984375 274.484375 548.332031 274.800781 555.925781 284.925781 C 563.203125 294.417969 558.613281 307.546875 555.449219 317.671875 C 550.863281 332.542969 556.082031 345.675781 562.253906 359.121094 C 568.738281 373.519531 574.433594 389.339844 572.851562 405.472656 C 571.269531 420.1875 564.941406 433 555.292969 444.074219 C 544.375 456.574219 531.402344 466.539062 515.742188 472.394531 C 498.023438 479.039062 479.671875 482.675781 461.003906 484.890625 C 459.578125 485.050781 458.3125 484.890625 457.207031 484.574219 C 455.625 486.472656 453.410156 490.746094 452.933594 492.328125 C 451.828125 495.492188 451.667969 498.8125 452.300781 502.136719 C 453.726562 509.414062 458.472656 516.058594 462.742188 521.910156 C 470.335938 532.351562 476.980469 542.320312 481.410156 554.660156 C 486.15625 567.949219 489.953125 582.1875 491.21875 596.265625 C 491.851562 603.226562 492.011719 610.503906 490.269531 617.308594 C 515.109375 604.96875 538.046875 588.988281 558.296875 570.164062 C 617.308594 515.269531 660.65625 434.742188 642.144531 352.320312 Z M 642.144531 352.320312 " fill-opacity="1" fill-rule="nonzero"/><path fill="#d6e5e5" d="M 754.945312 272.269531 C 721.25 203.609375 657.492188 149.660156 590.097656 115.648438 C 522.542969 81.316406 444.234375 63.28125 368.453125 75.304688 C 243.632812 94.921875 122.765625 186.523438 87.011719 309.289062 C 87.011719 310.710938 86.695312 311.976562 85.902344 313.402344 C 85.269531 315.617188 84.636719 317.988281 84.164062 320.203125 C 83.375 321.785156 82.582031 323.367188 81.949219 325.109375 C 81.792969 326.53125 81.472656 328.113281 81.316406 329.378906 C 79.890625 335.867188 78.152344 342.351562 77.042969 348.839844 C 74.828125 361.019531 75.304688 373.675781 71.03125 385.226562 C 70.714844 388.546875 70.242188 391.871094 69.765625 395.191406 C 69.765625 395.667969 69.765625 395.984375 69.765625 396.300781 C 68.976562 403.261719 68.34375 410.222656 67.710938 417.183594 C 66.445312 431.738281 65.8125 446.292969 65.972656 460.847656 C 66.445312 489.480469 69.769531 518.117188 76.886719 545.800781 C 90.652344 598.484375 117.230469 648.316406 159.152344 683.914062 C 187.945312 708.433594 221.644531 724.570312 257.871094 735.011719 C 297.421875 746.5625 338.554688 753.046875 379.847656 753.207031 C 461.320312 753.363281 543.109375 731.214844 610.1875 684.070312 C 734.21875 596.742188 827.71875 420.1875 754.945312 272.269531 Z M 392.816406 661.761719 C 319.730469 668.40625 239.519531 647.207031 197.914062 582.503906 C 179.878906 554.5 169.4375 522.226562 164.53125 489.480469 C 162 472.394531 160.578125 455.148438 160.578125 437.90625 C 160.578125 428.886719 160.734375 419.871094 161.210938 410.851562 C 161.84375 400.886719 163.742188 391.078125 164.058594 381.269531 C 164.214844 377.472656 166.589844 374.78125 169.59375 373.675781 C 164.058594 340.136719 177.664062 307.386719 197.753906 280.335938 C 221.484375 248.21875 253.441406 221.800781 287.296875 200.917969 C 315.296875 183.671875 345.042969 170.066406 377.789062 164.847656 C 414.175781 158.992188 452.300781 162 487.582031 172.914062 C 561.304688 195.855469 626.960938 251.382812 651.480469 326.214844 C 704.636719 488.214844 547.699219 647.683594 392.816406 661.761719 Z M 392.816406 661.761719 " fill-opacity="1" fill-rule="nonzero"/><path fill="#000000" d="M 360.703125 60.59375 C 347.097656 62.964844 333.648438 66.128906 320.359375 69.925781 L 516.847656 69.925781 C 466.066406 55.847656 412.59375 51.574219 360.703125 60.59375 Z M 360.703125 60.59375 " fill-opacity="1" fill-rule="nonzero"/><path fill="#000000" d="M 754.46875 239.203125 C 714.601562 175.289062 650.214844 125.929688 582.503906 94.289062 C 561.304688 84.480469 539.316406 76.253906 516.691406 69.925781 L 320.359375 69.925781 C 206.296875 103.308594 103.78125 192.058594 71.347656 306.753906 C 66.128906 315.457031 65.335938 327.480469 63.121094 337.128906 C 61.539062 343.933594 60.433594 350.894531 59.484375 357.855469 C 59.328125 358.488281 59.328125 359.277344 59.167969 359.914062 C 59.007812 360.386719 58.851562 360.703125 58.851562 361.179688 C 57.585938 367.824219 56.476562 374.46875 55.527344 381.113281 C 55.527344 381.269531 55.371094 381.269531 55.371094 381.429688 C 54.582031 383.328125 54.421875 385.066406 54.738281 386.492188 C 53.15625 399.304688 52.046875 412.121094 51.097656 424.933594 C 49.835938 442.96875 49.675781 461.160156 50.625 479.195312 C 52.679688 514.476562 59.484375 549.597656 71.664062 582.820312 C 95.871094 648.949219 143.648438 703.84375 207.878906 733.589844 C 244.421875 750.359375 285.082031 760.007812 324.789062 765.230469 C 365.132812 770.449219 406.265625 770.132812 446.605469 764.28125 C 527.132812 752.574219 602.4375 717.292969 661.921875 661.761719 C 719.507812 608.132812 764.753906 538.996094 785.476562 462.742188 C 806.359375 386.964844 796.394531 306.28125 754.46875 239.203125 Z M 610.03125 684.226562 C 542.953125 731.371094 461.160156 753.519531 379.6875 753.363281 C 338.554688 753.207031 297.421875 746.71875 257.871094 735.171875 C 221.644531 724.570312 187.945312 708.59375 159.152344 684.070312 C 117.226562 648.476562 90.648438 598.640625 76.886719 545.960938 C 69.609375 518.273438 66.445312 489.640625 65.96875 461.003906 C 65.652344 446.449219 66.285156 431.894531 67.710938 417.339844 C 68.34375 410.378906 68.976562 403.417969 69.765625 396.457031 C 69.765625 396.140625 69.765625 395.667969 69.765625 395.351562 C 70.242188 392.027344 70.714844 388.707031 71.03125 385.382812 C 75.304688 373.835938 74.828125 361.019531 77.042969 348.996094 C 78.308594 342.511719 79.890625 336.023438 81.316406 329.539062 C 81.632812 328.273438 81.789062 326.847656 81.949219 325.265625 C 82.582031 323.683594 83.371094 321.945312 84.164062 320.363281 C 84.796875 318.148438 85.269531 315.773438 85.902344 313.558594 C 86.695312 312.136719 87.167969 310.710938 87.011719 309.445312 C 122.765625 186.523438 243.632812 94.921875 368.453125 75.304688 C 444.234375 63.28125 522.386719 81.316406 590.097656 115.648438 C 657.492188 149.660156 721.089844 203.765625 754.945312 272.269531 C 827.71875 420.1875 734.21875 596.742188 610.03125 684.226562 Z M 610.03125 684.226562 " fill-opacity="1" fill-rule="nonzero"/><path fill="#010101" d="M 651.320312 326.375 C 626.640625 251.542969 561.144531 196.015625 487.421875 173.074219 C 452.144531 162.160156 414.175781 159.152344 377.632812 165.007812 C 344.882812 170.226562 315.140625 183.675781 287.140625 201.078125 C 253.285156 221.960938 221.484375 248.539062 197.597656 280.496094 C 177.503906 307.546875 163.898438 340.296875 169.4375 373.835938 C 166.589844 374.941406 164.058594 377.472656 163.898438 381.429688 C 163.582031 391.238281 161.527344 401.203125 161.050781 411.011719 C 160.578125 420.03125 160.417969 429.046875 160.417969 438.066406 C 160.578125 455.308594 161.84375 472.554688 164.375 489.640625 C 169.277344 522.386719 179.71875 554.660156 197.753906 582.664062 C 239.363281 647.210938 319.570312 668.410156 392.660156 661.921875 C 547.699219 647.683594 704.636719 488.214844 651.320312 326.375 Z M 473.34375 617.464844 C 471.289062 620.15625 471.289062 623.003906 472.234375 625.375 C 429.203125 643.410156 382.058594 651.003906 335.550781 645.152344 C 333.175781 644.835938 330.644531 644.519531 328.269531 644.042969 C 328.429688 634.234375 329.0625 626.007812 332.386719 616.359375 C 335.550781 606.867188 339.503906 597.214844 341.402344 587.40625 C 344.25 571.902344 333.652344 564.152344 319.570312 562.886719 C 300.425781 561.304688 280.019531 564.625 264.988281 550.230469 C 251.542969 537.414062 253.597656 518.113281 250.121094 501.027344 C 254.550781 501.1875 258.34375 502.925781 261.351562 507.355469 C 265.941406 514 268.15625 522.226562 271.636719 529.503906 C 282.550781 551.496094 303.910156 558.773438 327.007812 550.703125 C 348.839844 543.109375 362.128906 523.019531 356.75 499.921875 C 352.003906 479.988281 335.390625 464.007812 315.140625 461.003906 C 313.558594 459.894531 311.660156 459.261719 309.128906 459.738281 C 298.054688 461.792969 288.402344 449.453125 282.394531 441.859375 C 274.800781 432.050781 270.210938 421.292969 267.363281 409.269531 C 264.359375 395.980469 263.726562 382.535156 268.3125 369.5625 C 273.058594 356.273438 286.824219 347.570312 294.417969 336.023438 C 297.265625 331.75 295.367188 327.320312 292.042969 325.105469 C 287.929688 310.550781 276.699219 278.4375 294.417969 279.386719 C 303.59375 279.859375 312.609375 286.980469 319.414062 292.203125 C 326.058594 297.261719 332.386719 302.960938 338.238281 308.8125 C 339.980469 310.554688 341.878906 311.1875 343.933594 311.1875 C 345.199219 311.34375 346.464844 311.1875 347.730469 310.710938 C 369.40625 303.277344 393.769531 300.425781 416.550781 299.636719 C 440.753906 298.6875 470.65625 299.160156 490.746094 314.664062 C 496.441406 319.097656 502.609375 313.875 502.929688 308.335938 C 508.625 301.058594 518.117188 295.679688 526.660156 292.992188 C 531.085938 291.570312 535.042969 291.410156 539.472656 292.359375 C 544.0625 293.308594 544.0625 296.15625 543.585938 300.269531 C 542.480469 310.554688 537.574219 319.414062 537.574219 330.171875 C 537.574219 342.828125 542.636719 354.53125 547.859375 365.925781 C 553.394531 378.105469 557.824219 390.605469 556.875 404.050781 C 556.085938 416.707031 548.964844 427.625 540.421875 436.484375 C 530.457031 446.765625 519.539062 453.886719 506.09375 458.789062 C 492.011719 464.011719 476.824219 466.699219 461.953125 468.441406 C 460.6875 467.648438 459.105469 467.175781 457.050781 467.332031 C 441.703125 468.757812 434.585938 489.480469 436.324219 502.769531 C 438.382812 518.433594 450.40625 530.457031 458.789062 543.113281 C 465.910156 553.710938 469.390625 567.316406 472.394531 579.65625 C 474.136719 587.09375 475.242188 594.6875 475.71875 602.4375 C 476.191406 607.183594 476.347656 613.667969 473.34375 617.464844 Z M 558.457031 570.003906 C 538.207031 588.832031 515.109375 604.808594 490.429688 617.148438 C 492.167969 610.347656 492.011719 603.070312 491.378906 596.109375 C 490.113281 582.027344 486.316406 567.789062 481.570312 554.5 C 477.140625 542.164062 470.496094 532.351562 462.902344 521.753906 C 458.628906 515.742188 453.882812 509.253906 452.460938 501.976562 C 451.828125 498.65625 451.984375 495.332031 453.09375 492.167969 C 453.566406 490.585938 455.78125 486.316406 457.363281 484.417969 C 458.472656 484.734375 459.738281 485.050781 461.160156 484.734375 C 479.828125 482.519531 498.179688 478.878906 515.898438 472.234375 C 531.5625 466.382812 544.375 456.414062 555.449219 443.917969 C 565.101562 432.84375 571.589844 420.03125 573.011719 405.316406 C 574.59375 389.179688 568.898438 373.359375 562.410156 358.964844 C 556.398438 345.359375 551.019531 332.386719 555.609375 317.515625 C 558.773438 307.390625 563.359375 294.257812 556.082031 284.765625 C 548.488281 274.640625 533.144531 274.324219 522.070312 277.964844 C 511.46875 281.445312 499.921875 287.773438 492.328125 296.472656 C 471.128906 284.292969 443.601562 283.183594 420.027344 283.816406 C 395.507812 284.449219 370.195312 287.296875 346.625 294.734375 C 331.433594 279.863281 311.503906 261.828125 289.671875 263.726562 C 277.328125 264.832031 269.261719 278.121094 268.945312 289.351562 C 268.46875 304.066406 275.433594 317.828125 277.644531 332.226562 C 268.46875 343.777344 256.449219 353.269531 252.175781 368.140625 C 247.429688 384.910156 248.851562 401.835938 253.28125 418.605469 C 257.078125 432.84375 264.355469 445.5 273.847656 456.734375 C 282.234375 466.699219 293.941406 476.035156 307.230469 475.71875 C 307.863281 475.875 308.496094 476.035156 309.285156 476.191406 C 327.003906 477.933594 340.769531 491.851562 341.878906 509.886719 C 343.144531 529.980469 316.40625 543.742188 299.164062 537.097656 C 285.554688 531.722656 282.074219 513.6875 276.0625 501.976562 C 267.996094 486.472656 252.964844 483.46875 236.988281 487.105469 C 232.875 488.054688 230.660156 493.433594 232.082031 497.230469 C 239.359375 515.582031 234.457031 537.097656 247.269531 553.550781 C 253.285156 561.304688 259.136719 567.316406 267.996094 571.746094 C 276.699219 576.019531 286.664062 577.441406 296.3125 578.074219 C 304.539062 578.546875 312.765625 577.914062 320.996094 579.023438 C 326.371094 579.8125 326.371094 580.605469 325.425781 585.984375 C 323.527344 596.109375 319.097656 606.078125 315.933594 615.882812 C 313.402344 623.792969 312.609375 631.070312 312.453125 638.824219 C 312.453125 639.140625 312.453125 639.613281 312.453125 639.929688 L 312.453125 641.039062 C 283.660156 634.554688 256.605469 622.214844 234.617188 601.960938 C 210.410156 579.65625 195.382812 549.4375 186.679688 518.113281 C 180.828125 497.074219 177.980469 475.242188 176.871094 453.410156 C 176.238281 442.335938 176.238281 431.261719 176.554688 420.03125 C 176.871094 409.429688 178.453125 398.988281 179.402344 388.390625 C 180.195312 388.230469 180.984375 388.074219 181.617188 387.757812 C 182.410156 378.898438 183.359375 370.195312 183.832031 361.335938 C 183.832031 361.179688 183.832031 360.863281 183.992188 360.703125 C 183.199219 335.550781 194.90625 311.1875 209.621094 290.777344 C 230.34375 262.144531 258.1875 238.886719 287.613281 219.429688 C 314.824219 201.394531 344.410156 186.839844 376.839844 180.984375 C 413.542969 174.339844 451.195312 178.136719 486.632812 189.054688 C 561.621094 212.308594 624.902344 274.640625 642.304688 352.160156 C 660.65625 434.742188 617.308594 515.269531 558.457031 570.003906 Z M 558.457031 570.003906 " fill-opacity="1" fill-rule="nonzero"/></svg>