<svg xmlns="http://www.w3.org/2000/svg" xmlns:xlink="http://www.w3.org/1999/xlink" width="1080" zoomAndPan="magnify" viewBox="0 0 810 809.999993" height="1080" preserveAspectRatio="xMidYMid meet" version="1.0"><defs><clipPath id="7949344635"><path d="M 42 38 L 772.5 38 L 772.5 768 L 42 768 Z M 42 38 " clip-rule="nonzero"/></clipPath></defs><path fill="#d6e5e5" d="M 255.808594 172.441406 C 239.511719 165.640625 217.996094 167.539062 202.808594 176.554688 C 194.109375 181.777344 186.199219 189.527344 184.457031 200.128906 C 182.402344 213.417969 188.253906 225.597656 198.378906 234.300781 C 199.960938 235.566406 200.753906 237.148438 201.226562 238.570312 C 214.992188 244.265625 230.335938 249.488281 244.574219 245.214844 C 256.757812 241.417969 267.832031 233.351562 272.101562 221.011719 C 278.273438 202.660156 274.949219 180.351562 255.808594 172.441406 Z M 629.167969 427.464844 C 628.535156 394.71875 626.320312 359.914062 611.449219 330.011719 C 596.734375 300.429688 569.050781 281.285156 536.300781 277.015625 C 505.925781 273.058594 472.863281 280.496094 451.347656 303.277344 C 447.867188 306.914062 443.4375 306.597656 440.273438 304.542969 C 440.273438 304.542969 440.113281 304.542969 440.113281 304.542969 C 434.578125 302.800781 432.046875 298.847656 429.988281 293.785156 C 428.882812 291.09375 427.933594 288.40625 426.667969 285.714844 C 426.351562 285.242188 426.191406 284.925781 426.035156 284.609375 C 425.402344 284.449219 424.609375 284.449219 423.976562 284.292969 C 414.328125 283.660156 404.359375 285.558594 394.710938 285.714844 C 384.585938 285.714844 374.617188 286.03125 364.492188 286.824219 C 359.273438 287.296875 353.894531 287.613281 348.832031 289.039062 C 347.089844 289.511719 345.191406 289.988281 343.453125 290.777344 C 343.136719 291.410156 342.820312 291.886719 342.503906 292.359375 C 343.609375 313.875 348.832031 334.757812 351.996094 355.957031 C 355.792969 380.796875 356.742188 406.421875 358.796875 431.421875 C 361.960938 471.921875 362.753906 512.261719 362.753906 552.761719 C 389.964844 553.078125 417.175781 555.292969 444.226562 556.875 C 444.226562 556.558594 444.226562 556.242188 444.226562 555.769531 C 444.226562 555.769531 444.226562 555.609375 444.226562 555.609375 C 444.070312 555.292969 444.070312 554.976562 443.910156 554.660156 C 442.328125 550.707031 443.753906 547.382812 446.441406 545.328125 C 449.289062 515.902344 449.921875 485.84375 448.972656 456.414062 C 447.867188 425.566406 441.378906 395.191406 441.222656 364.34375 C 441.222656 360.546875 443.121094 357.855469 445.808594 356.433594 C 445.808594 339.980469 464.792969 331.910156 479.507812 329.222656 C 498.332031 325.742188 522.378906 327.480469 535.828125 342.828125 C 545.160156 353.585938 545.160156 371.304688 545.792969 384.75 C 546.585938 403.894531 546.585938 423.195312 548.167969 442.335938 C 549.117188 452.9375 550.222656 463.851562 549.75 474.449219 C 549.273438 483.785156 548.324219 492.960938 548.007812 502.292969 C 547.691406 511.3125 547.535156 520.488281 546.742188 529.507812 C 546.109375 535.515625 544.371094 541.84375 543.261719 547.859375 C 571.421875 547.066406 599.582031 543.746094 627.742188 543.269531 C 628.691406 542.480469 629.640625 542.003906 631.066406 541.847656 C 630.75 504.035156 629.957031 465.75 629.167969 427.464844 Z M 299.945312 512.738281 C 298.996094 496.285156 299.945312 479.832031 299.472656 463.535156 C 298.207031 427.148438 293.933594 390.921875 287.921875 354.851562 C 285.867188 342.035156 284.757812 330.011719 284.285156 317.039062 C 284.125 311.660156 284.601562 301.535156 278.429688 299.003906 C 273.210938 296.789062 266.882812 298.054688 261.503906 298.847656 C 253.433594 299.796875 245.523438 300.902344 237.613281 302.011719 C 223.535156 303.75 209.453125 305.175781 195.214844 305.015625 C 198.539062 341.71875 203.441406 378.265625 205.972656 414.964844 C 209.296875 461.636719 208.820312 508.464844 210.71875 555.292969 C 226.855469 551.65625 245.207031 554.820312 260.871094 555.925781 C 267.671875 556.398438 274.632812 556.558594 281.4375 556.714844 C 285.390625 556.875 289.347656 556.875 293.300781 556.875 C 294.882812 556.875 296.464844 556.714844 298.046875 556.714844 C 298.363281 556.558594 298.679688 556.242188 299.15625 556.082031 C 303.585938 542.320312 300.738281 526.5 299.945312 512.738281 Z M 299.945312 512.738281 " fill-opacity="1" fill-rule="nonzero"/><path fill="#4b7bb2" d="M 756.203125 455.625 C 754.78125 414.492188 748.136719 373.359375 735.320312 334.125 C 710.167969 256.605469 663.496094 185.890625 597.84375 137.003906 C 476.027344 46.355469 279.066406 12.5 161.363281 127.828125 C 106.78125 181.300781 75.300781 258.664062 63.910156 333.332031 C 52.519531 408.320312 59.796875 488.371094 94.757812 556.558594 C 152.503906 669.039062 277.167969 755.417969 404.835938 750.988281 C 406.101562 750.515625 407.527344 750.515625 409.109375 750.832031 C 411.480469 750.671875 413.695312 750.515625 416.070312 750.355469 C 417.808594 750.671875 419.550781 750.832031 421.289062 750.988281 C 422.710938 750.671875 424.292969 750.515625 425.558594 750.355469 C 432.207031 749.722656 438.847656 749.25 445.496094 748.457031 C 457.675781 746.71875 469.699219 742.445312 482.039062 742.761719 C 485.363281 742.128906 488.683594 741.339844 491.847656 740.863281 C 492.324219 740.863281 492.640625 740.707031 492.957031 740.546875 C 499.757812 739.125 506.5625 737.542969 513.363281 735.960938 C 527.601562 732.636719 541.683594 728.683594 555.445312 723.9375 C 582.339844 714.601562 608.601562 702.578125 632.648438 687.074219 C 678.527344 657.648438 717.445312 616.832031 738.328125 565.734375 C 752.722656 530.296875 757.46875 493.277344 756.203125 455.625 Z M 190.472656 163.742188 C 211.988281 150.136719 243.152344 145.863281 266.25 158.046875 C 277.164062 163.742188 286.65625 173.390625 289.820312 185.574219 C 293.460938 199.96875 292.828125 218.320312 286.339844 231.925781 C 278.589844 247.90625 262.769531 259.453125 245.367188 262.617188 C 223.851562 266.574219 203.601562 258.347656 184.144531 249.960938 C 179.398438 247.90625 178.445312 243.472656 179.871094 239.835938 C 160.570312 216.582031 162.941406 181.300781 190.472656 163.742188 Z M 314.34375 563.992188 C 313.710938 565.894531 312.601562 567.15625 311.335938 567.949219 C 306.117188 577.757812 278.113281 573.804688 270.835938 573.484375 C 259.761719 573.167969 248.847656 571.746094 237.773438 571.273438 C 228.121094 570.796875 217.523438 570.320312 208.347656 573.804688 C 207.871094 574.121094 207.398438 574.277344 206.765625 574.4375 C 206.605469 574.4375 206.605469 574.59375 206.449219 574.59375 C 204.074219 575.703125 202.019531 575.542969 200.277344 574.910156 C 196.640625 573.960938 193.792969 571.113281 193.476562 567.160156 C 190.945312 516.058594 192.054688 464.800781 188.097656 413.859375 C 185.25 375.574219 180.027344 337.289062 176.863281 299.003906 C 176.707031 297.105469 177.023438 295.523438 177.816406 294.257812 C 177.972656 290.304688 180.503906 286.980469 185.566406 287.140625 C 205.5 288.089844 225.117188 285.875 244.890625 283.183594 C 257.546875 281.445312 275.425781 276.539062 287.289062 283.816406 C 307.066406 296 300.261719 324.476562 303.585938 344.09375 C 310.390625 384.117188 315.609375 424.460938 316.71875 465.117188 C 317.191406 483.152344 316.558594 501.03125 317.667969 518.90625 C 318.773438 534.09375 319.722656 549.4375 314.34375 563.992188 Z M 640.242188 559.40625 L 638.816406 559.40625 C 637.550781 560.355469 635.96875 560.988281 633.914062 560.988281 C 601.164062 561.148438 568.574219 565.574219 535.828125 565.734375 C 535.511719 565.734375 535.351562 565.734375 535.035156 565.734375 C 532.664062 566.367188 529.972656 565.894531 527.757812 563.679688 C 526.652344 562.570312 525.703125 561.621094 524.59375 560.515625 C 519.847656 555.769531 522.0625 549.28125 526.175781 546.433594 C 526.96875 542.636719 527.917969 538.839844 528.390625 534.886719 C 529.5 526.5 529.972656 518.117188 530.132812 509.730469 C 530.605469 493.753906 532.820312 477.773438 531.871094 461.796875 C 530.921875 445.34375 529.5 429.046875 528.867188 412.59375 C 528.390625 396.457031 528.867188 380.003906 525.859375 364.183594 C 522.695312 347.890625 505.136719 345.042969 490.738281 346.148438 C 483.304688 346.625 475.710938 348.046875 468.90625 351.371094 C 466.535156 352.636719 464.480469 354.058594 463.210938 355.800781 C 462.894531 356.273438 462.738281 357.222656 462.578125 356.90625 C 463.527344 361.335938 461.472656 364.976562 458.308594 366.875 C 458.941406 398.671875 466.21875 429.996094 466.21875 461.953125 C 466.21875 492.804688 466.21875 523.8125 462.894531 554.503906 C 462.738281 555.453125 462.421875 556.402344 461.945312 557.191406 C 462.261719 560.199219 462.261719 563.203125 462.261719 566.210938 C 462.261719 570.480469 459.257812 575.859375 454.195312 575.542969 C 422.554688 573.960938 390.914062 570.957031 359.273438 570.796875 C 358.957031 570.796875 358.480469 570.796875 358.164062 570.796875 C 353.101562 573.804688 345.191406 572.0625 345.191406 564.46875 C 345.191406 520.648438 344.558594 477.300781 341.078125 433.636719 C 339.179688 408.480469 338.390625 383.011719 334.277344 358.171875 C 330.480469 334.757812 324.785156 311.503906 324.46875 287.773438 C 324.46875 283.183594 327.316406 280.335938 330.636719 279.230469 C 336.332031 273.535156 346.773438 272.269531 354.050781 271.320312 C 366.074219 269.738281 378.414062 269.261719 390.4375 269.261719 C 401.988281 269.105469 413.539062 267.207031 425.085938 267.996094 C 431.253906 268.472656 436.949219 270.210938 440.113281 275.90625 C 441.855469 279.070312 443.4375 282.234375 444.703125 285.714844 C 444.703125 285.875 444.859375 286.03125 444.859375 286.191406 C 495.484375 241.734375 584.554688 254.234375 620.308594 311.976562 C 639.925781 343.617188 644.828125 381.585938 645.9375 418.132812 C 646.570312 436.957031 645.9375 455.785156 646.726562 474.769531 C 647.835938 500.238281 647.835938 525.550781 647.835938 551.023438 C 648.308594 554.660156 645.304688 559.40625 640.242188 559.40625 Z M 640.242188 559.40625 " fill-opacity="1" fill-rule="nonzero"/><g clip-path="url(#7949344635)"><path fill="#000000" d="M 763.957031 382.378906 C 756.363281 342.351562 743.230469 303.433594 725.039062 266.890625 C 688.808594 194.117188 631.855469 133.523438 560.507812 94.289062 C 491.53125 56.320312 411.796875 34.964844 332.855469 38.917969 C 254.066406 43.03125 180.664062 77.519531 129.878906 138.429688 C 81.628906 196.332031 54.734375 272.902344 45.875 346.941406 C 36.855469 421.929688 47.296875 501.1875 83.050781 568.265625 C 144.75 684.226562 274.160156 771.875 407.210938 766.335938 C 417.175781 768.550781 428.722656 765.546875 438.691406 764.753906 C 445.652344 764.121094 452.613281 763.015625 459.414062 761.75 C 460.046875 761.589844 460.839844 761.433594 461.472656 761.273438 C 461.945312 761.273438 462.421875 761.273438 462.894531 761.273438 C 469.539062 760.484375 476.34375 759.375 482.988281 758.269531 C 483.144531 758.269531 483.304688 758.269531 483.304688 758.269531 C 485.359375 758.425781 486.941406 758.109375 488.367188 757.160156 C 501.023438 754.628906 513.523438 751.625 526.019531 748.617188 C 543.582031 744.1875 560.824219 738.652344 577.753906 732.007812 C 610.65625 719.191406 641.824219 701.472656 669.667969 679.640625 C 724.882812 635.976562 762.21875 573.488281 770.445312 503.085938 C 775.03125 463.375 771.390625 421.769531 763.957031 382.378906 Z M 738.484375 565.417969 C 717.761719 616.359375 678.683594 657.175781 632.804688 686.757812 C 608.757812 702.261719 582.5 714.285156 555.605469 723.621094 C 541.839844 728.367188 527.761719 732.320312 513.523438 735.644531 C 506.71875 737.226562 499.914062 738.808594 493.113281 740.230469 C 492.796875 740.390625 492.480469 740.546875 492.003906 740.546875 C 488.683594 741.179688 485.359375 741.8125 482.195312 742.445312 C 469.855469 741.972656 457.832031 746.402344 445.652344 748.140625 C 439.007812 749.089844 432.363281 749.40625 425.71875 750.042969 C 424.453125 750.199219 422.871094 750.359375 421.445312 750.671875 C 419.707031 750.515625 417.964844 750.355469 416.226562 750.042969 C 413.851562 750.199219 411.636719 750.359375 409.265625 750.515625 C 407.683594 750.199219 406.257812 750.199219 404.992188 750.671875 C 277.164062 755.101562 152.5 668.726562 94.914062 556.242188 C 59.796875 488.054688 52.519531 408.164062 63.90625 333.175781 C 75.296875 258.503906 106.78125 181.144531 161.359375 127.671875 C 279.066406 12.5 476.183594 46.195312 597.84375 136.847656 C 663.496094 185.730469 710.167969 256.605469 735.320312 333.96875 C 748.136719 373.203125 754.78125 414.332031 756.203125 455.46875 C 757.46875 493.277344 752.722656 530.296875 738.484375 565.417969 Z M 738.484375 565.417969 " fill-opacity="1" fill-rule="nonzero"/></g><path fill="#000000" d="M 317.824219 519.066406 C 316.71875 501.1875 317.347656 483.308594 316.875 465.277344 C 315.765625 424.617188 310.546875 384.277344 303.742188 344.25 C 300.421875 324.632812 307.222656 296.15625 287.449219 283.976562 C 275.582031 276.695312 257.707031 281.601562 245.050781 283.34375 C 225.273438 286.03125 205.65625 288.246094 185.722656 287.296875 C 180.660156 286.980469 178.128906 290.460938 177.972656 294.417969 C 177.339844 295.683594 176.863281 297.265625 177.023438 299.164062 C 180.34375 337.449219 185.40625 375.574219 188.253906 414.019531 C 192.050781 464.960938 191.101562 516.21875 193.632812 567.316406 C 193.792969 571.273438 196.796875 574.117188 200.4375 575.066406 C 202.175781 575.859375 204.234375 575.859375 206.605469 574.75 C 206.765625 574.75 206.765625 574.59375 206.921875 574.59375 C 207.398438 574.433594 208.03125 574.277344 208.503906 573.960938 C 217.679688 570.480469 228.28125 571.113281 237.929688 571.429688 C 249.003906 571.902344 259.921875 573.328125 270.996094 573.644531 C 278.273438 573.800781 306.273438 577.757812 311.496094 568.105469 C 312.761719 567.316406 313.867188 566.050781 314.5 564.152344 C 319.722656 549.4375 318.773438 534.09375 317.824219 519.066406 Z M 298.996094 555.765625 C 298.679688 555.925781 298.207031 556.082031 297.890625 556.398438 C 296.308594 556.558594 294.726562 556.558594 293.144531 556.558594 C 289.1875 556.714844 285.234375 556.558594 281.277344 556.398438 C 274.476562 556.242188 267.515625 556.082031 260.710938 555.609375 C 245.050781 554.5 226.539062 551.335938 210.5625 554.976562 C 208.664062 508.304688 209.140625 461.320312 205.816406 414.648438 C 203.285156 377.945312 198.382812 341.402344 195.058594 304.699219 C 209.296875 304.855469 223.375 303.433594 237.457031 301.691406 C 245.527344 300.742188 253.4375 299.476562 261.347656 298.527344 C 266.722656 297.894531 273.050781 296.628906 278.273438 298.6875 C 284.441406 301.21875 283.96875 311.34375 284.125 316.722656 C 284.601562 329.695312 285.707031 341.71875 287.765625 354.53125 C 293.777344 390.445312 297.890625 426.671875 299.316406 463.21875 C 299.945312 479.671875 299 496.125 299.789062 512.417969 C 300.738281 526.5 303.585938 542.320312 298.996094 555.765625 Z M 647.203125 473.816406 C 646.410156 454.992188 647.042969 436.167969 646.410156 417.183594 C 645.304688 380.636719 640.242188 342.667969 620.78125 311.027344 C 585.027344 253.285156 496.117188 240.785156 445.335938 285.242188 C 445.335938 285.082031 445.175781 284.925781 445.175781 284.765625 C 443.753906 281.441406 442.328125 278.121094 440.589844 274.957031 C 437.425781 269.261719 431.730469 267.523438 425.558594 267.046875 C 414.011719 266.257812 402.460938 268.15625 390.914062 268.3125 C 378.730469 268.472656 366.550781 268.789062 354.527344 270.371094 C 347.40625 271.320312 336.964844 272.742188 331.113281 278.28125 C 327.632812 279.386719 324.785156 282.394531 324.941406 286.824219 C 325.257812 310.710938 330.953125 333.808594 334.75 357.222656 C 338.863281 382.0625 339.496094 407.691406 341.554688 432.683594 C 345.035156 476.351562 345.667969 519.855469 345.667969 563.519531 C 345.667969 571.113281 353.578125 572.855469 358.640625 569.847656 C 358.957031 569.847656 359.273438 569.847656 359.746094 569.847656 C 391.386719 570.007812 423.027344 573.011719 454.667969 574.59375 C 459.574219 574.910156 462.738281 569.53125 462.738281 565.261719 C 462.738281 562.253906 462.738281 559.25 462.421875 556.242188 C 462.894531 555.453125 463.371094 554.5 463.371094 553.550781 C 466.691406 522.859375 466.691406 491.851562 466.691406 461.003906 C 466.691406 429.203125 459.574219 397.722656 458.78125 365.921875 C 461.789062 364.023438 464.003906 360.386719 463.054688 355.957031 C 463.210938 356.273438 463.371094 355.324219 463.6875 354.847656 C 464.953125 353.109375 467.007812 351.683594 469.382812 350.417969 C 476.183594 347.097656 483.621094 345.671875 491.214844 345.199219 C 505.609375 344.089844 523.328125 346.9375 526.335938 363.234375 C 529.339844 379.054688 528.867188 395.507812 529.339844 411.644531 C 529.816406 428.097656 531.238281 444.390625 532.347656 460.84375 C 533.296875 476.824219 531.082031 492.800781 530.605469 508.78125 C 530.289062 517.164062 529.816406 525.550781 528.867188 533.933594 C 528.390625 537.890625 527.441406 541.6875 526.652344 545.484375 C 522.539062 548.332031 520.324219 554.816406 525.070312 559.5625 C 526.175781 560.671875 527.125 561.621094 528.234375 562.726562 C 530.449219 564.941406 533.136719 565.417969 535.511719 564.785156 C 535.828125 564.785156 535.984375 564.785156 536.300781 564.785156 C 569.050781 564.625 601.640625 560.195312 634.386719 560.039062 C 636.445312 560.039062 638.027344 559.40625 639.292969 558.457031 L 640.714844 558.457031 C 645.777344 558.457031 648.785156 553.550781 648.785156 549.121094 C 648.308594 524.761719 648.152344 499.289062 647.203125 473.816406 Z M 627.585938 543.746094 C 599.425781 544.21875 571.265625 547.542969 543.105469 548.332031 C 544.210938 542.164062 545.953125 535.992188 546.585938 529.980469 C 547.375 520.960938 547.695312 511.945312 547.851562 502.769531 C 548.167969 493.433594 549.273438 484.257812 549.589844 474.925781 C 550.066406 464.167969 548.957031 453.410156 548.007812 442.808594 C 546.425781 423.667969 546.425781 404.527344 545.636719 385.226562 C 545.003906 371.777344 545.003906 354.214844 535.671875 343.300781 C 522.222656 327.957031 498.175781 326.214844 479.347656 329.695312 C 464.636719 332.382812 445.652344 340.453125 445.652344 356.90625 C 442.960938 358.328125 441.066406 361.019531 441.066406 364.816406 C 441.222656 395.664062 447.867188 426.039062 448.816406 456.890625 C 449.765625 486.316406 449.289062 516.375 446.285156 545.800781 C 443.753906 547.855469 442.332031 551.019531 443.753906 555.132812 C 443.914062 555.453125 443.914062 555.765625 444.070312 556.082031 C 444.070312 556.082031 444.070312 556.242188 444.070312 556.242188 C 444.070312 556.558594 444.070312 557.035156 444.070312 557.351562 C 416.859375 555.769531 389.808594 553.554688 362.597656 553.238281 C 362.4375 512.738281 361.648438 472.394531 358.640625 431.894531 C 356.742188 406.742188 355.792969 381.269531 351.839844 356.433594 C 348.515625 335.234375 343.453125 314.191406 342.347656 292.835938 C 342.664062 292.359375 343.136719 291.886719 343.296875 291.253906 C 345.035156 290.460938 346.933594 289.988281 348.675781 289.511719 C 353.738281 288.246094 359.117188 287.769531 364.335938 287.296875 C 374.304688 286.347656 384.429688 286.191406 394.554688 286.191406 C 404.363281 286.191406 414.167969 284.132812 423.820312 284.765625 C 424.453125 284.765625 425.242188 284.925781 425.875 285.082031 C 426.035156 285.398438 426.351562 285.714844 426.507812 286.191406 C 427.773438 288.722656 428.722656 291.570312 429.832031 294.257812 C 432.046875 299.480469 434.417969 303.433594 439.957031 305.015625 C 440.113281 305.015625 440.113281 305.015625 440.113281 305.015625 C 443.4375 307.074219 447.867188 307.390625 451.1875 303.75 C 472.703125 280.96875 505.769531 273.535156 536.144531 277.488281 C 568.734375 281.761719 596.417969 300.902344 611.289062 330.488281 C 626.160156 360.386719 628.375 395.035156 629.011719 427.941406 C 629.800781 466.226562 630.59375 504.507812 630.59375 542.636719 C 629.484375 542.476562 628.375 543.109375 627.585938 543.746094 Z M 289.820312 185.730469 C 286.65625 173.390625 277.164062 163.898438 266.25 158.203125 C 243.152344 146.023438 211.984375 150.136719 190.472656 163.898438 C 162.945312 181.460938 160.570312 216.582031 179.714844 240.152344 C 178.289062 243.949219 179.238281 248.222656 183.984375 250.277344 C 203.441406 258.664062 223.695312 266.890625 245.207031 262.933594 C 262.609375 259.609375 278.429688 248.0625 286.183594 232.242188 C 292.828125 218.320312 293.460938 200.128906 289.820312 185.730469 Z M 271.945312 220.851562 C 267.675781 233.351562 256.601562 241.417969 244.417969 245.058594 C 230.179688 249.488281 214.835938 244.265625 201.070312 238.414062 C 200.753906 236.832031 199.804688 235.40625 198.222656 234.140625 C 188.257812 225.597656 182.246094 213.417969 184.300781 199.96875 C 186.042969 189.371094 193.792969 181.777344 202.652344 176.398438 C 217.839844 167.378906 239.355469 165.480469 255.652344 172.285156 C 274.949219 180.351562 278.273438 202.660156 271.945312 220.851562 Z M 271.945312 220.851562 " fill-opacity="1" fill-rule="nonzero"/></svg>