<svg xmlns="http://www.w3.org/2000/svg" xmlns:xlink="http://www.w3.org/1999/xlink" width="250" zoomAndPan="magnify" viewBox="0 0 187.5 74.999997" height="100" preserveAspectRatio="xMidYMid meet" version="1.0"><defs><filter x="0%" y="0%" width="100%" height="100%" id="65460c2eb0"><feColorMatrix values="0 0 0 0 1 0 0 0 0 1 0 0 0 0 1 0 0 0 1 0" color-interpolation-filters="sRGB"/></filter><clipPath id="89eb8b8d63"><path d="M 7.207031 6.648438 L 45.316406 6.648438 L 45.316406 64.90625 L 7.207031 64.90625 Z M 7.207031 6.648438 " clip-rule="nonzero"/></clipPath><clipPath id="886eea8584"><path d="M 10.542969 16.246094 C 11.863281 12.785156 13.34375 13.28125 13.839844 14.433594 C 15.980469 18.058594 10.710938 38.652344 10.710938 47.222656 C 10.875 52.824219 9.554688 58.589844 12.523438 61.058594 C 16.804688 64.519531 35.917969 60.070312 39.378906 59.25 C 40.199219 58.917969 40.53125 58.917969 40.859375 58.425781 C 41.847656 56.941406 42.507812 51.011719 42.011719 48.867188 C 41.683594 47.550781 41.355469 46.5625 40.199219 46.230469 C 37.730469 45.242188 28.503906 49.855469 25.371094 49.527344 C 23.890625 49.363281 22.902344 49.363281 22.078125 48.042969 C 19.277344 43.925781 25.867188 13.445312 21.582031 9.984375 C 19.605469 8.335938 13.511719 12.785156 12.355469 11.796875 C 11.699219 11.304688 12.027344 8.832031 12.355469 8.667969 C 12.6875 8.503906 14.335938 9.328125 14.5 9.820312 C 14.5 10.480469 13.015625 11.960938 12.523438 11.796875 C 12.191406 11.796875 11.699219 9.492188 12.191406 8.667969 C 13.179688 7.347656 18.289062 6.523438 20.59375 6.855469 C 22.242188 7.183594 23.890625 7.515625 24.878906 9.328125 C 27.679688 14.105469 23.066406 41.289062 24.550781 44.914062 C 24.878906 45.738281 25.042969 45.902344 25.867188 46.230469 C 28.007812 46.890625 39.210938 42.441406 42.011719 42.9375 C 43.167969 43.101562 43.660156 43.429688 44.15625 44.253906 C 44.980469 45.242188 45.308594 47.054688 45.308594 48.867188 C 45.308594 52.164062 45.144531 59.082031 42.507812 61.554688 C 39.542969 64.355469 32.621094 63.53125 27.351562 64.027344 C 21.582031 64.355469 12.523438 66.003906 9.390625 63.53125 C 7.25 61.554688 7.742188 57.765625 7.414062 53.976562 C 7.085938 47.714844 8.238281 37.335938 8.898438 30.085938 C 9.390625 24.15625 9.0625 16.082031 10.710938 13.941406 C 11.367188 13.117188 12.6875 12.785156 13.179688 13.117188 C 13.839844 13.445312 14.167969 15.421875 13.839844 16.246094 C 13.675781 16.90625 12.6875 17.894531 12.027344 17.894531 C 11.53125 17.894531 10.542969 16.246094 10.542969 16.246094 " clip-rule="nonzero"/></clipPath><clipPath id="3cd8beaa6a"><path d="M 44.84375 26.3125 L 75.769531 26.3125 L 75.769531 63.183594 L 44.84375 63.183594 Z M 44.84375 26.3125 " clip-rule="nonzero"/></clipPath><clipPath id="a81e67da57"><path d="M 62.113281 30.085938 C 54.207031 31.238281 52.0625 34.863281 50.746094 37.996094 C 49.097656 41.453125 48.109375 46.726562 48.109375 50.1875 C 48.109375 52.988281 48.4375 55.625 49.757812 57.269531 C 50.910156 58.753906 53.050781 59.578125 55.03125 59.90625 C 57.007812 60.402344 59.476562 60.070312 61.621094 59.578125 C 63.925781 58.917969 66.398438 57.601562 68.210938 55.953125 C 70.023438 54.304688 71.503906 51.835938 72.164062 49.691406 C 72.660156 47.714844 72.492188 45.902344 72.164062 44.089844 C 71.835938 41.785156 70.847656 39.3125 69.363281 37.171875 C 67.878906 34.863281 65.410156 31.898438 62.9375 30.910156 C 61.125 30.085938 57.664062 31.734375 56.84375 30.910156 C 56.347656 30.25 56.675781 28.109375 57.171875 27.777344 C 57.5 27.613281 59.3125 28.933594 59.3125 29.425781 C 59.3125 29.921875 57.5 31.074219 57.007812 30.910156 C 56.675781 30.746094 56.347656 28.601562 57.007812 27.945312 C 57.996094 26.957031 62.113281 26.957031 64.421875 27.945312 C 66.890625 28.769531 69.199219 31.402344 71.011719 33.710938 C 72.824219 36.015625 74.636719 38.984375 75.292969 42.113281 C 75.953125 45.078125 75.625 49.363281 74.800781 52 C 74.304688 54.140625 73.316406 55.625 71.835938 57.105469 C 70.023438 58.917969 67.386719 61.058594 64.421875 62.050781 C 60.960938 63.203125 54.699219 63.367188 51.570312 62.378906 C 49.59375 61.71875 48.109375 60.402344 46.957031 59.082031 C 45.96875 57.929688 45.308594 56.777344 44.980469 54.964844 C 44.484375 51.503906 45.472656 43.925781 46.460938 39.972656 C 47.285156 37.171875 48.109375 35.195312 49.425781 33.050781 C 50.910156 30.910156 52.722656 28.273438 55.03125 27.121094 C 57.335938 26.132812 61.785156 26.132812 63.101562 26.957031 C 63.761719 27.449219 64.257812 28.769531 64.089844 29.261719 C 63.925781 29.757812 62.113281 30.085938 62.113281 30.085938 " clip-rule="nonzero"/></clipPath><clipPath id="7a0145be7b"><path d="M 52.453125 35.085938 L 65 35.085938 L 65 50.648438 L 52.453125 50.648438 Z M 52.453125 35.085938 " clip-rule="nonzero"/></clipPath><clipPath id="15848b676c"><path d="M 62.277344 38.324219 C 56.84375 42.113281 55.851562 43.925781 55.851562 44.914062 C 55.851562 45.574219 56.019531 46.230469 56.511719 46.5625 C 57.335938 47.054688 59.644531 47.222656 60.632812 46.5625 C 61.289062 46.066406 61.785156 44.75 61.785156 43.761719 C 61.785156 42.277344 59.3125 39.3125 59.808594 38.324219 C 60.136719 37.664062 61.949219 37.171875 62.445312 37.5 C 62.9375 37.828125 63.101562 39.476562 62.609375 39.972656 C 62.277344 40.300781 60.136719 39.972656 59.972656 39.640625 C 59.808594 39.148438 61.621094 37.335938 62.277344 37.5 C 63.265625 37.664062 65.246094 42.441406 64.914062 44.585938 C 64.585938 46.726562 62.609375 49.199219 60.960938 50.023438 C 59.3125 50.84375 56.675781 50.679688 55.359375 49.855469 C 53.875 48.867188 52.394531 46.230469 52.558594 44.253906 C 52.886719 41.949219 56.019531 38.324219 57.832031 36.839844 C 59.148438 35.851562 61.125 34.863281 61.785156 35.195312 C 62.445312 35.523438 62.277344 38.324219 62.277344 38.324219 " clip-rule="nonzero"/></clipPath><clipPath id="bc06fba684"><path d="M 72.828125 15.679688 L 125 15.679688 L 125 68.390625 L 72.828125 68.390625 Z M 72.828125 15.679688 " clip-rule="nonzero"/></clipPath><clipPath id="d32556f063"><path d="M 93.914062 27.945312 C 87.816406 29.425781 85.34375 32.722656 84.519531 35.523438 C 83.367188 39.148438 84.027344 44.75 85.015625 48.210938 C 85.839844 51.011719 87.15625 53.8125 88.96875 55.292969 C 90.453125 56.613281 92.429688 57.4375 94.242188 57.4375 C 96.382812 57.4375 99.515625 56.449219 100.832031 54.800781 C 102.152344 53.316406 102.808594 50.679688 102.316406 48.539062 C 101.820312 46.066406 96.714844 42.773438 96.382812 40.960938 C 96.21875 40.136719 96.382812 39.476562 97.207031 38.816406 C 99.019531 37.171875 109.894531 34.203125 113.519531 34.371094 C 115.332031 34.371094 116.648438 35.027344 117.800781 36.015625 C 118.957031 37.003906 119.613281 38.160156 120.273438 40.136719 C 122.085938 44.417969 125.875 57.765625 124.558594 61.71875 C 123.898438 63.695312 121.921875 65.015625 120.273438 65.34375 C 118.460938 65.507812 115.496094 64.191406 114.011719 62.707031 C 112.199219 60.894531 111.378906 57.269531 110.882812 54.800781 C 110.386719 52.65625 109.566406 49.363281 110.222656 48.375 C 110.554688 47.878906 111.707031 47.550781 112.035156 47.878906 C 112.859375 48.867188 108.082031 61.390625 104.457031 64.683594 C 101.492188 67.320312 97.042969 68.476562 93.417969 68.144531 C 89.628906 67.980469 85.179688 65.179688 82.378906 62.707031 C 79.742188 60.566406 77.929688 57.4375 76.449219 54.636719 C 75.128906 52.164062 74.140625 50.1875 73.648438 46.890625 C 72.660156 41.453125 72.660156 29.261719 73.976562 24.8125 C 74.472656 22.671875 75.292969 21.683594 76.613281 20.363281 C 77.929688 18.882812 80.238281 17.398438 82.542969 16.574219 C 84.851562 15.917969 88.476562 15.421875 90.617188 16.246094 C 92.757812 17.070312 95.394531 19.046875 95.890625 21.355469 C 96.382812 24.648438 91.113281 33.546875 89.132812 34.699219 C 88.3125 35.027344 87.15625 34.863281 86.664062 34.371094 C 86.332031 34.039062 86.332031 32.722656 86.664062 32.390625 C 87.15625 32.0625 89.132812 32.0625 89.464844 32.558594 C 89.628906 32.886719 88.804688 34.863281 88.3125 35.027344 C 87.816406 35.195312 86.5 34.039062 86.332031 33.050781 C 86.003906 30.910156 93.253906 23 92.101562 21.023438 C 91.277344 19.375 86.003906 19.046875 83.53125 19.707031 C 81.0625 20.53125 78.425781 22.507812 77.105469 25.308594 C 74.964844 29.921875 75.292969 40.796875 76.941406 46.890625 C 78.261719 52.328125 81.554688 57.765625 85.015625 60.730469 C 87.652344 63.203125 91.277344 64.683594 94.078125 64.851562 C 96.382812 65.179688 98.855469 64.355469 100.667969 63.367188 C 102.152344 62.378906 102.972656 61.390625 104.128906 59.578125 C 106.269531 56.449219 108.082031 46.726562 110.058594 45.902344 C 111.046875 45.410156 112.367188 45.902344 113.1875 46.890625 C 114.671875 48.703125 114.179688 56.777344 115.496094 59.25 C 116.320312 60.566406 117.308594 61.554688 118.296875 61.882812 C 119.121094 62.050781 120.601562 61.882812 121.261719 60.894531 C 122.582031 58.589844 119.449219 45.902344 117.472656 41.949219 C 116.320312 39.804688 115.496094 38.324219 113.519531 37.664062 C 110.554688 36.675781 100.667969 38.652344 100.007812 40.300781 C 99.679688 41.453125 103.46875 43.265625 104.457031 44.914062 C 105.28125 46.398438 105.609375 48.042969 105.609375 49.691406 C 105.773438 51.667969 105.28125 54.140625 104.457031 55.625 C 103.796875 56.941406 102.808594 57.765625 101.492188 58.589844 C 99.679688 59.578125 96.546875 60.894531 94.078125 60.730469 C 91.441406 60.566406 88.3125 59.082031 86.332031 57.269531 C 84.191406 55.292969 82.707031 52.164062 81.886719 48.867188 C 80.730469 45.078125 80.730469 38.984375 81.0625 35.6875 C 81.390625 33.710938 81.71875 32.390625 82.707031 30.910156 C 83.699219 29.097656 85.511719 26.957031 87.488281 25.96875 C 89.464844 24.8125 93.417969 24.15625 94.570312 24.648438 C 95.230469 24.976562 95.726562 26.132812 95.558594 26.625 C 95.558594 27.121094 93.914062 27.945312 93.914062 27.945312 " clip-rule="nonzero"/></clipPath><clipPath id="3055621aad"><path d="M 129.921875 23.625 L 143.578125 23.625 L 143.578125 55.851562 L 129.921875 55.851562 Z M 129.921875 23.625 " clip-rule="nonzero"/></clipPath><clipPath id="7a2ee1d01c"><path d="M 133.949219 29.921875 C 135.433594 52.65625 136.421875 52.824219 137.078125 52.328125 C 139.222656 50.679688 142.1875 29.589844 139.550781 26.957031 C 138.066406 25.472656 133.125 28.601562 131.808594 27.945312 C 130.984375 27.449219 130.324219 26.296875 130.488281 25.800781 C 130.652344 25.308594 132.632812 24.648438 132.960938 24.976562 C 133.289062 25.144531 132.960938 27.613281 132.464844 27.777344 C 131.972656 28.109375 130.820312 27.613281 130.652344 27.121094 C 130.324219 26.625 130.652344 25.308594 131.3125 24.8125 C 132.464844 23.824219 137.242188 23.332031 139.386719 23.988281 C 140.867188 24.484375 142.023438 25.636719 142.847656 27.449219 C 144.328125 31.402344 143.175781 43.101562 141.855469 48.210938 C 141.199219 51.339844 140.046875 54.304688 138.398438 55.292969 C 137.242188 56.117188 135.101562 55.789062 133.949219 55.292969 C 132.796875 54.636719 132.136719 53.644531 131.476562 52 C 130.160156 48.042969 129.335938 32.558594 130.652344 29.589844 C 131.148438 28.769531 131.972656 28.273438 132.464844 28.273438 C 132.960938 28.4375 133.949219 29.921875 133.949219 29.921875 " clip-rule="nonzero"/></clipPath><clipPath id="d4f5a3f1dd"><path d="M 128.660156 6.628906 L 140.296875 6.628906 L 140.296875 18.738281 L 128.660156 18.738281 Z M 128.660156 6.628906 " clip-rule="nonzero"/></clipPath><clipPath id="68784a2c42"><path d="M 134.277344 9.328125 C 131.640625 14.105469 132.136719 14.761719 132.796875 15.257812 C 133.621094 15.75 136.585938 15.917969 137.078125 15.257812 C 137.574219 14.269531 132.796875 9.984375 133.289062 8.832031 C 133.621094 8.171875 135.925781 7.515625 136.253906 7.84375 C 136.585938 8.171875 136.253906 9.984375 135.761719 10.316406 C 135.265625 10.480469 133.289062 9.492188 133.289062 8.996094 C 133.125 8.503906 134.609375 7.183594 135.265625 7.183594 C 136.585938 7.347656 139.550781 11.960938 140.046875 13.773438 C 140.375 14.929688 140.210938 15.917969 139.714844 16.742188 C 138.890625 17.730469 136.75 18.71875 135.101562 18.71875 C 133.125 18.550781 129.828125 17.234375 129.007812 15.585938 C 128.183594 13.941406 129.335938 10.316406 130.324219 8.667969 C 131.148438 7.679688 132.796875 6.359375 133.453125 6.691406 C 134.113281 6.855469 134.277344 9.328125 134.277344 9.328125 " clip-rule="nonzero"/></clipPath><clipPath id="5708f50916"><path d="M 146.636719 21.191406 L 179.558594 21.191406 L 179.558594 58.941406 L 146.636719 58.941406 Z M 146.636719 21.191406 " clip-rule="nonzero"/></clipPath><clipPath id="0071a07a80"><path d="M 156.191406 24.976562 C 156.851562 50.351562 155.367188 51.011719 154.875 50.679688 C 153.886719 50.1875 154.050781 46.066406 154.214844 43.597656 C 154.542969 40.464844 155.695312 36.511719 156.851562 33.546875 C 157.675781 31.238281 158.664062 29.097656 159.980469 27.285156 C 161.300781 25.636719 163.109375 23.824219 164.921875 23 C 166.570312 22.34375 168.546875 22.011719 170.195312 22.175781 C 171.515625 22.507812 172.996094 23.332031 174.148438 24.320312 C 175.46875 25.472656 176.785156 26.957031 177.609375 28.933594 C 178.761719 31.402344 179.421875 34.863281 179.421875 38.160156 C 179.421875 41.453125 179.257812 47.222656 177.609375 48.703125 C 176.785156 49.527344 175.140625 49.527344 173.820312 49.199219 C 172.335938 48.539062 170.359375 46.726562 169.371094 44.75 C 168.054688 42.277344 169.042969 35.359375 168.054688 35.027344 C 167.394531 34.863281 166.078125 36.511719 165.253906 38.160156 C 163.441406 41.453125 163.109375 51.667969 160.804688 55.128906 C 159.488281 57.105469 157.507812 58.425781 155.863281 58.753906 C 154.542969 59.082031 152.894531 58.589844 151.578125 57.765625 C 150.261719 56.613281 148.941406 54.46875 148.117188 52.492188 C 147.292969 50.515625 147.128906 48.703125 146.964844 45.738281 C 146.636719 40.300781 145.976562 25.636719 148.613281 22.671875 C 149.765625 21.1875 152.402344 21.1875 153.390625 21.519531 C 154.050781 21.683594 154.875 22.34375 154.875 22.671875 C 154.707031 23.332031 152.894531 24.8125 152.402344 24.648438 C 152.074219 24.484375 151.742188 22.175781 152.074219 21.847656 C 152.402344 21.519531 154.542969 22.011719 154.707031 22.507812 C 154.875 23 153.71875 24.8125 153.226562 24.8125 C 152.566406 24.8125 151.578125 23.164062 151.578125 22.671875 C 151.742188 22.175781 152.894531 21.355469 153.390625 21.519531 C 154.050781 21.519531 155.039062 22.835938 154.875 23.164062 C 154.707031 23.496094 152.566406 22.671875 151.742188 23.496094 C 150.261719 24.976562 150.261719 31.074219 149.929688 35.027344 C 149.765625 39.3125 149.4375 44.914062 150.425781 48.539062 C 151.25 51.339844 152.894531 54.964844 154.378906 55.457031 C 155.53125 55.625 156.851562 54.800781 157.839844 53.644531 C 159.816406 51.175781 160.144531 41.453125 161.957031 37.664062 C 163.109375 35.027344 164.429688 32.722656 165.746094 31.898438 C 166.570312 31.402344 167.558594 31.402344 168.382812 31.570312 C 169.371094 31.898438 170.527344 33.050781 171.183594 34.371094 C 172.335938 36.675781 171.347656 43.101562 172.667969 44.585938 C 173.492188 45.410156 175.140625 45.574219 175.632812 45.242188 C 175.960938 44.914062 175.796875 44.253906 175.796875 43.265625 C 175.960938 40.796875 175.46875 32.558594 174.148438 29.589844 C 173.328125 27.945312 172.335938 26.957031 171.183594 26.132812 C 170.03125 25.636719 168.714844 25.144531 167.558594 25.472656 C 165.746094 25.96875 163.441406 28.273438 161.957031 30.414062 C 160.308594 32.722656 159.320312 35.851562 158.664062 38.984375 C 157.675781 42.441406 158.664062 48.703125 157.179688 50.023438 C 156.519531 50.679688 155.203125 51.011719 154.542969 50.515625 C 152.402344 48.703125 151.742188 28.601562 153.0625 25.144531 C 153.390625 24.15625 154.214844 23.496094 154.707031 23.496094 C 155.203125 23.496094 156.191406 24.976562 156.191406 24.976562 " clip-rule="nonzero"/></clipPath><clipPath id="0953bdf25c"><path d="M 8.949219 9.707031 L 40.632812 9.707031 L 40.632812 63.625 L 8.949219 63.625 Z M 8.949219 9.707031 " clip-rule="nonzero"/></clipPath><clipPath id="06549b9b4d"><path d="M 21.417969 19.542969 C 19.277344 54.140625 17.464844 55.292969 16.144531 55.625 C 14.992188 55.789062 13.511719 55.292969 12.6875 54.636719 C 11.863281 53.976562 11.203125 53.316406 10.710938 51.667969 C 9.722656 46.726562 13.34375 23.824219 15.324219 18.550781 C 15.980469 16.742188 16.476562 15.917969 17.300781 15.257812 C 18.289062 14.597656 19.605469 14.105469 20.757812 14.269531 C 21.75 14.269531 23.066406 14.929688 23.890625 15.75 C 24.714844 16.410156 25.042969 17.234375 25.371094 18.882812 C 26.03125 24.15625 22.902344 46.890625 21.089844 51.835938 C 20.429688 53.316406 19.9375 53.976562 18.949219 54.636719 C 18.125 55.292969 16.640625 55.625 15.652344 55.457031 C 14.5 55.292969 13.179688 54.636719 12.523438 53.8125 C 11.863281 52.988281 11.53125 52.164062 11.367188 50.515625 C 10.710938 45.078125 13.511719 23.164062 14.664062 17.070312 C 14.992188 14.597656 15.15625 13.28125 15.980469 12.128906 C 16.640625 11.136719 17.628906 10.148438 18.617188 9.984375 C 19.9375 9.65625 22.078125 9.984375 23.230469 10.808594 C 24.21875 11.632812 24.878906 12.949219 25.042969 14.929688 C 25.539062 18.882812 21.582031 27.121094 20.757812 33.546875 C 19.769531 39.972656 20.59375 49.527344 19.605469 53.316406 C 19.113281 54.800781 18.78125 55.625 17.792969 56.28125 C 16.96875 56.941406 15.652344 57.601562 14.5 57.4375 C 13.179688 57.269531 10.875 56.117188 10.050781 54.304688 C 8.566406 50.84375 10.378906 40.136719 11.699219 36.839844 C 12.191406 35.359375 12.6875 34.535156 13.675781 34.039062 C 14.828125 33.382812 16.96875 33.050781 18.289062 33.546875 C 19.605469 34.371094 20.925781 36.347656 21.253906 38.324219 C 21.914062 41.617188 17.464844 50.679688 18.78125 51.503906 C 19.605469 52.164062 21.914062 48.867188 24.21875 48.042969 C 27.183594 46.890625 32.953125 46.066406 35.589844 46.230469 C 37.070312 46.398438 38.058594 46.726562 38.882812 47.550781 C 39.871094 48.375 40.859375 50.351562 40.53125 51.667969 C 40.367188 53.316406 38.882812 54.800781 36.90625 55.953125 C 33.28125 58.257812 20.429688 61.554688 17.957031 59.742188 C 16.476562 58.753906 16.144531 55.128906 17.136719 53.8125 C 18.617188 52 27.84375 51.011719 29.164062 52.492188 C 30.152344 53.480469 29.164062 57.269531 28.007812 58.589844 C 26.855469 59.90625 23.890625 61.390625 22.738281 60.894531 C 21.417969 60.070312 20.265625 54.636719 21.582031 53.152344 C 23.230469 51.011719 33.28125 50.515625 35.753906 52.492188 C 37.730469 54.140625 38.390625 60.566406 36.742188 62.378906 C 34.929688 64.355469 27.183594 62.871094 23.558594 62.378906 C 20.757812 62.050781 17.464844 61.882812 16.3125 60.238281 C 15.15625 58.753906 14.992188 54.636719 16.3125 52.988281 C 18.125 51.011719 24.878906 50.84375 28.171875 51.011719 C 30.644531 51.175781 33.117188 51.503906 34.433594 52.65625 C 35.753906 53.8125 36.742188 56.28125 36.410156 57.765625 C 36.082031 59.414062 34.105469 61.226562 31.964844 62.050781 C 28.171875 63.695312 18.617188 64.027344 14.828125 62.707031 C 12.355469 61.882812 10.050781 60.238281 9.722656 58.425781 C 9.390625 56.28125 12.027344 52.328125 14.828125 50.351562 C 18.125 47.878906 25.703125 47.054688 29.984375 46.5625 C 32.953125 46.230469 36.082031 46.066406 37.894531 46.890625 C 39.046875 47.386719 39.871094 48.375 40.199219 49.363281 C 40.695312 50.351562 40.695312 51.835938 40.367188 52.988281 C 39.871094 54.140625 36.90625 56.117188 36.90625 55.953125 C 36.90625 55.953125 39.210938 54.140625 39.046875 53.8125 C 38.554688 52.988281 26.527344 57.765625 22.242188 58.589844 C 19.769531 59.082031 17.957031 59.414062 15.980469 58.917969 C 13.839844 58.425781 11.039062 57.105469 9.886719 55.292969 C 8.898438 53.644531 8.898438 51.339844 9.0625 48.703125 C 9.226562 44.914062 10.875 37.003906 12.851562 34.699219 C 13.675781 33.710938 14.828125 33.214844 15.980469 33.214844 C 17.300781 33.214844 19.277344 33.710938 20.265625 35.027344 C 21.582031 36.839844 21.417969 41.617188 21.089844 45.078125 C 20.757812 48.703125 19.9375 54.636719 17.957031 56.28125 C 16.476562 57.4375 13.675781 57.601562 12.355469 56.941406 C 11.039062 56.28125 10.214844 54.964844 9.722656 52.988281 C 8.566406 48.867188 10.050781 38.488281 11.039062 31.570312 C 12.027344 25.308594 13.839844 16.574219 15.488281 13.28125 C 16.144531 11.796875 16.640625 10.972656 17.628906 10.480469 C 18.453125 9.820312 19.9375 9.65625 21.089844 9.820312 C 22.078125 9.984375 23.394531 10.644531 24.054688 11.632812 C 24.714844 12.457031 24.878906 13.117188 25.042969 14.929688 C 25.703125 20.53125 23.558594 46.230469 21.089844 51.835938 C 20.101562 53.644531 19.277344 54.636719 17.957031 55.128906 C 16.640625 55.625 14.5 55.292969 13.34375 54.46875 C 12.355469 53.976562 11.863281 52.988281 11.367188 51.667969 C 10.875 49.527344 11.367188 46.5625 11.699219 42.9375 C 12.355469 36.511719 13.839844 21.023438 15.816406 17.070312 C 16.640625 15.585938 17.300781 15.09375 18.453125 14.597656 C 19.441406 14.269531 20.757812 13.941406 21.914062 14.433594 C 23.230469 15.09375 24.714844 16.574219 25.371094 18.882812 C 26.855469 24.648438 23.394531 46.726562 20.429688 52 C 19.113281 54.140625 17.628906 55.292969 16.144531 55.625 C 14.664062 55.789062 12.851562 54.964844 11.863281 53.8125 C 10.542969 52.328125 10.542969 50.1875 10.214844 47.054688 C 9.554688 40.960938 7.910156 22.671875 11.53125 19.210938 C 13.675781 17.234375 21.417969 19.542969 21.417969 19.542969 " clip-rule="nonzero"/></clipPath><mask id="9770379431"><g filter="url(#65460c2eb0)"><rect x="-18.75" width="225" fill="#000000" y="-7.5" height="89.999996" fill-opacity="0.28"/></g></mask><clipPath id="041f4a6ec7"><path d="M 0.949219 0.707031 L 32.632812 0.707031 L 32.632812 54.625 L 0.949219 54.625 Z M 0.949219 0.707031 " clip-rule="nonzero"/></clipPath><clipPath id="d481cba4f1"><path d="M 13.417969 10.542969 C 11.277344 45.140625 9.464844 46.292969 8.144531 46.625 C 6.992188 46.789062 5.511719 46.292969 4.6875 45.636719 C 3.863281 44.976562 3.203125 44.316406 2.710938 42.667969 C 1.722656 37.726562 5.34375 14.824219 7.324219 9.550781 C 7.980469 7.742188 8.476562 6.917969 9.300781 6.257812 C 10.289062 5.597656 11.605469 5.105469 12.757812 5.269531 C 13.75 5.269531 15.066406 5.929688 15.890625 6.75 C 16.714844 7.410156 17.042969 8.234375 17.371094 9.882812 C 18.03125 15.15625 14.902344 37.890625 13.089844 42.835938 C 12.429688 44.316406 11.9375 44.976562 10.949219 45.636719 C 10.125 46.292969 8.640625 46.625 7.652344 46.457031 C 6.5 46.292969 5.179688 45.636719 4.523438 44.8125 C 3.863281 43.988281 3.53125 43.164062 3.367188 41.515625 C 2.710938 36.078125 5.511719 14.164062 6.664062 8.070312 C 6.992188 5.597656 7.15625 4.28125 7.980469 3.128906 C 8.640625 2.136719 9.628906 1.148438 10.617188 0.984375 C 11.9375 0.65625 14.078125 0.984375 15.230469 1.808594 C 16.21875 2.632812 16.878906 3.949219 17.042969 5.929688 C 17.539062 9.882812 13.582031 18.121094 12.757812 24.546875 C 11.769531 30.972656 12.59375 40.527344 11.605469 44.316406 C 11.113281 45.800781 10.78125 46.625 9.792969 47.28125 C 8.96875 47.941406 7.652344 48.601562 6.5 48.4375 C 5.179688 48.269531 2.875 47.117188 2.050781 45.304688 C 0.566406 41.84375 2.378906 31.136719 3.699219 27.839844 C 4.191406 26.359375 4.6875 25.535156 5.675781 25.039062 C 6.828125 24.382812 8.96875 24.050781 10.289062 24.546875 C 11.605469 25.371094 12.925781 27.347656 13.253906 29.324219 C 13.914062 32.617188 9.464844 41.679688 10.78125 42.503906 C 11.605469 43.164062 13.914062 39.867188 16.21875 39.042969 C 19.183594 37.890625 24.953125 37.066406 27.589844 37.230469 C 29.070312 37.398438 30.058594 37.726562 30.882812 38.550781 C 31.871094 39.375 32.859375 41.351562 32.53125 42.667969 C 32.367188 44.316406 30.882812 45.800781 28.90625 46.953125 C 25.28125 49.257812 12.429688 52.554688 9.957031 50.742188 C 8.476562 49.753906 8.144531 46.128906 9.136719 44.8125 C 10.617188 43 19.84375 42.011719 21.164062 43.492188 C 22.152344 44.480469 21.164062 48.269531 20.007812 49.589844 C 18.855469 50.90625 15.890625 52.390625 14.738281 51.894531 C 13.417969 51.070312 12.265625 45.636719 13.582031 44.152344 C 15.230469 42.011719 25.28125 41.515625 27.753906 43.492188 C 29.730469 45.140625 30.390625 51.566406 28.742188 53.378906 C 26.929688 55.355469 19.183594 53.871094 15.558594 53.378906 C 12.757812 53.050781 9.464844 52.882812 8.3125 51.238281 C 7.15625 49.753906 6.992188 45.636719 8.3125 43.988281 C 10.125 42.011719 16.878906 41.84375 20.171875 42.011719 C 22.644531 42.175781 25.117188 42.503906 26.433594 43.65625 C 27.753906 44.8125 28.742188 47.28125 28.410156 48.765625 C 28.082031 50.414062 26.105469 52.226562 23.964844 53.050781 C 20.171875 54.695312 10.617188 55.027344 6.828125 53.707031 C 4.355469 52.882812 2.050781 51.238281 1.722656 49.425781 C 1.390625 47.28125 4.027344 43.328125 6.828125 41.351562 C 10.125 38.878906 17.703125 38.054688 21.984375 37.5625 C 24.953125 37.230469 28.082031 37.066406 29.894531 37.890625 C 31.046875 38.386719 31.871094 39.375 32.199219 40.363281 C 32.695312 41.351562 32.695312 42.835938 32.367188 43.988281 C 31.871094 45.140625 28.90625 47.117188 28.90625 46.953125 C 28.90625 46.953125 31.210938 45.140625 31.046875 44.8125 C 30.554688 43.988281 18.527344 48.765625 14.242188 49.589844 C 11.769531 50.082031 9.957031 50.414062 7.980469 49.917969 C 5.839844 49.425781 3.039062 48.105469 1.886719 46.292969 C 0.898438 44.644531 0.898438 42.339844 1.0625 39.703125 C 1.226562 35.914062 2.875 28.003906 4.851562 25.699219 C 5.675781 24.710938 6.828125 24.214844 7.980469 24.214844 C 9.300781 24.214844 11.277344 24.710938 12.265625 26.027344 C 13.582031 27.839844 13.417969 32.617188 13.089844 36.078125 C 12.757812 39.703125 11.9375 45.636719 9.957031 47.28125 C 8.476562 48.4375 5.675781 48.601562 4.355469 47.941406 C 3.039062 47.28125 2.214844 45.964844 1.722656 43.988281 C 0.566406 39.867188 2.050781 29.488281 3.039062 22.570312 C 4.027344 16.308594 5.839844 7.574219 7.488281 4.28125 C 8.144531 2.796875 8.640625 1.972656 9.628906 1.480469 C 10.453125 0.820312 11.9375 0.65625 13.089844 0.820312 C 14.078125 0.984375 15.394531 1.644531 16.054688 2.632812 C 16.714844 3.457031 16.878906 4.117188 17.042969 5.929688 C 17.703125 11.53125 15.558594 37.230469 13.089844 42.835938 C 12.101562 44.644531 11.277344 45.636719 9.957031 46.128906 C 8.640625 46.625 6.5 46.292969 5.34375 45.46875 C 4.355469 44.976562 3.863281 43.988281 3.367188 42.667969 C 2.875 40.527344 3.367188 37.5625 3.699219 33.9375 C 4.355469 27.511719 5.839844 12.023438 7.816406 8.070312 C 8.640625 6.585938 9.300781 6.09375 10.453125 5.597656 C 11.441406 5.269531 12.757812 4.941406 13.914062 5.433594 C 15.230469 6.09375 16.714844 7.574219 17.371094 9.882812 C 18.855469 15.648438 15.394531 37.726562 12.429688 43 C 11.113281 45.140625 9.628906 46.292969 8.144531 46.625 C 6.664062 46.789062 4.851562 45.964844 3.863281 44.8125 C 2.542969 43.328125 2.542969 41.1875 2.214844 38.054688 C 1.554688 31.960938 -0.0898438 13.671875 3.53125 10.210938 C 5.675781 8.234375 13.417969 10.542969 13.417969 10.542969 " clip-rule="nonzero"/></clipPath><clipPath id="cfd9bb12a4"><rect x="0" width="33" y="0" height="55"/></clipPath><clipPath id="c0346172c8"><path d="M 41.800781 28.558594 L 70 28.558594 L 70 62.394531 L 41.800781 62.394531 Z M 41.800781 28.558594 " clip-rule="nonzero"/></clipPath><clipPath id="a5c399392b"><path d="M 61.785156 37.5 C 51.238281 45.902344 50.746094 48.703125 51.570312 49.527344 C 52.394531 50.515625 55.523438 50.515625 57.007812 50.023438 C 58.488281 49.363281 60.136719 47.714844 60.464844 46.230469 C 60.960938 44.585938 59.972656 40.628906 58.820312 40.300781 C 57.832031 39.804688 55.195312 42.277344 54.039062 43.761719 C 52.886719 45.242188 51.40625 48.539062 52.0625 49.199219 C 53.050781 50.351562 60.136719 44.75 63.101562 45.574219 C 65.902344 46.398438 69.691406 50.84375 69.363281 53.316406 C 69.199219 55.625 63.597656 58.425781 60.960938 59.90625 C 58.984375 61.058594 57.171875 61.882812 55.195312 62.214844 C 53.382812 62.378906 51.40625 62.050781 49.757812 61.390625 C 48.273438 60.730469 46.957031 59.90625 45.804688 58.425781 C 44.320312 56.613281 42.34375 53.480469 42.34375 50.515625 C 42.179688 46.5625 44.648438 40.300781 46.792969 37.003906 C 48.605469 34.371094 50.910156 32.558594 53.382812 31.402344 C 55.523438 30.25 58.324219 29.757812 60.464844 30.25 C 62.773438 30.582031 65.078125 32.390625 66.5625 34.039062 C 67.878906 35.523438 68.703125 37.171875 69.199219 39.3125 C 69.859375 42.441406 70.515625 47.550781 69.199219 50.679688 C 67.878906 53.976562 63.925781 57.105469 61.289062 58.753906 C 59.3125 60.070312 57.007812 60.730469 55.03125 60.894531 C 53.050781 61.058594 51.074219 61.058594 49.261719 60.070312 C 47.121094 59.25 44.484375 57.105469 43.332031 54.800781 C 42.011719 52.65625 41.847656 49.363281 41.847656 46.726562 C 41.847656 44.585938 42.34375 42.441406 43.167969 40.628906 C 44.15625 38.488281 45.636719 36.675781 47.449219 34.863281 C 49.921875 32.558594 54.699219 28.109375 57.007812 28.601562 C 59.3125 29.261719 61.785156 37.5 61.785156 37.5 " clip-rule="nonzero"/></clipPath><mask id="5d13eca66d"><g filter="url(#65460c2eb0)"><rect x="-18.75" width="225" fill="#000000" y="-7.5" height="89.999996" fill-opacity="0.28"/></g></mask><clipPath id="57c4742342"><path d="M 0.800781 0.558594 L 29 0.558594 L 29 34.394531 L 0.800781 34.394531 Z M 0.800781 0.558594 " clip-rule="nonzero"/></clipPath><clipPath id="0e763944f1"><path d="M 20.785156 9.5 C 10.238281 17.902344 9.746094 20.703125 10.570312 21.527344 C 11.394531 22.515625 14.523438 22.515625 16.007812 22.023438 C 17.488281 21.363281 19.136719 19.714844 19.464844 18.230469 C 19.960938 16.585938 18.972656 12.628906 17.820312 12.300781 C 16.832031 11.804688 14.195312 14.277344 13.039062 15.761719 C 11.886719 17.242188 10.40625 20.539062 11.0625 21.199219 C 12.050781 22.351562 19.136719 16.75 22.101562 17.574219 C 24.902344 18.398438 28.691406 22.84375 28.363281 25.316406 C 28.199219 27.625 22.597656 30.425781 19.960938 31.90625 C 17.984375 33.058594 16.171875 33.882812 14.195312 34.214844 C 12.382812 34.378906 10.40625 34.050781 8.757812 33.390625 C 7.273438 32.730469 5.957031 31.90625 4.804688 30.425781 C 3.320312 28.613281 1.34375 25.480469 1.34375 22.515625 C 1.179688 18.5625 3.648438 12.300781 5.792969 9.003906 C 7.605469 6.371094 9.910156 4.558594 12.382812 3.402344 C 14.523438 2.25 17.324219 1.757812 19.464844 2.25 C 21.773438 2.582031 24.078125 4.390625 25.5625 6.039062 C 26.878906 7.523438 27.703125 9.171875 28.199219 11.3125 C 28.859375 14.441406 29.515625 19.550781 28.199219 22.679688 C 26.878906 25.976562 22.925781 29.105469 20.289062 30.753906 C 18.3125 32.070312 16.007812 32.730469 14.03125 32.894531 C 12.050781 33.058594 10.074219 33.058594 8.261719 32.070312 C 6.121094 31.25 3.484375 29.105469 2.332031 26.800781 C 1.011719 24.65625 0.847656 21.363281 0.847656 18.726562 C 0.847656 16.585938 1.34375 14.441406 2.167969 12.628906 C 3.15625 10.488281 4.636719 8.675781 6.449219 6.863281 C 8.921875 4.558594 13.699219 0.109375 16.007812 0.601562 C 18.3125 1.261719 20.785156 9.5 20.785156 9.5 " clip-rule="nonzero"/></clipPath><clipPath id="e90ca5cc86"><rect x="0" width="29" y="0" height="35"/></clipPath><clipPath id="4da8e09a7e"><path d="M 69 15.5 L 123.71875 15.5 L 123.71875 67.738281 L 69 67.738281 Z M 69 15.5 " clip-rule="nonzero"/></clipPath><clipPath id="5006caa5ef"><path d="M 92.429688 25.144531 C 79.90625 33.214844 79.414062 35.027344 79.25 37.664062 C 79.085938 41.949219 81.0625 51.667969 83.203125 54.636719 C 84.355469 56.449219 85.511719 57.105469 87.320312 57.4375 C 89.792969 57.929688 94.738281 56.613281 96.878906 55.128906 C 98.691406 54.140625 99.515625 52.65625 100.171875 50.679688 C 101.328125 47.386719 98.527344 39.972656 100.667969 37.335938 C 102.644531 34.863281 108.246094 34.039062 111.378906 34.371094 C 114.179688 34.535156 116.8125 35.523438 118.792969 37.828125 C 121.59375 41.453125 124.886719 53.316406 122.910156 56.28125 C 121.425781 58.589844 115.332031 59.414062 113.1875 57.929688 C 110.554688 56.117188 110.882812 44.417969 109.894531 44.585938 C 109.070312 44.585938 109.730469 53.644531 107.917969 57.105469 C 106.269531 60.402344 103.304688 63.203125 100.007812 65.015625 C 96.714844 66.828125 92.265625 67.816406 88.476562 67.484375 C 84.6875 67.320312 80.402344 65.671875 77.4375 63.367188 C 74.636719 60.730469 72.660156 56.28125 71.175781 52.328125 C 69.859375 48.375 69.199219 42.9375 69.199219 39.148438 C 69.199219 36.347656 69.363281 34.535156 70.351562 32.0625 C 71.835938 28.601562 74.800781 23.660156 77.929688 21.023438 C 80.898438 18.386719 86.332031 14.929688 88.804688 15.75 C 90.945312 16.742188 92.429688 25.144531 92.429688 25.144531 " clip-rule="nonzero"/></clipPath><mask id="b19b96c4ac"><g filter="url(#65460c2eb0)"><rect x="-18.75" width="225" fill="#000000" y="-7.5" height="89.999996" fill-opacity="0.28"/></g></mask><clipPath id="9cafc483b1"><path d="M 0.175781 0.5 L 54.71875 0.5 L 54.71875 52.738281 L 0.175781 52.738281 Z M 0.175781 0.5 " clip-rule="nonzero"/></clipPath><clipPath id="99fa8efd22"><path d="M 23.429688 10.144531 C 10.90625 18.214844 10.414062 20.027344 10.25 22.664062 C 10.085938 26.949219 12.0625 36.667969 14.203125 39.636719 C 15.355469 41.449219 16.511719 42.105469 18.320312 42.4375 C 20.792969 42.929688 25.738281 41.613281 27.878906 40.128906 C 29.691406 39.140625 30.515625 37.65625 31.171875 35.679688 C 32.328125 32.386719 29.527344 24.972656 31.667969 22.335938 C 33.644531 19.863281 39.246094 19.039062 42.378906 19.371094 C 45.179688 19.535156 47.8125 20.523438 49.792969 22.828125 C 52.59375 26.453125 55.886719 38.316406 53.910156 41.28125 C 52.425781 43.589844 46.332031 44.414062 44.1875 42.929688 C 41.554688 41.117188 41.882812 29.417969 40.894531 29.585938 C 40.070312 29.585938 40.730469 38.644531 38.917969 42.105469 C 37.269531 45.402344 34.304688 48.203125 31.007812 50.015625 C 27.714844 51.828125 23.265625 52.816406 19.476562 52.484375 C 15.6875 52.320312 11.402344 50.671875 8.4375 48.367188 C 5.636719 45.730469 3.660156 41.28125 2.175781 37.328125 C 0.859375 33.375 0.199219 27.9375 0.199219 24.148438 C 0.199219 21.347656 0.363281 19.535156 1.351562 17.0625 C 2.835938 13.601562 5.800781 8.660156 8.929688 6.023438 C 11.898438 3.386719 17.332031 -0.0703125 19.804688 0.75 C 21.945312 1.742188 23.429688 10.144531 23.429688 10.144531 " clip-rule="nonzero"/></clipPath><clipPath id="2d79f7f2c4"><rect x="0" width="55" y="0" height="53"/></clipPath><clipPath id="c3d312edf3"><path d="M 131.097656 27.042969 L 144.664062 27.042969 L 144.664062 48.890625 L 131.097656 48.890625 Z M 131.097656 27.042969 " clip-rule="nonzero"/></clipPath><clipPath id="167b3309af"><path d="M 144.660156 29.589844 C 139.550781 47.550781 133.785156 49.691406 132.300781 48.539062 C 129.828125 46.5625 131.640625 29.589844 134.773438 27.449219 C 137.078125 25.96875 144.660156 29.589844 144.660156 29.589844 " clip-rule="nonzero"/></clipPath><mask id="97f44879da"><g filter="url(#65460c2eb0)"><rect x="-18.75" width="225" fill="#000000" y="-7.5" height="89.999996" fill-opacity="0.28"/></g></mask><clipPath id="373e5fb5f8"><path d="M 0.0976562 0.0429688 L 13.664062 0.0429688 L 13.664062 21.890625 L 0.0976562 21.890625 Z M 0.0976562 0.0429688 " clip-rule="nonzero"/></clipPath><clipPath id="a1a618ab04"><path d="M 13.660156 2.589844 C 8.550781 20.550781 2.785156 22.691406 1.300781 21.539062 C -1.171875 19.5625 0.640625 2.589844 3.773438 0.449219 C 6.078125 -1.03125 13.660156 2.589844 13.660156 2.589844 " clip-rule="nonzero"/></clipPath><clipPath id="d2c5946f51"><rect x="0" width="14" y="0" height="22"/></clipPath><clipPath id="bcc9acd303"><path d="M 128.820312 11.363281 L 138.261719 11.363281 L 138.261719 19.371094 L 128.820312 19.371094 Z M 128.820312 11.363281 " clip-rule="nonzero"/></clipPath><clipPath id="706fca2c62"><path d="M 138.234375 14.269531 C 133.949219 20.859375 130.160156 19.707031 129.171875 18.222656 C 128.347656 16.90625 129.171875 12.785156 130.488281 11.796875 C 131.640625 10.808594 136.914062 12.128906 136.914062 12.128906 " clip-rule="nonzero"/></clipPath><mask id="66427d1310"><g filter="url(#65460c2eb0)"><rect x="-18.75" width="225" fill="#000000" y="-7.5" height="89.999996" fill-opacity="0.28"/></g></mask><clipPath id="c41c51c548"><path d="M 0.820312 0.363281 L 10.261719 0.363281 L 10.261719 8.371094 L 0.820312 8.371094 Z M 0.820312 0.363281 " clip-rule="nonzero"/></clipPath><clipPath id="aa7a1eb891"><path d="M 10.234375 3.269531 C 5.949219 9.859375 2.160156 8.707031 1.171875 7.222656 C 0.347656 5.90625 1.171875 1.785156 2.488281 0.796875 C 3.640625 -0.191406 8.914062 1.128906 8.914062 1.128906 " clip-rule="nonzero"/></clipPath><clipPath id="1baa191f67"><rect x="0" width="11" y="0" height="9"/></clipPath><clipPath id="2a31755348"><path d="M 144.515625 22.09375 L 178.925781 22.09375 L 178.925781 52.90625 L 144.515625 52.90625 Z M 144.515625 22.09375 " clip-rule="nonzero"/></clipPath><clipPath id="76f482d9c3"><path d="M 156.191406 26.132812 C 155.695312 48.042969 150.425781 47.878906 149.601562 46.5625 C 148.449219 44.914062 152.238281 38.160156 154.050781 35.027344 C 155.367188 32.558594 156.6875 30.746094 158.664062 28.769531 C 161.132812 26.296875 165.417969 22.507812 168.21875 22.175781 C 170.195312 21.847656 172.335938 22.671875 173.492188 23.824219 C 174.808594 24.976562 174.972656 26.789062 175.632812 29.097656 C 176.785156 33.546875 180.410156 45.574219 177.941406 48.867188 C 176.457031 51.175781 170.359375 52.328125 168.382812 51.175781 C 166.242188 49.691406 166.078125 43.265625 166.078125 40.136719 C 166.242188 37.664062 168.054688 33.875 167.722656 33.710938 C 166.902344 33.382812 160.144531 51.667969 156.027344 52.65625 C 153.226562 53.316406 149.105469 50.351562 147.292969 47.222656 C 144.660156 42.9375 143.503906 29.921875 146.140625 26.957031 C 147.953125 24.8125 156.191406 26.132812 156.191406 26.132812 " clip-rule="nonzero"/></clipPath><mask id="b4e628f2c9"><g filter="url(#65460c2eb0)"><rect x="-18.75" width="225" fill="#000000" y="-7.5" height="89.999996" fill-opacity="0.28"/></g></mask><clipPath id="8b3cda2b70"><path d="M 0.515625 0.09375 L 34.925781 0.09375 L 34.925781 30.90625 L 0.515625 30.90625 Z M 0.515625 0.09375 " clip-rule="nonzero"/></clipPath><clipPath id="2d5fa5cb01"><path d="M 12.191406 4.132812 C 11.695312 26.042969 6.425781 25.878906 5.601562 24.5625 C 4.449219 22.914062 8.238281 16.160156 10.050781 13.027344 C 11.367188 10.558594 12.6875 8.746094 14.664062 6.769531 C 17.132812 4.296875 21.417969 0.507812 24.21875 0.175781 C 26.195312 -0.152344 28.335938 0.671875 29.492188 1.824219 C 30.808594 2.976562 30.972656 4.789062 31.632812 7.097656 C 32.785156 11.546875 36.410156 23.574219 33.941406 26.867188 C 32.457031 29.175781 26.359375 30.328125 24.382812 29.175781 C 22.242188 27.691406 22.078125 21.265625 22.078125 18.136719 C 22.242188 15.664062 24.054688 11.875 23.722656 11.710938 C 22.902344 11.382812 16.144531 29.667969 12.027344 30.65625 C 9.226562 31.316406 5.105469 28.351562 3.292969 25.222656 C 0.660156 20.9375 -0.496094 7.921875 2.140625 4.957031 C 3.953125 2.8125 12.191406 4.132812 12.191406 4.132812 " clip-rule="nonzero"/></clipPath><clipPath id="391d642123"><rect x="0" width="35" y="0" height="31"/></clipPath></defs><g clip-path="url(#89eb8b8d63)"><g clip-path="url(#886eea8584)"><path fill="#000000" d="M 0.824219 0.265625 L 51.898438 0.265625 L 51.898438 70.691406 L 0.824219 70.691406 Z M 0.824219 0.265625 " fill-opacity="1" fill-rule="nonzero"/></g></g><g clip-path="url(#3cd8beaa6a)"><g clip-path="url(#a81e67da57)"><path fill="#000000" d="M 38.390625 20.363281 L 81.886719 20.363281 L 81.886719 69.128906 L 38.390625 69.128906 Z M 38.390625 20.363281 " fill-opacity="1" fill-rule="nonzero"/></g></g><g clip-path="url(#7a0145be7b)"><g clip-path="url(#15848b676c)"><path fill="#000000" d="M 45.96875 28.601562 L 71.503906 28.601562 L 71.503906 56.632812 L 45.96875 56.632812 Z M 45.96875 28.601562 " fill-opacity="1" fill-rule="nonzero"/></g></g><g clip-path="url(#bc06fba684)"><g clip-path="url(#d32556f063)"><path fill="#000000" d="M 67.058594 9.65625 L 131.3125 9.65625 L 131.3125 74.914062 L 67.058594 74.914062 Z M 67.058594 9.65625 " fill-opacity="1" fill-rule="nonzero"/></g></g><g clip-path="url(#3055621aad)"><g clip-path="url(#7a2ee1d01c)"><path fill="#000000" d="M 123.898438 17.398438 L 149.601562 17.398438 L 149.601562 62.078125 L 123.898438 62.078125 Z M 123.898438 17.398438 " fill-opacity="1" fill-rule="nonzero"/></g></g><g clip-path="url(#d4f5a3f1dd)"><g clip-path="url(#68784a2c42)"><path fill="#000000" d="M 122.414062 0.101562 L 146.636719 0.101562 L 146.636719 25.453125 L 122.414062 25.453125 Z M 122.414062 0.101562 " fill-opacity="1" fill-rule="nonzero"/></g></g><g clip-path="url(#5708f50916)"><g clip-path="url(#0071a07a80)"><path fill="#000000" d="M 140.375 14.929688 L 186.175781 14.929688 L 186.175781 65.5625 L 140.375 65.5625 Z M 140.375 14.929688 " fill-opacity="1" fill-rule="nonzero"/></g></g><g clip-path="url(#0953bdf25c)"><g clip-path="url(#06549b9b4d)"><g mask="url(#9770379431)"><g transform="matrix(1, 0, 0, 1, 8, 9)"><g clip-path="url(#cfd9bb12a4)"><g clip-path="url(#041f4a6ec7)"><g clip-path="url(#d481cba4f1)"><rect x="-49.25" width="270" fill="#aeff61" height="107.999996" y="-25.499999" fill-opacity="1"/></g></g></g></g></g></g></g><g clip-path="url(#c0346172c8)"><g clip-path="url(#a5c399392b)"><g mask="url(#5d13eca66d)"><g transform="matrix(1, 0, 0, 1, 41, 28)"><g clip-path="url(#e90ca5cc86)"><g clip-path="url(#57c4742342)"><g clip-path="url(#0e763944f1)"><rect x="-82.25" width="270" fill="#aeff61" height="107.999996" y="-44.499999" fill-opacity="1"/></g></g></g></g></g></g></g><g clip-path="url(#4da8e09a7e)"><g clip-path="url(#5006caa5ef)"><g mask="url(#b19b96c4ac)"><g transform="matrix(1, 0, 0, 1, 69, 15)"><g clip-path="url(#2d79f7f2c4)"><g clip-path="url(#9cafc483b1)"><g clip-path="url(#99fa8efd22)"><rect x="-110.25" width="270" fill="#aeff61" height="107.999996" y="-31.499999" fill-opacity="1"/></g></g></g></g></g></g></g><g clip-path="url(#c3d312edf3)"><g clip-path="url(#167b3309af)"><g mask="url(#97f44879da)"><g transform="matrix(1, 0, 0, 1, 131, 27)"><g clip-path="url(#d2c5946f51)"><g clip-path="url(#373e5fb5f8)"><g clip-path="url(#a1a618ab04)"><rect x="-172.25" width="270" fill="#aeff61" height="107.999996" y="-43.499999" fill-opacity="1"/></g></g></g></g></g></g></g><g clip-path="url(#bcc9acd303)"><g clip-path="url(#706fca2c62)"><g mask="url(#66427d1310)"><g transform="matrix(1, 0, 0, 1, 128, 11)"><g clip-path="url(#1baa191f67)"><g clip-path="url(#c41c51c548)"><g clip-path="url(#aa7a1eb891)"><rect x="-169.25" width="270" fill="#aeff61" height="107.999996" y="-27.499999" fill-opacity="1"/></g></g></g></g></g></g></g><g clip-path="url(#2a31755348)"><g clip-path="url(#76f482d9c3)"><g mask="url(#b4e628f2c9)"><g transform="matrix(1, 0, 0, 1, 144, 22)"><g clip-path="url(#391d642123)"><g clip-path="url(#8b3cda2b70)"><g clip-path="url(#2d5fa5cb01)"><rect x="-185.25" width="270" fill="#aeff61" height="107.999996" y="-38.499999" fill-opacity="1"/></g></g></g></g></g></g></g></svg>