<svg xmlns="http://www.w3.org/2000/svg" xmlns:xlink="http://www.w3.org/1999/xlink" width="250" zoomAndPan="magnify" viewBox="0 0 187.5 74.999997" height="100" preserveAspectRatio="xMidYMid meet" version="1.0"><defs><filter x="0%" y="0%" width="100%" height="100%" id="53bcea15b7"><feColorMatrix values="0 0 0 0 1 0 0 0 0 1 0 0 0 0 1 0 0 0 1 0" color-interpolation-filters="sRGB"/></filter><clipPath id="c364ff997d"><path d="M 3.632812 12.828125 L 42.855469 12.828125 L 42.855469 66.945312 L 3.632812 66.945312 Z M 3.632812 12.828125 " clip-rule="nonzero"/></clipPath><clipPath id="b0fce23f5b"><path d="M 31.5 23.609375 C 25.390625 20.84375 22.527344 21.511719 20.523438 22.5625 C 18.421875 23.609375 16.132812 26.09375 15.082031 27.8125 C 14.320312 28.957031 13.9375 30.101562 13.839844 31.246094 C 13.746094 32.296875 13.554688 33.539062 14.128906 34.398438 C 14.796875 35.542969 16.515625 36.402344 18.421875 37.070312 C 21.382812 38.023438 27.300781 37.453125 30.929688 38.214844 C 33.792969 38.789062 36.558594 39.265625 38.566406 40.792969 C 40.472656 42.226562 42.097656 44.800781 42.667969 47.09375 C 43.148438 49.382812 42.574219 52.152344 41.808594 54.539062 C 40.953125 56.832031 39.425781 59.214844 37.609375 61.03125 C 35.605469 63.035156 32.933594 64.945312 30.261719 65.898438 C 27.585938 66.851562 24.054688 67.140625 21.574219 66.566406 C 19.570312 66.183594 17.46875 65.039062 16.226562 63.703125 C 15.179688 62.460938 14.414062 60.648438 14.222656 59.121094 C 14.03125 57.785156 13.9375 55.78125 14.988281 55.015625 C 16.992188 53.585938 26.058594 57.210938 29.304688 56.542969 C 31.121094 56.257812 32.644531 55.398438 33.316406 54.445312 C 33.695312 53.777344 33.886719 52.917969 33.601562 52.058594 C 33.027344 50.625 30.449219 48.8125 27.96875 47.570312 C 24.054688 45.660156 15.558594 45.089844 11.742188 43.464844 C 9.449219 42.605469 8.019531 41.9375 6.683594 40.410156 C 5.25 38.691406 4.199219 35.828125 3.816406 33.347656 C 3.4375 30.675781 3.816406 27.332031 4.675781 24.949219 C 5.34375 22.847656 6.394531 21.128906 8.113281 19.410156 C 10.214844 17.3125 14.414062 15.019531 16.992188 13.96875 C 18.804688 13.207031 20.332031 13.015625 21.957031 13.015625 C 23.484375 12.917969 25.011719 13.015625 26.539062 13.585938 C 28.445312 14.351562 31.214844 15.972656 32.265625 17.597656 C 33.125 19.027344 33.410156 20.554688 33.125 22.371094 C 32.835938 24.851562 30.355469 30.578125 29.210938 30.867188 C 28.734375 30.960938 27.875 30.101562 27.875 29.816406 C 27.96875 29.527344 29.113281 29.050781 29.402344 29.242188 C 29.59375 29.433594 29.59375 30.675781 29.304688 30.867188 C 29.113281 30.960938 28.066406 30.484375 27.875 29.910156 C 27.492188 28.671875 30.929688 24.46875 31.214844 22.371094 C 31.40625 20.9375 31.214844 19.695312 30.738281 18.648438 C 30.355469 17.882812 29.6875 17.3125 28.921875 16.738281 C 27.777344 15.972656 26.058594 15.304688 24.339844 15.019531 C 22.433594 14.828125 19.664062 15.210938 17.753906 15.6875 C 16.132812 16.164062 14.988281 16.738281 13.652344 17.691406 C 11.835938 18.839844 9.355469 20.652344 8.113281 22.464844 C 7.0625 23.898438 6.394531 25.425781 6.015625 27.238281 C 5.535156 29.527344 5.34375 32.871094 6.015625 35.160156 C 6.585938 37.070312 7.253906 38.691406 9.257812 40.125 C 12.886719 42.894531 24.246094 43.464844 28.828125 45.949219 C 31.789062 47.570312 34.554688 49.671875 35.414062 51.484375 C 35.890625 52.628906 35.699219 53.871094 35.222656 54.921875 C 34.554688 56.160156 32.644531 57.5 31.023438 58.167969 C 29.113281 58.835938 26.539062 58.644531 24.152344 58.359375 C 21.574219 58.070312 17.46875 55.304688 16.324219 56.160156 C 15.65625 56.640625 15.941406 58.546875 16.226562 59.597656 C 16.417969 60.554688 16.703125 61.414062 17.46875 62.269531 C 18.710938 63.417969 21.667969 64.753906 23.769531 65.039062 C 25.679688 65.230469 27.585938 64.847656 29.496094 64.179688 C 31.691406 63.320312 34.269531 61.792969 36.082031 59.789062 C 38.183594 57.6875 40.1875 53.964844 40.761719 51.390625 C 41.140625 49.574219 40.953125 47.855469 40.378906 46.328125 C 39.902344 44.800781 38.660156 43.371094 37.609375 42.417969 C 36.65625 41.652344 35.890625 41.460938 34.363281 40.984375 C 30.738281 39.839844 19.089844 39.742188 15.558594 38.023438 C 13.839844 37.164062 12.886719 36.117188 12.3125 34.875 C 11.742188 33.730469 11.742188 32.203125 12.027344 30.769531 C 12.3125 28.859375 13.363281 26.285156 14.988281 24.46875 C 16.800781 22.464844 20.238281 20.269531 22.910156 19.601562 C 25.296875 18.933594 28.253906 19.21875 30.070312 19.886719 C 31.40625 20.460938 32.835938 21.796875 33.125 22.5625 C 33.21875 22.941406 33.027344 23.609375 32.742188 23.800781 C 32.550781 23.992188 31.5 23.609375 31.5 23.609375 " clip-rule="nonzero"/></clipPath><clipPath id="5e0c7726ee"><path d="M 45.21875 36.300781 L 56.824219 36.300781 L 56.824219 59.367188 L 45.21875 59.367188 Z M 45.21875 36.300781 " clip-rule="nonzero"/></clipPath><clipPath id="dd486ad469"><path d="M 48.585938 38.503906 C 48.585938 58.835938 52.5 56.734375 53.648438 55.398438 C 54.601562 54.347656 54.316406 52.917969 54.507812 51.101562 C 54.792969 48.046875 56.128906 40.507812 54.507812 38.789062 C 53.457031 37.644531 50.113281 38.980469 49.351562 38.40625 C 48.875 38.121094 48.585938 37.453125 48.777344 37.164062 C 48.875 36.878906 50.113281 36.6875 50.304688 36.878906 C 50.496094 37.070312 50.019531 38.40625 49.734375 38.503906 C 49.445312 38.597656 48.875 38.214844 48.777344 37.929688 C 48.683594 37.546875 48.875 36.878906 49.351562 36.59375 C 50.113281 36.117188 52.980469 36.496094 54.21875 36.785156 C 54.886719 36.878906 55.460938 37.070312 55.9375 37.546875 C 56.320312 38.023438 56.414062 38.789062 56.511719 39.839844 C 56.894531 42.226562 56.796875 48.238281 56.414062 51.292969 C 56.128906 53.488281 55.9375 55.492188 55.078125 56.640625 C 54.601562 57.402344 53.933594 57.785156 52.980469 58.167969 C 51.355469 58.738281 47.25 59.695312 46.105469 59.121094 C 45.628906 58.835938 45.628906 58.546875 45.4375 57.785156 C 44.863281 55.015625 45.722656 40.792969 46.679688 38.503906 C 46.871094 37.929688 47.15625 37.546875 47.441406 37.546875 C 47.824219 37.546875 48.585938 38.503906 48.585938 38.503906 " clip-rule="nonzero"/></clipPath><clipPath id="fdf2db2e2d"><path d="M 47.128906 23.265625 L 55.773438 23.265625 L 55.773438 33.101562 L 47.128906 33.101562 Z M 47.128906 23.265625 " clip-rule="nonzero"/></clipPath><clipPath id="d305c905b7"><path d="M 49.636719 25.996094 C 49.636719 30.675781 51.070312 31.246094 51.929688 31.246094 C 52.691406 31.152344 53.839844 30.386719 54.027344 29.71875 C 54.21875 29.148438 53.648438 28.289062 53.167969 27.523438 C 52.40625 26.476562 49.351562 25.328125 49.351562 24.566406 C 49.351562 24.089844 50.59375 23.324219 50.878906 23.515625 C 51.070312 23.609375 51.164062 24.660156 50.972656 24.851562 C 50.785156 25.042969 49.542969 24.851562 49.445312 24.660156 C 49.351562 24.375 49.925781 23.324219 50.496094 23.324219 C 51.453125 23.230469 54.027344 25.234375 54.792969 26.664062 C 55.554688 27.90625 56.035156 30.101562 55.554688 31.152344 C 55.175781 32.105469 53.933594 32.871094 52.882812 33.0625 C 51.546875 33.253906 49.066406 32.679688 48.109375 31.535156 C 47.25 30.578125 47.0625 28.097656 47.25 26.855469 C 47.441406 25.996094 48.015625 24.757812 48.492188 24.757812 C 48.777344 24.660156 49.636719 25.996094 49.636719 25.996094 " clip-rule="nonzero"/></clipPath><clipPath id="4292ccaf50"><path d="M 55.945312 19.417969 L 93 19.417969 L 93 65.613281 L 55.945312 65.613281 Z M 55.945312 19.417969 " clip-rule="nonzero"/></clipPath><clipPath id="6f989d5cc7"><path d="M 73.691406 29.816406 C 68.253906 34.398438 67.679688 35.734375 66.914062 37.644531 C 65.867188 40.507812 64.242188 45.949219 64.242188 48.90625 C 64.148438 50.910156 64.53125 52.628906 65.199219 53.777344 C 65.769531 54.632812 66.628906 55.113281 67.394531 55.398438 C 68.253906 55.683594 69.300781 55.875 70.257812 55.589844 C 71.59375 55.207031 73.789062 53.871094 74.648438 52.535156 C 75.507812 51.199219 75.792969 49.097656 75.601562 47.378906 C 75.316406 45.566406 72.546875 42.988281 72.835938 41.84375 C 73.023438 41.269531 73.597656 41.078125 74.457031 40.699219 C 76.269531 39.742188 81.234375 38.214844 83.90625 37.835938 C 85.625 37.546875 87.152344 37.261719 88.488281 37.835938 C 89.824219 38.40625 90.972656 39.839844 91.734375 41.460938 C 92.785156 43.945312 92.59375 48.621094 92.785156 51.675781 C 92.878906 54.0625 93.261719 56.542969 92.59375 58.261719 C 92.117188 59.695312 90.972656 61.222656 89.921875 61.601562 C 89.0625 61.890625 87.726562 61.414062 86.960938 60.933594 C 86.101562 60.457031 85.625 59.789062 85.148438 58.644531 C 84.195312 56.640625 84.289062 51.199219 83.523438 49.195312 C 83.046875 48.144531 82.476562 46.902344 82.09375 46.996094 C 81.140625 47.1875 81.140625 55.015625 80.089844 57.5 C 79.421875 59.121094 78.65625 60.074219 77.605469 61.125 C 76.652344 62.082031 75.601562 62.652344 74.265625 63.320312 C 72.546875 64.179688 69.875 65.136719 68.0625 65.421875 C 66.628906 65.613281 65.484375 65.515625 64.242188 65.136719 C 62.714844 64.65625 61.09375 63.511719 59.949219 62.558594 C 58.898438 61.699219 58.132812 60.839844 57.5625 59.695312 C 56.796875 58.261719 56.511719 56.351562 56.222656 54.445312 C 55.9375 52.058594 55.84375 49.480469 56.128906 46.519531 C 56.511719 42.605469 57.273438 37.164062 58.707031 33.0625 C 59.949219 29.433594 62.046875 25.328125 63.765625 23.132812 C 64.816406 21.796875 65.867188 21.035156 66.914062 20.367188 C 67.964844 19.886719 68.921875 19.507812 69.96875 19.601562 C 71.210938 19.695312 72.835938 20.367188 73.789062 21.128906 C 74.648438 21.988281 75.21875 23.324219 75.410156 24.277344 C 75.601562 25.136719 75.699219 25.710938 75.316406 26.761719 C 74.363281 29.339844 67.203125 38.503906 65.578125 38.503906 C 65.101562 38.503906 64.53125 37.355469 64.625 37.070312 C 64.71875 36.785156 65.675781 36.59375 65.960938 36.785156 C 66.246094 36.878906 66.4375 37.835938 66.246094 38.121094 C 66.054688 38.3125 65.386719 38.597656 65.101562 38.40625 C 64.816406 38.3125 64.53125 37.738281 64.53125 37.164062 C 64.816406 35.542969 70.066406 31.535156 71.59375 29.242188 C 72.644531 27.621094 73.691406 26.1875 73.597656 24.851562 C 73.503906 23.707031 72.546875 22.371094 71.59375 21.894531 C 70.636719 21.414062 69.015625 21.605469 67.964844 21.988281 C 66.914062 22.371094 66.152344 23.230469 65.292969 24.277344 C 64.148438 25.617188 63.003906 27.238281 61.953125 29.625 C 60.425781 33.253906 58.707031 40.21875 58.132812 44.707031 C 57.75 48.144531 57.75 51.484375 58.132812 54.253906 C 58.421875 56.257812 58.898438 58.070312 59.660156 59.503906 C 60.234375 60.554688 61.09375 61.222656 61.953125 61.890625 C 63.003906 62.558594 64.242188 63.226562 65.578125 63.417969 C 66.914062 63.609375 68.632812 63.417969 70.160156 63.035156 C 71.59375 62.558594 73.214844 61.984375 74.550781 61.03125 C 75.984375 59.980469 77.417969 58.644531 78.273438 56.832031 C 79.515625 54.347656 79.515625 48.714844 80.28125 46.808594 C 80.566406 46.042969 80.757812 45.46875 81.140625 45.28125 C 81.617188 44.992188 82.1875 44.898438 82.667969 45.183594 C 83.523438 45.566406 84.671875 47.285156 85.339844 48.8125 C 86.292969 51.101562 85.910156 55.875 86.769531 57.6875 C 87.25 58.644531 87.820312 59.40625 88.488281 59.503906 C 89.0625 59.695312 90.015625 59.503906 90.492188 58.738281 C 91.734375 56.925781 90.875 46.617188 90.113281 43.371094 C 89.824219 41.746094 89.347656 40.601562 88.679688 40.03125 C 88.203125 39.550781 87.917969 39.457031 87.058594 39.457031 C 84.957031 39.265625 75.601562 39.839844 74.550781 41.9375 C 73.789062 43.464844 77.417969 46.710938 77.605469 48.714844 C 77.796875 50.148438 77.417969 51.484375 76.84375 52.628906 C 76.175781 53.871094 75.316406 55.113281 74.074219 55.875 C 72.546875 56.832031 69.683594 57.785156 67.871094 57.5 C 66.246094 57.210938 64.433594 55.972656 63.480469 54.539062 C 62.523438 53.011719 62.238281 51.007812 62.332031 48.714844 C 62.429688 45.46875 63.859375 40.125 65.199219 36.878906 C 66.34375 34.207031 67.773438 31.820312 69.300781 30.292969 C 70.542969 29.148438 72.164062 28.003906 73.121094 28.003906 C 73.597656 28.003906 74.074219 28.289062 74.171875 28.671875 C 74.265625 28.957031 73.691406 29.816406 73.691406 29.816406 " clip-rule="nonzero"/></clipPath><clipPath id="0a00e4d0e5"><path d="M 91.679688 30.300781 L 117 30.300781 L 117 61 L 91.679688 61 Z M 91.679688 30.300781 " clip-rule="nonzero"/></clipPath><clipPath id="2ce806fbcb"><path d="M 100.898438 36.6875 C 102.425781 55.015625 102.425781 55.398438 102.140625 55.683594 C 101.949219 55.875 101.183594 55.972656 100.898438 55.683594 C 100.230469 55.113281 100.230469 52.058594 100.324219 50.148438 C 100.421875 47.953125 100.898438 45.46875 101.757812 43.371094 C 102.710938 41.367188 104.238281 39.171875 105.671875 37.738281 C 107.007812 36.496094 108.628906 35.351562 110.0625 34.96875 C 111.207031 34.683594 112.734375 34.96875 113.59375 35.449219 C 114.359375 35.828125 114.738281 36.308594 115.21875 37.355469 C 116.171875 39.457031 116.839844 45.949219 116.933594 48.714844 C 116.933594 50.339844 117.222656 51.867188 116.554688 52.535156 C 115.980469 53.011719 114.359375 52.820312 113.308594 52.4375 C 112.066406 51.960938 110.539062 50.816406 109.777344 49.480469 C 108.820312 48.144531 108.628906 44.230469 108.152344 44.230469 C 107.292969 44.324219 107.292969 54.730469 105.765625 57.402344 C 104.90625 59.027344 103.761719 59.789062 102.425781 60.363281 C 100.898438 60.933594 98.609375 61.222656 97.082031 60.457031 C 95.457031 59.695312 94.121094 57.402344 93.261719 55.492188 C 92.308594 53.394531 92.117188 50.910156 91.925781 48.335938 C 91.640625 44.992188 91.734375 40.410156 92.308594 37.261719 C 92.785156 34.78125 93.261719 31.535156 94.503906 30.675781 C 95.171875 30.199219 96.414062 30.292969 97.269531 30.675781 C 98.320312 31.246094 99.847656 33.730469 99.847656 34.589844 C 99.847656 35.160156 99.464844 35.734375 99.179688 35.828125 C 98.894531 35.925781 98.226562 35.636719 98.128906 35.351562 C 97.9375 35.066406 98.320312 34.109375 98.609375 34.015625 C 98.894531 33.921875 99.945312 34.589844 99.945312 34.875 C 99.945312 35.066406 98.894531 35.734375 98.417969 35.636719 C 97.558594 35.449219 96.699219 31.628906 96.03125 31.726562 C 95.171875 31.820312 94.214844 36.6875 93.835938 39.742188 C 93.453125 43.464844 93.644531 49.289062 94.40625 52.535156 C 94.886719 54.730469 95.742188 56.734375 96.792969 57.785156 C 97.460938 58.546875 98.226562 59.121094 99.179688 59.121094 C 100.421875 59.214844 102.519531 58.359375 103.476562 57.402344 C 104.429688 56.449219 104.71875 55.113281 105.097656 53.585938 C 105.574219 51.578125 105.003906 47.855469 105.480469 46.042969 C 105.863281 44.898438 106.339844 43.945312 107.007812 43.464844 C 107.582031 42.988281 108.34375 42.417969 108.917969 42.605469 C 109.871094 42.988281 110.15625 46.902344 111.207031 48.335938 C 112.257812 49.671875 114.359375 51.578125 115.027344 51.199219 C 116.171875 50.625 114.453125 41.269531 113.878906 39.171875 C 113.691406 38.40625 113.59375 38.023438 113.117188 37.644531 C 112.640625 37.164062 111.683594 36.6875 110.828125 36.6875 C 109.679688 36.878906 108.152344 38.023438 107.101562 38.980469 C 106.054688 39.933594 105.195312 40.984375 104.429688 42.320312 C 103.570312 43.847656 102.808594 45.851562 102.425781 47.953125 C 102.042969 50.148438 103.191406 54.253906 102.425781 55.304688 C 102.042969 55.78125 101.375 55.972656 100.898438 55.683594 C 99.371094 54.730469 98.128906 39.074219 98.988281 36.785156 C 99.179688 36.117188 99.65625 35.828125 99.945312 35.828125 C 100.324219 35.828125 100.898438 36.6875 100.898438 36.6875 " clip-rule="nonzero"/></clipPath><clipPath id="48947e8b75"><path d="M 126.886719 8.117188 L 158 8.117188 L 158 55 L 126.886719 55 Z M 126.886719 8.117188 " clip-rule="nonzero"/></clipPath><clipPath id="12953ac9df"><path d="M 129.820312 14.828125 C 128.675781 28.765625 129.058594 35.828125 129.535156 39.839844 C 129.820312 42.417969 130.109375 44.132812 130.777344 46.042969 C 131.347656 47.855469 132.113281 49.765625 133.257812 50.910156 C 134.402344 52.058594 136.121094 52.726562 137.554688 53.011719 C 138.890625 53.203125 140.226562 53.105469 141.753906 52.535156 C 144.140625 51.578125 147.863281 49.195312 150.058594 46.710938 C 152.351562 44.132812 154.070312 40.792969 155.117188 37.164062 C 156.167969 33.15625 156.167969 27.144531 155.882812 23.515625 C 155.691406 21.035156 155.117188 18.933594 154.449219 17.214844 C 153.78125 15.878906 152.828125 13.96875 152.160156 13.777344 C 151.777344 13.777344 151.492188 13.96875 151.203125 14.351562 C 150.632812 14.925781 150.25 16.453125 149.867188 18.074219 C 149.296875 21.128906 149.675781 27.429688 149.007812 31.246094 C 148.4375 34.207031 147.769531 36.6875 146.621094 38.980469 C 145.574219 41.175781 144.046875 43.464844 142.421875 44.707031 C 141.183594 45.660156 139.558594 46.140625 138.222656 46.234375 C 137.171875 46.328125 136.027344 46.042969 135.167969 45.566406 C 134.308594 45.089844 133.546875 44.324219 133.066406 43.371094 C 132.398438 42.320312 132.113281 41.175781 131.828125 39.171875 C 131.347656 34.683594 133.355469 21.320312 133.066406 16.546875 C 132.875 14.351562 132.6875 12.917969 132.207031 11.773438 C 131.828125 10.914062 131.253906 9.960938 130.777344 9.960938 C 130.109375 10.054688 129.441406 13.777344 128.582031 14.066406 C 128.105469 14.257812 127.054688 13.777344 126.957031 13.492188 C 126.957031 13.300781 127.914062 12.441406 128.199219 12.539062 C 128.484375 12.539062 128.867188 13.875 128.675781 13.96875 C 128.484375 14.160156 127.148438 13.777344 126.957031 13.300781 C 126.671875 12.441406 128.484375 8.816406 129.726562 8.335938 C 130.679688 7.957031 132.398438 8.816406 133.257812 9.675781 C 134.308594 10.820312 134.59375 12.632812 134.882812 15.019531 C 135.453125 19.792969 133.164062 31.628906 133.640625 36.6875 C 133.925781 39.457031 134.214844 41.9375 135.167969 43.179688 C 135.835938 44.039062 137.078125 44.324219 137.9375 44.421875 C 138.699219 44.421875 139.367188 44.230469 140.226562 43.753906 C 141.660156 42.894531 143.664062 40.410156 144.808594 38.3125 C 146.050781 36.117188 146.527344 33.921875 147.101562 30.960938 C 147.960938 26.664062 147.195312 17.980469 148.628906 14.925781 C 149.390625 13.300781 150.632812 11.964844 151.683594 11.871094 C 152.730469 11.773438 154.164062 13.109375 155.117188 14.445312 C 156.359375 16.164062 157.21875 18.933594 157.601562 21.894531 C 158.269531 26.1875 157.980469 33.347656 156.933594 37.738281 C 156.074219 41.078125 154.640625 43.65625 152.828125 46.140625 C 151.109375 48.621094 148.628906 51.101562 146.144531 52.535156 C 143.855469 53.871094 140.894531 54.921875 138.605469 54.921875 C 136.503906 54.921875 134.5 54.253906 132.972656 53.105469 C 131.445312 52.058594 130.394531 50.242188 129.535156 48.238281 C 128.484375 45.949219 128.105469 43.371094 127.625 39.933594 C 126.957031 34.683594 126.769531 24.183594 127.054688 19.601562 C 127.246094 17.214844 127.339844 15.113281 128.007812 14.257812 C 128.296875 13.875 128.867188 13.683594 129.152344 13.777344 C 129.441406 13.875 129.820312 14.828125 129.820312 14.828125 " clip-rule="nonzero"/></clipPath><clipPath id="2d12614540"><path d="M 160.117188 19.785156 L 182.671875 19.785156 L 182.671875 61.363281 L 160.117188 61.363281 Z M 160.117188 19.785156 " clip-rule="nonzero"/></clipPath><clipPath id="4469b2938a"><path d="M 165.332031 28.097656 C 162.277344 58.359375 162.277344 58.929688 162.753906 59.3125 C 163.519531 59.886719 165.808594 59.503906 166.574219 59.121094 C 167.050781 58.835938 167.242188 58.453125 167.433594 57.785156 C 168.003906 55.972656 167.242188 50.050781 167.8125 46.996094 C 168.195312 44.515625 168.292969 41.269531 169.628906 40.699219 C 171.15625 40.03125 174.972656 44.132812 176.789062 44.421875 C 177.742188 44.515625 178.601562 44.324219 179.171875 43.847656 C 179.9375 43.273438 180.511719 42.035156 180.605469 40.699219 C 180.988281 38.121094 180.03125 32.203125 178.601562 29.816406 C 177.648438 28.191406 176.121094 27.046875 174.6875 26.570312 C 173.351562 26.09375 171.441406 27.429688 170.296875 26.761719 C 169.152344 25.996094 168.863281 21.414062 168.195312 21.511719 C 167.335938 21.511719 166.957031 30.292969 165.714844 31.34375 C 165.238281 31.820312 164.378906 31.820312 164.1875 31.628906 C 163.996094 31.4375 164.570312 30.007812 164.855469 30.007812 C 165.140625 30.007812 165.90625 31.054688 165.808594 31.246094 C 165.617188 31.535156 164.378906 31.820312 164.089844 31.4375 C 163.421875 30.769531 164.28125 26.761719 164.855469 24.757812 C 165.429688 23.039062 166.191406 20.746094 167.144531 20.078125 C 167.8125 19.695312 168.863281 19.695312 169.53125 20.078125 C 170.488281 20.746094 170.296875 24.757812 171.347656 25.328125 C 172.109375 25.804688 173.542969 24.46875 174.6875 24.566406 C 176.023438 24.757812 177.648438 25.804688 178.695312 26.761719 C 179.84375 27.8125 180.511719 29.148438 181.179688 30.867188 C 181.941406 32.964844 182.609375 36.402344 182.609375 38.691406 C 182.609375 40.507812 182.417969 42.320312 181.65625 43.5625 C 180.988281 44.800781 179.746094 45.949219 178.601562 46.234375 C 177.265625 46.617188 175.449219 46.140625 174.113281 45.566406 C 172.777344 44.898438 171.347656 42.035156 170.488281 42.417969 C 168.769531 43.179688 170.390625 57.210938 169.054688 59.597656 C 168.578125 60.457031 168.195312 60.648438 167.433594 60.933594 C 166.191406 61.414062 163.230469 61.414062 162.085938 61.125 C 161.417969 60.933594 160.941406 60.648438 160.65625 60.171875 C 160.273438 59.597656 160.273438 59.027344 160.179688 57.6875 C 160.082031 53.296875 161.894531 30.578125 163.519531 27.90625 C 163.804688 27.332031 164.1875 27.144531 164.472656 27.238281 C 164.855469 27.238281 165.332031 28.097656 165.332031 28.097656 " clip-rule="nonzero"/></clipPath><clipPath id="7802adee33"><path d="M 171.386719 30.535156 L 176.824219 30.535156 L 176.824219 39.296875 L 171.386719 39.296875 Z M 171.386719 30.535156 " clip-rule="nonzero"/></clipPath><clipPath id="f6c59bf1b8"><path d="M 173.542969 32.488281 C 173.542969 37.738281 172.96875 38.121094 172.683594 38.121094 C 172.394531 38.121094 172.015625 37.835938 171.917969 37.355469 C 171.539062 36.402344 171.917969 32.679688 172.777344 31.535156 C 173.445312 30.867188 174.6875 30.386719 175.355469 30.578125 C 176.023438 30.867188 176.691406 32.011719 176.789062 32.871094 C 176.882812 33.921875 176.214844 35.351562 175.640625 36.402344 C 174.972656 37.453125 173.351562 39.363281 172.777344 39.265625 C 172.394531 39.171875 172.015625 37.835938 172.207031 37.644531 C 172.394531 37.453125 173.636719 37.644531 173.734375 37.929688 C 173.828125 38.214844 173.160156 39.265625 172.875 39.265625 C 172.585938 39.265625 171.917969 38.503906 171.917969 38.023438 C 171.917969 37.070312 174.496094 35.257812 174.6875 34.207031 C 174.878906 33.632812 174.59375 32.582031 174.496094 32.582031 C 174.210938 32.582031 173.542969 38.023438 172.875 38.121094 C 172.585938 38.214844 171.917969 37.261719 171.726562 36.496094 C 171.347656 35.542969 171.25 33.347656 171.632812 32.488281 C 171.726562 32.011719 172.109375 31.628906 172.394531 31.535156 C 172.777344 31.535156 173.542969 32.488281 173.542969 32.488281 " clip-rule="nonzero"/></clipPath><clipPath id="fbc7715e1c"><path d="M 5.328125 14.90625 L 39.945312 14.90625 L 39.945312 65.765625 L 5.328125 65.765625 Z M 5.328125 14.90625 " clip-rule="nonzero"/></clipPath><clipPath id="024035bb6c"><path d="M 22.144531 20.460938 C 13.746094 24.46875 12.886719 25.328125 12.21875 26.570312 C 11.453125 28.289062 10.976562 31.152344 11.265625 32.871094 C 11.453125 34.207031 12.027344 35.257812 12.792969 36.117188 C 13.554688 36.976562 14.222656 37.453125 15.75 38.121094 C 19.472656 39.933594 33.316406 42.128906 36.65625 44.515625 C 37.992188 45.46875 38.375 46.328125 38.753906 47.476562 C 39.136719 48.523438 39.234375 49.863281 39.042969 51.007812 C 38.945312 52.25 38.566406 53.296875 37.800781 54.632812 C 36.75 56.542969 34.363281 59.3125 32.359375 60.933594 C 30.640625 62.367188 28.828125 63.417969 26.824219 64.179688 C 24.820312 64.945312 22.335938 65.804688 20.429688 65.707031 C 18.902344 65.707031 16.894531 65.039062 16.132812 64.277344 C 15.558594 63.796875 15.464844 63.035156 15.464844 62.367188 C 15.464844 61.792969 15.558594 61.125 16.226562 60.554688 C 17.851562 59.121094 25.199219 58.929688 28.253906 57.402344 C 30.546875 56.257812 32.742188 54.632812 33.601562 53.105469 C 34.171875 52.058594 34.363281 50.816406 33.984375 49.671875 C 33.503906 48.144531 31.789062 46.519531 29.878906 45.089844 C 27.207031 43.179688 21.765625 42.417969 18.613281 40.125 C 15.65625 38.121094 12.695312 34.683594 11.359375 32.488281 C 10.5 31.152344 10.214844 30.101562 9.925781 28.859375 C 9.640625 27.429688 9.449219 25.902344 9.832031 24.375 C 10.308594 22.464844 11.550781 19.792969 12.980469 18.265625 C 14.320312 16.929688 15.941406 15.972656 17.851562 15.6875 C 20.140625 15.210938 25.105469 15.59375 25.964844 16.929688 C 26.632812 18.074219 25.296875 21.796875 24.152344 22.371094 C 23.101562 22.941406 21 20.9375 19.664062 21.035156 C 18.421875 21.222656 17.085938 22.082031 16.324219 22.941406 C 15.65625 23.800781 15.367188 24.949219 15.367188 26.09375 C 15.273438 27.144531 15.558594 28.289062 16.226562 29.527344 C 17.277344 31.34375 19.089844 33.441406 21.476562 35.160156 C 24.820312 37.644531 32.359375 39.074219 35.414062 41.746094 C 37.515625 43.5625 38.851562 46.042969 39.425781 47.855469 C 39.902344 49.003906 39.996094 49.671875 39.804688 50.910156 C 39.613281 52.820312 38.566406 56.066406 37.226562 57.878906 C 35.890625 59.695312 34.171875 60.839844 31.882812 61.984375 C 28.445312 63.609375 20.429688 65.898438 17.851562 65.324219 C 16.703125 65.136719 16.035156 64.371094 15.75 63.703125 C 15.367188 63.128906 15.367188 62.269531 15.558594 61.699219 C 15.75 61.125 16.035156 60.554688 16.800781 60.074219 C 18.328125 59.121094 23.386719 59.3125 25.488281 58.546875 C 26.824219 57.976562 27.492188 57.59375 28.542969 56.640625 C 30.070312 55.492188 32.742188 53.011719 33.027344 51.390625 C 33.316406 50.339844 33.125 49.382812 32.167969 48.429688 C 29.78125 46.042969 16.132812 45.183594 11.742188 42.511719 C 9.164062 40.984375 7.445312 38.980469 6.394531 37.164062 C 5.726562 35.828125 5.632812 34.683594 5.535156 33.253906 C 5.441406 31.34375 5.441406 28.859375 6.015625 26.855469 C 6.585938 24.851562 7.828125 22.5625 8.972656 21.128906 C 9.925781 19.984375 10.785156 19.410156 12.21875 18.550781 C 14.222656 17.3125 18.519531 14.351562 20.140625 15.113281 C 21.476562 15.6875 22.144531 20.460938 22.144531 20.460938 " clip-rule="nonzero"/></clipPath><mask id="d3b2434f90"><g filter="url(#53bcea15b7)"><rect x="-18.75" width="225" fill="#000000" y="-7.5" height="89.999996" fill-opacity="0.28"/></g></mask><clipPath id="fcc3ad8c76"><path d="M 0.328125 0.90625 L 34.945312 0.90625 L 34.945312 51.765625 L 0.328125 51.765625 Z M 0.328125 0.90625 " clip-rule="nonzero"/></clipPath><clipPath id="cb029f85dc"><path d="M 17.144531 6.460938 C 8.746094 10.46875 7.886719 11.328125 7.21875 12.570312 C 6.453125 14.289062 5.976562 17.152344 6.265625 18.871094 C 6.453125 20.207031 7.027344 21.257812 7.792969 22.117188 C 8.554688 22.976562 9.222656 23.453125 10.75 24.121094 C 14.472656 25.933594 28.316406 28.128906 31.65625 30.515625 C 32.992188 31.46875 33.375 32.328125 33.753906 33.476562 C 34.136719 34.523438 34.234375 35.863281 34.042969 37.007812 C 33.945312 38.25 33.566406 39.296875 32.800781 40.632812 C 31.75 42.542969 29.363281 45.3125 27.359375 46.933594 C 25.640625 48.367188 23.828125 49.417969 21.824219 50.179688 C 19.820312 50.945312 17.335938 51.804688 15.429688 51.707031 C 13.902344 51.707031 11.894531 51.039062 11.132812 50.277344 C 10.558594 49.796875 10.464844 49.035156 10.464844 48.367188 C 10.464844 47.792969 10.558594 47.125 11.226562 46.554688 C 12.851562 45.121094 20.199219 44.929688 23.253906 43.402344 C 25.546875 42.257812 27.742188 40.632812 28.601562 39.105469 C 29.171875 38.058594 29.363281 36.816406 28.984375 35.671875 C 28.503906 34.144531 26.789062 32.519531 24.878906 31.089844 C 22.207031 29.179688 16.765625 28.417969 13.613281 26.125 C 10.65625 24.121094 7.695312 20.683594 6.359375 18.488281 C 5.5 17.152344 5.214844 16.101562 4.925781 14.859375 C 4.640625 13.429688 4.449219 11.902344 4.832031 10.375 C 5.308594 8.464844 6.550781 5.792969 7.980469 4.265625 C 9.320312 2.929688 10.941406 1.972656 12.851562 1.6875 C 15.140625 1.210938 20.105469 1.59375 20.964844 2.929688 C 21.632812 4.074219 20.296875 7.796875 19.152344 8.371094 C 18.101562 8.941406 16 6.9375 14.664062 7.035156 C 13.421875 7.222656 12.085938 8.082031 11.324219 8.941406 C 10.65625 9.800781 10.367188 10.949219 10.367188 12.09375 C 10.273438 13.144531 10.558594 14.289062 11.226562 15.527344 C 12.277344 17.34375 14.089844 19.441406 16.476562 21.160156 C 19.820312 23.644531 27.359375 25.074219 30.414062 27.746094 C 32.515625 29.5625 33.851562 32.042969 34.425781 33.855469 C 34.902344 35.003906 34.996094 35.671875 34.804688 36.910156 C 34.613281 38.820312 33.566406 42.066406 32.226562 43.878906 C 30.890625 45.695312 29.171875 46.839844 26.882812 47.984375 C 23.445312 49.609375 15.429688 51.898438 12.851562 51.324219 C 11.703125 51.136719 11.035156 50.371094 10.75 49.703125 C 10.367188 49.128906 10.367188 48.269531 10.558594 47.699219 C 10.75 47.125 11.035156 46.554688 11.800781 46.074219 C 13.328125 45.121094 18.386719 45.3125 20.488281 44.546875 C 21.824219 43.976562 22.492188 43.59375 23.542969 42.640625 C 25.070312 41.492188 27.742188 39.011719 28.027344 37.390625 C 28.316406 36.339844 28.125 35.382812 27.167969 34.429688 C 24.78125 32.042969 11.132812 31.183594 6.742188 28.511719 C 4.164062 26.984375 2.445312 24.980469 1.394531 23.164062 C 0.726562 21.828125 0.632812 20.683594 0.535156 19.253906 C 0.441406 17.34375 0.441406 14.859375 1.015625 12.855469 C 1.585938 10.851562 2.828125 8.5625 3.972656 7.128906 C 4.925781 5.984375 5.785156 5.410156 7.21875 4.550781 C 9.222656 3.3125 13.519531 0.351562 15.140625 1.113281 C 16.476562 1.6875 17.144531 6.460938 17.144531 6.460938 " clip-rule="nonzero"/></clipPath><clipPath id="4ad9535aa1"><rect x="0" width="35" y="0" height="52"/></clipPath><clipPath id="3a6b871971"><path d="M 48.152344 40.476562 L 55.289062 40.476562 L 55.289062 52.261719 L 48.152344 52.261719 Z M 48.152344 40.476562 " clip-rule="nonzero"/></clipPath><clipPath id="c0681ea5fa"><path d="M 55.269531 41.367188 C 53.742188 52.917969 50.210938 52.820312 49.160156 51.769531 C 47.632812 50.148438 47.917969 42.320312 49.542969 40.890625 C 50.6875 39.839844 55.269531 41.367188 55.269531 41.367188 " clip-rule="nonzero"/></clipPath><mask id="48c85e2a7e"><g filter="url(#53bcea15b7)"><rect x="-18.75" width="225" fill="#000000" y="-7.5" height="89.999996" fill-opacity="0.28"/></g></mask><clipPath id="43d38b6af7"><path d="M 0.152344 0.476562 L 7.289062 0.476562 L 7.289062 12.261719 L 0.152344 12.261719 Z M 0.152344 0.476562 " clip-rule="nonzero"/></clipPath><clipPath id="9d84bf2c60"><path d="M 7.269531 1.367188 C 5.742188 12.917969 2.210938 12.820312 1.160156 11.769531 C -0.367188 10.148438 -0.0820312 2.320312 1.542969 0.890625 C 2.6875 -0.160156 7.269531 1.367188 7.269531 1.367188 " clip-rule="nonzero"/></clipPath><clipPath id="098cd3e26d"><rect x="0" width="8" y="0" height="13"/></clipPath><clipPath id="3eff5c1298"><path d="M 49.335938 26.375 L 55.488281 26.375 L 55.488281 31.78125 L 49.335938 31.78125 Z M 49.335938 26.375 " clip-rule="nonzero"/></clipPath><clipPath id="9d46f081de"><path d="M 55.460938 26.476562 C 55.175781 31.820312 51.261719 32.203125 50.210938 31.4375 C 49.351562 30.769531 49.066406 27.90625 49.734375 27.046875 C 50.496094 26.09375 55.460938 26.476562 55.460938 26.476562 " clip-rule="nonzero"/></clipPath><mask id="0b090083ba"><g filter="url(#53bcea15b7)"><rect x="-18.75" width="225" fill="#000000" y="-7.5" height="89.999996" fill-opacity="0.28"/></g></mask><clipPath id="0f8e75e296"><path d="M 0.335938 0.375 L 6.488281 0.375 L 6.488281 5.78125 L 0.335938 5.78125 Z M 0.335938 0.375 " clip-rule="nonzero"/></clipPath><clipPath id="6c02e54eef"><path d="M 6.460938 0.476562 C 6.175781 5.820312 2.261719 6.203125 1.210938 5.4375 C 0.351562 4.769531 0.0664062 1.90625 0.734375 1.046875 C 1.496094 0.09375 6.460938 0.476562 6.460938 0.476562 " clip-rule="nonzero"/></clipPath><clipPath id="f5a05d34c5"><rect x="0" width="7" y="0" height="6"/></clipPath><clipPath id="85d2c1b6c3"><path d="M 57.4375 24.121094 L 91.507812 24.121094 L 91.507812 65.996094 L 57.4375 65.996094 Z M 57.4375 24.121094 " clip-rule="nonzero"/></clipPath><clipPath id="2fbc15d07d"><path d="M 71.402344 27.046875 C 64.433594 41.367188 63.671875 44.132812 63.382812 46.808594 C 63.097656 49.003906 63.003906 51.101562 63.480469 53.203125 C 63.859375 55.207031 64.625 57.878906 65.769531 59.027344 C 66.628906 59.980469 67.871094 60.457031 69.109375 60.363281 C 70.828125 60.363281 73.789062 58.738281 75.125 57.59375 C 76.078125 56.832031 76.558594 55.972656 77.035156 54.921875 C 77.511719 53.777344 77.703125 52.535156 77.796875 50.910156 C 77.894531 48.714844 76.367188 44.992188 76.84375 43.085938 C 77.226562 41.746094 77.988281 40.792969 79.132812 40.03125 C 80.566406 39.074219 83.523438 38.40625 85.242188 38.503906 C 86.484375 38.597656 87.726562 38.980469 88.394531 39.742188 C 89.253906 40.601562 89.347656 41.746094 89.632812 43.273438 C 90.304688 46.234375 92.402344 54.253906 90.875 56.160156 C 89.824219 57.402344 86.292969 57.6875 85.148438 56.734375 C 83.8125 55.683594 84.195312 51.390625 84.289062 49.097656 C 84.382812 47.285156 85.816406 45.28125 85.242188 44.230469 C 84.863281 43.371094 83.046875 42.417969 82.476562 42.703125 C 81.425781 43.464844 83.714844 50.433594 83.144531 53.585938 C 82.761719 56.160156 81.710938 58.546875 80.28125 60.554688 C 78.65625 62.460938 76.269531 64.277344 73.882812 65.136719 C 71.6875 65.992188 68.347656 66.089844 66.535156 65.707031 C 65.292969 65.515625 64.53125 65.136719 63.574219 64.464844 C 62.238281 63.511719 60.519531 61.792969 59.566406 60.074219 C 58.515625 58.261719 58.039062 56.066406 57.75 53.777344 C 57.371094 51.292969 57.371094 48.523438 57.75 45.757812 C 58.132812 42.605469 59.089844 39.363281 60.328125 36.019531 C 61.855469 32.203125 64.050781 24.949219 66.34375 24.277344 C 67.871094 23.800781 71.402344 27.046875 71.402344 27.046875 " clip-rule="nonzero"/></clipPath><mask id="6b8dbb212d"><g filter="url(#53bcea15b7)"><rect x="-18.75" width="225" fill="#000000" y="-7.5" height="89.999996" fill-opacity="0.28"/></g></mask><clipPath id="c8d2dc25bc"><path d="M 0.4375 0.121094 L 34.507812 0.121094 L 34.507812 41.996094 L 0.4375 41.996094 Z M 0.4375 0.121094 " clip-rule="nonzero"/></clipPath><clipPath id="375896236c"><path d="M 14.402344 3.046875 C 7.433594 17.367188 6.671875 20.132812 6.382812 22.808594 C 6.097656 25.003906 6.003906 27.101562 6.480469 29.203125 C 6.859375 31.207031 7.625 33.878906 8.769531 35.027344 C 9.628906 35.980469 10.871094 36.457031 12.109375 36.363281 C 13.828125 36.363281 16.789062 34.738281 18.125 33.59375 C 19.078125 32.832031 19.558594 31.972656 20.035156 30.921875 C 20.511719 29.777344 20.703125 28.535156 20.796875 26.910156 C 20.894531 24.714844 19.367188 20.992188 19.84375 19.085938 C 20.226562 17.746094 20.988281 16.792969 22.132812 16.03125 C 23.566406 15.074219 26.523438 14.40625 28.242188 14.503906 C 29.484375 14.597656 30.726562 14.980469 31.394531 15.742188 C 32.253906 16.601562 32.347656 17.746094 32.632812 19.273438 C 33.304688 22.234375 35.402344 30.253906 33.875 32.160156 C 32.824219 33.402344 29.292969 33.6875 28.148438 32.734375 C 26.8125 31.683594 27.195312 27.390625 27.289062 25.097656 C 27.382812 23.285156 28.816406 21.28125 28.242188 20.230469 C 27.863281 19.371094 26.046875 18.417969 25.476562 18.703125 C 24.425781 19.464844 26.714844 26.433594 26.144531 29.585938 C 25.761719 32.160156 24.710938 34.546875 23.28125 36.554688 C 21.65625 38.460938 19.269531 40.277344 16.882812 41.136719 C 14.6875 41.992188 11.347656 42.089844 9.535156 41.707031 C 8.292969 41.515625 7.53125 41.136719 6.574219 40.464844 C 5.238281 39.511719 3.519531 37.792969 2.566406 36.074219 C 1.515625 34.261719 1.039062 32.066406 0.75 29.777344 C 0.371094 27.292969 0.371094 24.523438 0.75 21.757812 C 1.132812 18.605469 2.089844 15.363281 3.328125 12.019531 C 4.855469 8.203125 7.050781 0.949219 9.34375 0.277344 C 10.871094 -0.199219 14.402344 3.046875 14.402344 3.046875 " clip-rule="nonzero"/></clipPath><clipPath id="5aa0dcb683"><rect x="0" width="35" y="0" height="42"/></clipPath><clipPath id="afd284b5fa"><path d="M 92.90625 35.648438 L 116.140625 35.648438 L 116.140625 58.304688 L 92.90625 58.304688 Z M 92.90625 35.648438 " clip-rule="nonzero"/></clipPath><clipPath id="d684278b64"><path d="M 99.65625 36.402344 C 100.039062 57.308594 99.371094 57.878906 98.609375 58.070312 C 97.84375 58.359375 96.601562 58.070312 95.933594 57.6875 C 95.457031 57.308594 94.980469 56.734375 94.886719 55.972656 C 94.695312 54.539062 96.316406 51.390625 97.269531 49.480469 C 98.035156 47.953125 98.703125 46.808594 99.847656 45.46875 C 101.375 43.65625 104.238281 41.175781 106.054688 40.21875 C 107.199219 39.550781 108.25 39.074219 109.300781 39.171875 C 110.539062 39.265625 112.066406 39.839844 113.023438 40.984375 C 114.644531 42.894531 116.746094 49.195312 115.789062 51.101562 C 115.027344 52.535156 111.398438 53.679688 110.347656 53.011719 C 109.394531 52.535156 109.300781 49.765625 109.203125 48.238281 C 109.203125 46.996094 110.253906 44.992188 109.777344 44.707031 C 109.203125 44.324219 106.054688 47.09375 104.429688 48.90625 C 102.617188 51.101562 101.375 56.066406 99.753906 57.402344 C 98.894531 58.070312 98.035156 58.261719 97.269531 58.261719 C 96.601562 58.167969 95.933594 57.6875 95.457031 57.210938 C 94.980469 56.640625 94.886719 56.066406 94.695312 54.921875 C 94.027344 51.675781 91.734375 38.214844 93.835938 36.117188 C 95.074219 34.96875 99.65625 36.402344 99.65625 36.402344 " clip-rule="nonzero"/></clipPath><mask id="8f87e8a246"><g filter="url(#53bcea15b7)"><rect x="-18.75" width="225" fill="#000000" y="-7.5" height="89.999996" fill-opacity="0.28"/></g></mask><clipPath id="d446f6785e"><path d="M 0.90625 0.648438 L 24.140625 0.648438 L 24.140625 23.304688 L 0.90625 23.304688 Z M 0.90625 0.648438 " clip-rule="nonzero"/></clipPath><clipPath id="fbca9a57d9"><path d="M 7.65625 1.402344 C 8.039062 22.308594 7.371094 22.878906 6.609375 23.070312 C 5.84375 23.359375 4.601562 23.070312 3.933594 22.6875 C 3.457031 22.308594 2.980469 21.734375 2.886719 20.972656 C 2.695312 19.539062 4.316406 16.390625 5.269531 14.480469 C 6.035156 12.953125 6.703125 11.808594 7.847656 10.46875 C 9.375 8.65625 12.238281 6.175781 14.054688 5.21875 C 15.199219 4.550781 16.25 4.074219 17.300781 4.171875 C 18.539062 4.265625 20.066406 4.839844 21.023438 5.984375 C 22.644531 7.894531 24.746094 14.195312 23.789062 16.101562 C 23.027344 17.535156 19.398438 18.679688 18.347656 18.011719 C 17.394531 17.535156 17.300781 14.765625 17.203125 13.238281 C 17.203125 11.996094 18.253906 9.992188 17.777344 9.707031 C 17.203125 9.324219 14.054688 12.09375 12.429688 13.90625 C 10.617188 16.101562 9.375 21.066406 7.753906 22.402344 C 6.894531 23.070312 6.035156 23.261719 5.269531 23.261719 C 4.601562 23.167969 3.933594 22.6875 3.457031 22.210938 C 2.980469 21.640625 2.886719 21.066406 2.695312 19.921875 C 2.027344 16.675781 -0.265625 3.214844 1.835938 1.117188 C 3.074219 -0.03125 7.65625 1.402344 7.65625 1.402344 " clip-rule="nonzero"/></clipPath><clipPath id="2e62035e97"><rect x="0" width="25" y="0" height="24"/></clipPath><clipPath id="307bf88d56"><path d="M 124.859375 12.265625 L 156.710938 12.265625 L 156.710938 53.085938 L 124.859375 53.085938 Z M 124.859375 12.265625 " clip-rule="nonzero"/></clipPath><clipPath id="89ad72fbc8"><path d="M 134.59375 15.402344 C 130.585938 26.476562 130.585938 31.820312 130.96875 35.449219 C 131.347656 38.40625 132.207031 41.460938 133.066406 43.371094 C 133.640625 44.707031 134.117188 45.757812 135.074219 46.328125 C 135.929688 46.902344 137.171875 47.1875 138.414062 46.808594 C 140.324219 46.328125 142.996094 43.945312 144.617188 41.9375 C 146.335938 39.933594 147.671875 37.453125 148.628906 34.875 C 149.582031 32.296875 150.058594 29.339844 150.25 26.476562 C 150.535156 23.609375 148.816406 19.027344 150.15625 17.882812 C 151.109375 16.929688 154.738281 17.121094 155.785156 18.359375 C 157.503906 20.269531 156.074219 27.90625 155.308594 32.011719 C 154.640625 35.542969 153.496094 38.691406 151.777344 41.558594 C 150.15625 44.421875 147.578125 47.476562 145.191406 49.382812 C 143.1875 51.007812 140.609375 52.25 138.605469 52.726562 C 137.269531 53.105469 136.121094 53.203125 134.785156 52.726562 C 133.066406 52.152344 130.96875 50.433594 129.535156 48.714844 C 128.007812 46.808594 126.957031 43.753906 126.289062 41.558594 C 125.71875 39.648438 125.527344 38.214844 125.335938 36.117188 C 125.050781 32.964844 124.761719 28.191406 125.242188 24.566406 C 125.71875 21.320312 126.957031 17.597656 127.914062 15.402344 C 128.484375 14.066406 128.773438 12.632812 129.632812 12.347656 C 130.777344 12.0625 134.59375 15.402344 134.59375 15.402344 " clip-rule="nonzero"/></clipPath><mask id="18fbc53afb"><g filter="url(#53bcea15b7)"><rect x="-18.75" width="225" fill="#000000" y="-7.5" height="89.999996" fill-opacity="0.28"/></g></mask><clipPath id="3d68e6c0f5"><path d="M 0.859375 0.265625 L 32.710938 0.265625 L 32.710938 41.085938 L 0.859375 41.085938 Z M 0.859375 0.265625 " clip-rule="nonzero"/></clipPath><clipPath id="f90590d839"><path d="M 10.59375 3.402344 C 6.585938 14.476562 6.585938 19.820312 6.96875 23.449219 C 7.347656 26.40625 8.207031 29.460938 9.066406 31.371094 C 9.640625 32.707031 10.117188 33.757812 11.074219 34.328125 C 11.929688 34.902344 13.171875 35.1875 14.414062 34.808594 C 16.324219 34.328125 18.996094 31.945312 20.617188 29.9375 C 22.335938 27.933594 23.671875 25.453125 24.628906 22.875 C 25.582031 20.296875 26.058594 17.339844 26.25 14.476562 C 26.535156 11.609375 24.816406 7.027344 26.15625 5.882812 C 27.109375 4.929688 30.738281 5.121094 31.785156 6.359375 C 33.503906 8.269531 32.074219 15.90625 31.308594 20.011719 C 30.640625 23.542969 29.496094 26.691406 27.777344 29.558594 C 26.15625 32.421875 23.578125 35.476562 21.191406 37.382812 C 19.1875 39.007812 16.609375 40.25 14.605469 40.726562 C 13.269531 41.105469 12.121094 41.203125 10.785156 40.726562 C 9.066406 40.152344 6.96875 38.433594 5.535156 36.714844 C 4.007812 34.808594 2.957031 31.753906 2.289062 29.558594 C 1.71875 27.648438 1.527344 26.214844 1.335938 24.117188 C 1.050781 20.964844 0.761719 16.191406 1.242188 12.566406 C 1.71875 9.320312 2.957031 5.597656 3.914062 3.402344 C 4.484375 2.066406 4.773438 0.632812 5.632812 0.347656 C 6.777344 0.0625 10.59375 3.402344 10.59375 3.402344 " clip-rule="nonzero"/></clipPath><clipPath id="3ae3c87f75"><rect x="0" width="33" y="0" height="42"/></clipPath><clipPath id="dafc7f2436"><path d="M 161.5625 25.632812 L 170.53125 25.632812 L 170.53125 60.980469 L 161.5625 60.980469 Z M 161.5625 25.632812 " clip-rule="nonzero"/></clipPath><clipPath id="f8566598ca"><path d="M 170.488281 26.953125 C 167.71875 47.476562 168.292969 56.160156 167.335938 58.738281 C 167.050781 59.695312 166.667969 60.074219 166.191406 60.457031 C 165.617188 60.742188 164.757812 60.933594 164.1875 60.933594 C 163.519531 60.839844 162.753906 60.363281 162.375 59.886719 C 161.992188 59.40625 161.417969 58.359375 161.703125 57.976562 C 162.183594 57.308594 166.957031 57.402344 167.433594 58.070312 C 167.71875 58.453125 167.144531 59.503906 166.667969 59.980469 C 166.285156 60.457031 165.523438 60.839844 164.855469 60.933594 C 164.089844 60.933594 162.945312 60.457031 162.375 59.886719 C 161.894531 59.40625 161.800781 58.929688 161.703125 57.976562 C 161.324219 55.207031 161.992188 46.808594 162.5625 41.367188 C 163.042969 36.117188 162.5625 27.523438 164.855469 25.902344 C 166.191406 24.949219 170.488281 26.953125 170.488281 26.953125 " clip-rule="nonzero"/></clipPath><mask id="51291e3464"><g filter="url(#53bcea15b7)"><rect x="-18.75" width="225" fill="#000000" y="-7.5" height="89.999996" fill-opacity="0.28"/></g></mask><clipPath id="0d6ce41e61"><path d="M 0.5625 0.632812 L 9.53125 0.632812 L 9.53125 35.980469 L 0.5625 35.980469 Z M 0.5625 0.632812 " clip-rule="nonzero"/></clipPath><clipPath id="2a13a2ca7e"><path d="M 9.488281 1.953125 C 6.71875 22.476562 7.292969 31.160156 6.335938 33.738281 C 6.050781 34.695312 5.667969 35.074219 5.191406 35.457031 C 4.617188 35.742188 3.757812 35.933594 3.1875 35.933594 C 2.519531 35.839844 1.753906 35.363281 1.375 34.886719 C 0.992188 34.40625 0.417969 33.359375 0.703125 32.976562 C 1.183594 32.308594 5.957031 32.402344 6.433594 33.070312 C 6.71875 33.453125 6.144531 34.503906 5.667969 34.980469 C 5.285156 35.457031 4.523438 35.839844 3.855469 35.933594 C 3.089844 35.933594 1.945312 35.457031 1.375 34.886719 C 0.894531 34.40625 0.800781 33.929688 0.703125 32.976562 C 0.324219 30.207031 0.992188 21.808594 1.5625 16.367188 C 2.042969 11.117188 1.5625 2.523438 3.855469 0.902344 C 5.191406 -0.0507812 9.488281 1.953125 9.488281 1.953125 " clip-rule="nonzero"/></clipPath><clipPath id="8834499005"><rect x="0" width="10" y="0" height="36"/></clipPath><clipPath id="aabcd28b07"><path d="M 165.867188 26.539062 L 183.316406 26.539062 L 183.316406 46.414062 L 165.867188 46.414062 Z M 165.867188 26.539062 " clip-rule="nonzero"/></clipPath><clipPath id="2d51491e8c"><path d="M 171.25 26.570312 C 179.652344 26.570312 180.511719 27.429688 181.273438 28.382812 C 182.132812 29.433594 182.898438 30.960938 183.085938 32.203125 C 183.375 33.347656 183.375 34.492188 182.800781 35.734375 C 182.039062 37.738281 179.269531 40.316406 176.882812 42.035156 C 174.496094 43.847656 170.296875 46.902344 168.484375 46.234375 C 167.050781 45.757812 165.523438 42.511719 166 41.078125 C 166.667969 39.074219 173.160156 38.023438 175.070312 36.402344 C 176.308594 35.351562 177.550781 34.109375 177.457031 33.253906 C 177.457031 32.394531 176.121094 31.246094 175.355469 31.152344 C 174.6875 30.960938 173.828125 32.203125 173.253906 32.011719 C 172.300781 31.535156 171.25 26.570312 171.25 26.570312 " clip-rule="nonzero"/></clipPath><mask id="771db372a3"><g filter="url(#53bcea15b7)"><rect x="-18.75" width="225" fill="#000000" y="-7.5" height="89.999996" fill-opacity="0.28"/></g></mask><clipPath id="0c1058e9d7"><path d="M 0.867188 0.539062 L 18.316406 0.539062 L 18.316406 20.414062 L 0.867188 20.414062 Z M 0.867188 0.539062 " clip-rule="nonzero"/></clipPath><clipPath id="7cc78f893e"><path d="M 6.25 0.570312 C 14.652344 0.570312 15.511719 1.429688 16.273438 2.382812 C 17.132812 3.433594 17.898438 4.960938 18.085938 6.203125 C 18.375 7.347656 18.375 8.492188 17.800781 9.734375 C 17.039062 11.738281 14.269531 14.316406 11.882812 16.035156 C 9.496094 17.847656 5.296875 20.902344 3.484375 20.234375 C 2.050781 19.757812 0.523438 16.511719 1 15.078125 C 1.667969 13.074219 8.160156 12.023438 10.070312 10.402344 C 11.308594 9.351562 12.550781 8.109375 12.457031 7.253906 C 12.457031 6.394531 11.121094 5.246094 10.355469 5.152344 C 9.6875 4.960938 8.828125 6.203125 8.253906 6.011719 C 7.300781 5.535156 6.25 0.570312 6.25 0.570312 " clip-rule="nonzero"/></clipPath><clipPath id="d4e27a676c"><rect x="0" width="19" y="0" height="21"/></clipPath></defs><g clip-path="url(#c364ff997d)"><g clip-path="url(#b0fce23f5b)"><path fill="#000000" d="M 0 9.195312 L 46.488281 9.195312 L 46.488281 70.394531 L 0 70.394531 Z M 0 9.195312 " fill-opacity="1" fill-rule="nonzero"/></g></g><g clip-path="url(#5e0c7726ee)"><g clip-path="url(#dd486ad469)"><path fill="#000000" d="M 41.621094 32.773438 L 60.425781 32.773438 L 60.425781 62.964844 L 41.621094 62.964844 Z M 41.621094 32.773438 " fill-opacity="1" fill-rule="nonzero"/></g></g><g clip-path="url(#fdf2db2e2d)"><g clip-path="url(#d305c905b7)"><path fill="#000000" d="M 43.433594 19.507812 L 59.46875 19.507812 L 59.46875 36.984375 L 43.433594 36.984375 Z M 43.433594 19.507812 " fill-opacity="1" fill-rule="nonzero"/></g></g><g clip-path="url(#4292ccaf50)"><g clip-path="url(#6f989d5cc7)"><path fill="#000000" d="M 52.3125 15.785156 L 96.601562 15.785156 L 96.601562 69.246094 L 52.3125 69.246094 Z M 52.3125 15.785156 " fill-opacity="1" fill-rule="nonzero"/></g></g><g clip-path="url(#0a00e4d0e5)"><g clip-path="url(#2ce806fbcb)"><path fill="#000000" d="M 88.105469 26.855469 L 120.753906 26.855469 L 120.753906 64.222656 L 88.105469 64.222656 Z M 88.105469 26.855469 " fill-opacity="1" fill-rule="nonzero"/></g></g><g clip-path="url(#48947e8b75)"><g clip-path="url(#12953ac9df)"><path fill="#000000" d="M 123.140625 4.519531 L 161.515625 4.519531 L 161.515625 58.78125 L 123.140625 58.78125 Z M 123.140625 4.519531 " fill-opacity="1" fill-rule="nonzero"/></g></g><g clip-path="url(#2d12614540)"><g clip-path="url(#4469b2938a)"><path fill="#000000" d="M 156.359375 16.261719 L 186.429688 16.261719 L 186.429688 64.886719 L 156.359375 64.886719 Z M 156.359375 16.261719 " fill-opacity="1" fill-rule="nonzero"/></g></g><g clip-path="url(#7802adee33)"><g clip-path="url(#f6c59bf1b8)"><path fill="#000000" d="M 167.8125 26.761719 L 180.699219 26.761719 L 180.699219 43.070312 L 167.8125 43.070312 Z M 167.8125 26.761719 " fill-opacity="1" fill-rule="nonzero"/></g></g><g clip-path="url(#fbc7715e1c)"><g clip-path="url(#024035bb6c)"><g mask="url(#d3b2434f90)"><g transform="matrix(1, 0, 0, 1, 5, 14)"><g clip-path="url(#4ad9535aa1)"><g clip-path="url(#fcc3ad8c76)"><g clip-path="url(#cb029f85dc)"><rect x="-46.25" width="270" fill="#e94b59" height="107.999996" y="-30.499999" fill-opacity="1"/></g></g></g></g></g></g></g><g clip-path="url(#3a6b871971)"><g clip-path="url(#c0681ea5fa)"><g mask="url(#48c85e2a7e)"><g transform="matrix(1, 0, 0, 1, 48, 40)"><g clip-path="url(#098cd3e26d)"><g clip-path="url(#43d38b6af7)"><g clip-path="url(#9d84bf2c60)"><rect x="-89.25" width="270" fill="#e94b59" height="107.999996" y="-56.499999" fill-opacity="1"/></g></g></g></g></g></g></g><g clip-path="url(#3eff5c1298)"><g clip-path="url(#9d46f081de)"><g mask="url(#0b090083ba)"><g transform="matrix(1, 0, 0, 1, 49, 26)"><g clip-path="url(#f5a05d34c5)"><g clip-path="url(#0f8e75e296)"><g clip-path="url(#6c02e54eef)"><rect x="-90.25" width="270" fill="#e94b59" height="107.999996" y="-42.499999" fill-opacity="1"/></g></g></g></g></g></g></g><g clip-path="url(#85d2c1b6c3)"><g clip-path="url(#2fbc15d07d)"><g mask="url(#6b8dbb212d)"><g transform="matrix(1, 0, 0, 1, 57, 24)"><g clip-path="url(#5aa0dcb683)"><g clip-path="url(#c8d2dc25bc)"><g clip-path="url(#375896236c)"><rect x="-98.25" width="270" fill="#e94b59" height="107.999996" y="-40.499999" fill-opacity="1"/></g></g></g></g></g></g></g><g clip-path="url(#afd284b5fa)"><g clip-path="url(#d684278b64)"><g mask="url(#8f87e8a246)"><g transform="matrix(1, 0, 0, 1, 92, 35)"><g clip-path="url(#2e62035e97)"><g clip-path="url(#d446f6785e)"><g clip-path="url(#fbca9a57d9)"><rect x="-133.25" width="270" fill="#e94b59" height="107.999996" y="-51.499999" fill-opacity="1"/></g></g></g></g></g></g></g><g clip-path="url(#307bf88d56)"><g clip-path="url(#89ad72fbc8)"><g mask="url(#18fbc53afb)"><g transform="matrix(1, 0, 0, 1, 124, 12)"><g clip-path="url(#3ae3c87f75)"><g clip-path="url(#3d68e6c0f5)"><g clip-path="url(#f90590d839)"><rect x="-165.25" width="270" fill="#e94b59" height="107.999996" y="-28.499999" fill-opacity="1"/></g></g></g></g></g></g></g><g clip-path="url(#dafc7f2436)"><g clip-path="url(#f8566598ca)"><g mask="url(#51291e3464)"><g transform="matrix(1, 0, 0, 1, 161, 25)"><g clip-path="url(#8834499005)"><g clip-path="url(#0d6ce41e61)"><g clip-path="url(#2a13a2ca7e)"><rect x="-202.25" width="270" fill="#e94b59" height="107.999996" y="-41.499999" fill-opacity="1"/></g></g></g></g></g></g></g><g clip-path="url(#aabcd28b07)"><g clip-path="url(#2d51491e8c)"><g mask="url(#771db372a3)"><g transform="matrix(1, 0, 0, 1, 165, 26)"><g clip-path="url(#d4e27a676c)"><g clip-path="url(#0c1058e9d7)"><g clip-path="url(#7cc78f893e)"><rect x="-206.25" width="270" fill="#e94b59" height="107.999996" y="-42.499999" fill-opacity="1"/></g></g></g></g></g></g></g></svg>